# Blender 3.3.0
# www.blender.org
mtllib placeholder_tree.mtl
o Cylinder
v -0.000000 -1.000000 -1.353399
v 0.000000 1.000000 -1.000000
v 0.676700 -1.000000 -1.172078
v 0.500000 1.000000 -0.866025
v 1.172078 -1.000000 -0.676700
v 0.866025 1.000000 -0.500000
v 1.353399 -1.000000 -0.000000
v 1.000000 1.000000 0.000000
v 1.172078 -1.000000 0.676700
v 0.866025 1.000000 0.500000
v 0.676700 -1.000000 1.172078
v 0.500000 1.000000 0.866025
v -0.000000 -1.000000 1.353399
v 0.000000 1.000000 1.000000
v -0.676700 -1.000000 1.172078
v -0.500000 1.000000 0.866025
v -1.172078 -1.000000 0.676700
v -0.866025 1.000000 0.500000
v -1.353399 -1.000000 -0.000000
v -1.000000 1.000000 0.000000
v -1.172078 -1.000000 -0.676700
v -0.866025 1.000000 -0.500000
v -0.676700 -1.000000 -1.172078
v -0.500000 1.000000 -0.866025
v 0.151243 5.102894 -0.354829
v -0.311667 5.084263 -0.482202
v 0.487782 5.148027 -0.014886
v 0.607774 5.207567 0.446539
v 0.479069 5.265561 0.905808
v 0.136152 5.306469 1.239860
v -0.329092 5.319331 1.359186
v -0.792002 5.300700 1.231813
v -1.128541 5.255567 0.891871
v -1.248534 5.196027 0.430446
v -1.119828 5.138033 -0.028823
v -0.776911 5.097125 -0.362876
v 0.414664 9.537290 -1.310372
v -0.025308 9.544746 -1.426225
v 0.737648 9.518967 -0.990373
v 0.857099 9.494685 -0.551972
v 0.741012 9.470950 -0.112639
v 0.420491 9.454124 0.209908
v -0.018580 9.448713 0.329242
v -0.458553 9.456170 0.213388
v -0.781536 9.474493 -0.106610
v -0.900987 9.498775 -0.545011
v -0.784900 9.522510 -0.984344
v -0.464379 9.539335 -1.306891
v 0.759116 13.996295 -0.952710
v 0.384658 14.002641 -1.051313
v 1.034006 13.980700 -0.680361
v 1.135671 13.960033 -0.307240
v 1.036869 13.939834 0.066675
v 0.764075 13.925512 0.341193
v 0.390384 13.920908 0.442758
v 0.015925 13.927254 0.344155
v -0.258965 13.942848 0.071806
v -0.360629 13.963514 -0.301315
v -0.261828 13.983715 -0.675230
v 0.010966 13.998035 -0.949748
v -0.964077 3.098013 0.363927
v -0.832737 3.069016 -0.115707
v -0.837093 3.127784 0.844640
v -0.485811 3.150350 1.197624
v -0.004356 3.159666 1.328298
v 0.478266 3.153235 1.201647
v 0.832737 3.132781 0.851608
v 0.964077 3.103784 0.371974
v -0.478266 3.048562 -0.465746
v 0.004356 3.042131 -0.592396
v 0.485811 3.051447 -0.461723
v 0.837093 3.074013 -0.108739
v -1.112554 7.330271 -0.741494
v -0.780835 7.318230 -1.069794
v -0.328677 7.314505 -1.189124
v 0.122764 7.320092 -1.067511
v -0.785467 7.378435 0.487691
v -1.115228 7.365030 0.157720
v 0.449850 7.368256 0.161674
v 0.118131 7.380297 0.489974
v 0.452525 7.333497 -0.737540
v -1.234951 7.347401 -0.292193
v -0.334026 7.384022 0.609304
v 0.572247 7.351126 -0.287627
v 0.766702 16.978523 -0.789598
v 0.392243 16.984869 -0.888200
v 1.041592 16.962929 -0.517248
v 1.143256 16.942263 -0.144127
v 1.044455 16.922062 0.229787
v 0.771661 16.907742 0.504305
v 0.397969 16.903137 0.605870
v 0.023511 16.909483 0.507268
v -0.251379 16.925077 0.234918
v -0.353044 16.945744 -0.138203
v -0.254242 16.965944 -0.512117
v 0.018552 16.980265 -0.786636
v 1.048074 12.231188 -0.629110
v 0.942591 12.209621 -0.229913
v -0.443918 12.256471 -1.021982
v -0.152679 12.271758 -1.315062
v 0.246280 12.276675 -1.423494
v 0.646058 12.269900 -1.318225
v -0.147385 12.196191 0.066330
v -0.440861 12.212840 -0.224435
v 0.651352 12.194332 0.063167
v 0.939535 12.253251 -1.027460
v -0.549400 12.234903 -0.622785
v 0.252393 12.189416 0.171599
vn 0.2551 0.1682 -0.9522
vn 0.6970 0.1682 -0.6970
vn 0.9522 0.1682 -0.2551
vn 0.9522 0.1682 0.2551
vn 0.6970 0.1682 0.6970
vn 0.2551 0.1682 0.9522
vn -0.2551 0.1682 0.9522
vn -0.6970 0.1682 0.6970
vn -0.9522 0.1682 0.2551
vn -0.9522 0.1682 -0.2551
vn -0.9593 -0.1222 -0.2544
vn -0.6970 0.1682 -0.6970
vn -0.2551 0.1682 -0.9522
vn -0.0000 -1.0000 -0.0000
vn -0.7062 0.0261 -0.7075
vn -0.9549 -0.1372 0.2633
vn -0.6999 -0.1112 0.7056
vn -0.2618 -0.0529 0.9637
vn 0.2516 0.0234 0.9676
vn 0.7013 0.0986 0.7060
vn 0.9560 0.1526 0.2506
vn -0.2509 0.0127 -0.9679
vn 0.2599 0.0923 -0.9612
vn 0.9490 0.1710 -0.2650
vn -0.7017 -0.0671 -0.7093
vn 0.6944 0.1494 -0.7039
vn 0.9637 -0.0953 0.2495
vn 0.2547 -0.1374 -0.9572
vn -0.6908 0.1984 0.6953
vn 0.7064 -0.0064 0.7078
vn -0.2580 -0.0668 -0.9638
vn 0.6947 -0.1697 -0.6990
vn -0.9495 0.1800 0.2570
vn 0.2574 0.0918 0.9619
vn 0.9534 -0.1563 -0.2579
vn -0.9594 0.1169 -0.2566
vn -0.2535 0.1668 0.9528
vn 0.9614 -0.0978 0.2573
vn 0.2625 -0.0534 0.9635
vn -0.6989 0.2109 -0.6835
vn 0.2532 0.1845 -0.9497
vn -0.7044 -0.0472 0.7082
vn 0.7046 -0.1570 0.6920
vn -0.2582 0.2234 -0.9399
vn 0.7030 0.1029 -0.7037
vn -0.9625 0.0558 0.2654
vn 0.2604 -0.1696 0.9505
vn 0.9648 0.0001 -0.2629
vn -0.9578 0.1502 -0.2450
vn -0.2545 -0.1298 0.9583
vn 0.6985 0.1425 -0.7013
vn -0.6956 0.1434 -0.7040
vn 0.9640 0.0622 -0.2584
vn 0.2540 0.1888 -0.9486
vn -0.2506 0.1891 -0.9494
vn 0.9646 -0.0290 0.2621
vn 0.6996 -0.1044 0.7069
vn 0.2527 -0.1457 0.9565
vn -0.2563 -0.1457 0.9556
vn -0.7025 -0.1042 0.7041
vn -0.9658 -0.0284 0.2578
vn -0.9628 0.0631 -0.2626
vn 0.9608 0.1041 0.2569
vn -0.2563 0.3280 0.9092
vn -0.9624 -0.0811 -0.2593
vn 0.9663 -0.0678 -0.2484
vn 0.2431 0.3317 0.9115
vn -0.9650 0.0903 0.2462
vn 0.7022 -0.2115 -0.6799
vn -0.2456 -0.2945 -0.9236
vn 0.6881 0.2513 0.6807
vn -0.6985 0.2412 0.6737
vn 0.2585 -0.2913 -0.9210
vn -0.6921 -0.2205 -0.6873
vn 0.0051 -0.9919 0.1267
vn 0.0025 0.9985 0.0546
vn 0.9649 0.0119 -0.2623
vn -0.9669 0.0164 -0.2546
vn -0.2551 -0.0522 0.9655
vn 0.9669 -0.0164 0.2546
vn -0.7098 0.0403 -0.7032
vn 0.2551 0.0522 -0.9655
vn -0.7044 -0.0370 0.7088
vn 0.7098 -0.0403 0.7032
vn -0.2625 0.0534 -0.9635
vn 0.7044 0.0370 -0.7088
vn -0.9649 -0.0119 0.2623
vn -0.2525 0.0804 0.9642
vn -0.9618 0.1165 -0.2478
vn 0.9611 -0.0746 -0.2660
vn 0.2618 0.0296 0.9647
vn -0.9547 0.1303 0.2674
vn 0.7007 -0.0614 -0.7108
vn -0.2625 0.0271 -0.9646
vn 0.7097 -0.0221 0.7041
vn -0.6956 0.1170 0.7088
vn 0.2542 -0.0243 -0.9669
vn -0.7092 0.0788 -0.7006
vn 0.9659 -0.0603 0.2520
vt 1.000000 0.500000
vt 0.000000 0.500000
vt 0.750000 0.490000
vt 1.000000 1.000000
vt 0.000000 1.000000
vt 0.916667 0.500000
vt 0.870000 0.457846
vt 0.916667 1.000000
vt 0.833333 0.500000
vt 0.957846 0.370000
vt 0.833333 1.000000
vt 0.750000 0.500000
vt 0.990000 0.250000
vt 0.750000 1.000000
vt 0.666667 0.500000
vt 0.957846 0.130000
vt 0.666667 1.000000
vt 0.583333 0.500000
vt 0.870000 0.042154
vt 0.583333 1.000000
vt 0.500000 0.500000
vt 0.750000 0.010000
vt 0.500000 1.000000
vt 0.416667 0.500000
vt 0.630000 0.042154
vt 0.416667 1.000000
vt 0.333333 0.500000
vt 0.542154 0.130000
vt 0.333333 1.000000
vt 0.250000 0.500000
vt 0.510000 0.250000
vt 0.250000 1.000000
vt 0.166667 0.500000
vt 0.542154 0.370000
vt 0.166667 1.000000
vt 0.083333 0.500000
vt 0.630000 0.457846
vt 0.083333 1.000000
vt 0.916667 1.000000
vt 0.000000 0.000000
vt 0.000000 1.000000
vt 1.000000 1.000000
vt 0.000000 0.000000
vt 0.833333 1.000000
vt 0.000000 0.000000
vt 0.750000 1.000000
vt 0.000000 0.000000
vt 0.666667 1.000000
vt 0.000000 0.000000
vt 0.583333 1.000000
vt 0.000000 0.000000
vt 0.500000 1.000000
vt 0.000000 0.000000
vt 0.416667 1.000000
vt 0.000000 0.000000
vt 0.333333 1.000000
vt 0.000000 0.000000
vt 0.250000 1.000000
vt 0.000000 0.000000
vt 0.166667 1.000000
vt 0.000000 0.000000
vt 0.083333 1.000000
vt 0.000000 0.000000
vt 0.916667 1.000000
vt 0.000000 1.000000
vt 1.000000 1.000000
vt 0.833333 1.000000
vt 0.750000 1.000000
vt 0.666667 1.000000
vt 0.583333 1.000000
vt 0.500000 1.000000
vt 0.416667 1.000000
vt 0.333333 1.000000
vt 0.250000 1.000000
vt 0.166667 1.000000
vt 0.083333 1.000000
vt 0.916667 1.000000
vt 1.000000 1.000000
vt 0.000000 1.000000
vt 0.833333 1.000000
vt 0.750000 1.000000
vt 0.666667 1.000000
vt 0.583333 1.000000
vt 0.500000 1.000000
vt 0.416667 1.000000
vt 0.333333 1.000000
vt 0.250000 1.000000
vt 0.166667 1.000000
vt 0.083333 1.000000
vt 0.250000 1.000000
vt 0.166667 1.000000
vt 0.333333 1.000000
vt 0.416667 1.000000
vt 0.500000 1.000000
vt 0.583333 1.000000
vt 0.666667 1.000000
vt 0.750000 1.000000
vt 0.083333 1.000000
vt 1.000000 1.000000
vt 0.000000 1.000000
vt 0.916667 1.000000
vt 0.833333 1.000000
vt 0.166667 1.000000
vt 0.083333 1.000000
vt 0.000000 1.000000
vt 1.000000 1.000000
vt 0.916667 1.000000
vt 0.416667 1.000000
vt 0.333333 1.000000
vt 0.666667 1.000000
vt 0.583333 1.000000
vt 0.833333 1.000000
vt 0.250000 1.000000
vt 0.500000 1.000000
vt 0.750000 1.000000
vt 0.370000 0.457846
vt 0.916667 1.000000
vt 0.250000 0.490000
vt 1.000000 1.000000
vt 0.000000 1.000000
vt 0.457846 0.370000
vt 0.833333 1.000000
vt 0.490000 0.250000
vt 0.750000 1.000000
vt 0.457846 0.130000
vt 0.666667 1.000000
vt 0.370000 0.042154
vt 0.583333 1.000000
vt 0.250000 0.010000
vt 0.500000 1.000000
vt 0.130000 0.042154
vt 0.416667 1.000000
vt 0.042154 0.130000
vt 0.333333 1.000000
vt 0.010000 0.250000
vt 0.250000 1.000000
vt 0.042154 0.370000
vt 0.166667 1.000000
vt 0.130000 0.457846
vt 0.083333 1.000000
vt 0.750000 1.000000
vt 0.666667 1.000000
vt 0.166667 1.000000
vt 0.083333 1.000000
vt 0.000000 1.000000
vt 1.000000 1.000000
vt 0.916667 1.000000
vt 0.416667 1.000000
vt 0.333333 1.000000
vt 0.583333 1.000000
vt 0.833333 1.000000
vt 0.250000 1.000000
vt 0.500000 1.000000
s 0
f 1/1/1 2/4/1 4/8/1 3/6/1
f 3/6/2 4/8/2 6/11/2 5/9/2
f 5/9/3 6/11/3 8/14/3 7/12/3
f 7/12/4 8/14/4 10/17/4 9/15/4
f 9/15/5 10/17/5 12/20/5 11/18/5
f 11/18/6 12/20/6 14/23/6 13/21/6
f 13/21/7 14/23/7 16/26/7 15/24/7
f 15/24/8 16/26/8 18/29/8 17/27/8
f 17/27/9 18/29/9 20/32/9 19/30/9
f 19/30/10 20/32/10 22/35/10 21/33/10
f 62/91/11 61/90/11 34/58/11 35/60/11
f 21/33/12 22/35/12 24/38/12 23/36/12
f 23/36/13 24/38/13 2/5/13 1/2/13
f 1/3/14 3/7/14 5/10/14 7/13/14 9/16/14 11/19/14 13/22/14 15/25/14 17/28/14 19/31/14 21/34/14 23/37/14
f 74/104/15 73/103/15 47/75/15 48/76/15
f 61/90/16 63/92/16 33/56/16 34/58/16
f 63/92/17 64/93/17 32/54/17 33/56/17
f 64/93/18 65/94/18 31/52/18 32/54/18
f 65/94/19 66/95/19 30/50/19 31/52/19
f 66/95/20 67/96/20 29/48/20 30/50/20
f 67/96/21 68/97/21 28/46/21 29/48/21
f 70/100/22 69/98/22 36/62/22 26/41/22
f 71/101/23 70/99/23 26/42/23 25/39/23
f 68/97/24 72/102/24 27/44/24 28/46/24
f 69/98/25 62/91/25 35/60/25 36/62/25
f 72/102/26 71/101/26 25/39/26 27/44/26
f 98/142/27 97/141/27 52/81/27 53/82/27
f 76/107/28 75/106/28 38/66/28 37/64/28
f 78/109/29 77/108/29 44/72/29 45/73/29
f 80/111/30 79/110/30 41/69/30 42/70/30
f 75/105/31 74/104/31 48/76/31 38/65/31
f 81/112/32 76/107/32 37/64/32 39/67/32
f 82/113/33 78/109/33 45/73/33 46/74/33
f 83/114/34 80/111/34 42/70/34 43/71/34
f 84/115/35 81/112/35 39/67/35 40/68/35
f 73/103/36 82/113/36 46/74/36 47/75/36
f 77/108/37 83/114/37 43/71/37 44/72/37
f 79/110/38 84/115/38 40/68/38 41/69/38
f 55/84/39 54/83/39 90/128/39 91/130/39
f 100/144/40 99/143/40 59/88/40 60/89/40
f 102/147/41 101/146/41 50/78/41 49/77/41
f 104/149/42 103/148/42 56/85/42 57/86/42
f 105/150/43 98/142/43 53/82/43 54/83/43
f 101/145/44 100/144/44 60/89/44 50/79/44
f 106/151/45 102/147/45 49/77/45 51/80/45
f 107/152/46 104/149/46 57/86/46 58/87/46
f 108/153/47 105/150/47 54/83/47 55/84/47
f 97/141/48 106/151/48 51/80/48 52/81/48
f 99/143/49 107/152/49 58/87/49 59/88/49
f 103/148/50 108/153/50 55/84/50 56/85/50
f 6/11/51 4/8/51 71/101/51 72/102/51
f 24/38/52 22/35/52 62/91/52 69/98/52
f 8/14/53 6/11/53 72/102/53 68/97/53
f 4/8/54 2/4/54 70/99/54 71/101/54
f 2/5/55 24/38/55 69/98/55 70/100/55
f 10/17/56 8/14/56 68/97/56 67/96/56
f 12/20/57 10/17/57 67/96/57 66/95/57
f 14/23/58 12/20/58 66/95/58 65/94/58
f 16/26/59 14/23/59 65/94/59 64/93/59
f 18/29/60 16/26/60 64/93/60 63/92/60
f 20/32/61 18/29/61 63/92/61 61/90/61
f 22/35/62 20/32/62 61/90/62 62/91/62
f 29/48/63 28/46/63 84/115/63 79/110/63
f 32/54/64 31/52/64 83/114/64 77/108/64
f 35/60/65 34/58/65 82/113/65 73/103/65
f 28/46/66 27/44/66 81/112/66 84/115/66
f 31/52/67 30/50/67 80/111/67 83/114/67
f 34/58/68 33/56/68 78/109/68 82/113/68
f 27/44/69 25/39/69 76/107/69 81/112/69
f 26/41/70 36/62/70 74/104/70 75/105/70
f 30/50/71 29/48/71 79/110/71 80/111/71
f 33/56/72 32/54/72 77/108/72 78/109/72
f 25/39/73 26/42/73 75/106/73 76/107/73
f 36/62/74 35/60/74 73/103/74 74/104/74
f 25/40/75 27/45/75 28/47/75 29/49/75 30/51/75 31/53/75 32/55/75 33/57/75 34/59/75 35/61/75 36/63/75 26/43/75
f 85/116/76 86/118/76 96/139/76 95/137/76 94/135/76 93/133/76 92/131/76 91/129/76 90/127/76 89/125/76 88/123/76 87/121/76
f 52/81/77 51/80/77 87/122/77 88/124/77
f 59/88/78 58/87/78 94/136/78 95/138/78
f 56/85/79 55/84/79 91/130/79 92/132/79
f 53/82/80 52/81/80 88/124/80 89/126/80
f 60/89/81 59/88/81 95/138/81 96/140/81
f 49/77/82 50/78/82 86/119/82 85/117/82
f 57/86/83 56/85/83 92/132/83 93/134/83
f 54/83/84 53/82/84 89/126/84 90/128/84
f 50/79/85 60/89/85 96/140/85 86/120/85
f 51/80/86 49/77/86 85/117/86 87/122/86
f 58/87/87 57/86/87 93/134/87 94/136/87
f 44/72/88 43/71/88 108/153/88 103/148/88
f 47/75/89 46/74/89 107/152/89 99/143/89
f 40/68/90 39/67/90 106/151/90 97/141/90
f 43/71/91 42/70/91 105/150/91 108/153/91
f 46/74/92 45/73/92 104/149/92 107/152/92
f 39/67/93 37/64/93 102/147/93 106/151/93
f 38/65/94 48/76/94 100/144/94 101/145/94
f 42/70/95 41/69/95 98/142/95 105/150/95
f 45/73/96 44/72/96 103/148/96 104/149/96
f 37/64/97 38/66/97 101/146/97 102/147/97
f 48/76/98 47/75/98 99/143/98 100/144/98
f 41/69/99 40/68/99 97/141/99 98/142/99
o Cylinder.001
v 0.192845 9.151771 -1.020244
v -0.039636 10.327415 -2.218101
v 0.508070 9.277217 -0.966253
v 0.224718 10.432616 -2.172823
v 0.716503 9.500606 -0.809179
v 0.399514 10.619954 -2.041099
v 0.762295 9.762079 -0.591112
v 0.437916 10.839231 -1.858223
v 0.633175 9.991576 -0.370481
v 0.329633 11.031693 -1.673197
v 0.363742 10.127604 -0.206404
v 0.103681 11.145767 -1.535600
v 0.026189 10.133712 -0.142846
v -0.179397 11.150889 -1.482299
v -0.289036 10.008265 -0.196838
v -0.443751 11.045688 -1.527577
v -0.497470 9.784877 -0.353911
v -0.618547 10.858350 -1.659301
v -0.543261 9.523403 -0.571979
v -0.656949 10.639072 -1.842177
v -0.414142 9.293906 -0.792610
v -0.548667 10.446612 -2.027203
v -0.144708 9.157879 -0.956686
v -0.322715 10.332538 -2.164800
v -0.063085 11.458308 -3.283512
v -0.296877 11.414997 -3.331698
v 0.107143 11.564825 -3.147376
v 0.168194 11.706007 -2.959767
v 0.103711 11.844023 -2.770956
v -0.069030 11.941894 -2.631534
v -0.303742 11.973393 -2.578859
v -0.537533 11.930082 -2.627046
v -0.707761 11.823565 -2.763182
v -0.768813 11.682384 -2.950790
v -0.704329 11.544368 -3.139602
v -0.531588 11.446497 -3.279024
v -0.109867 13.426003 -4.880786
v -0.343659 13.382691 -4.928972
v 0.060360 13.532519 -4.744650
v 0.121412 13.673700 -4.557041
v 0.056928 13.811717 -4.368230
v -0.115813 13.909588 -4.228808
v -0.350524 13.941088 -4.176133
v -0.584316 13.897777 -4.224319
v -0.754544 13.791260 -4.360456
v -0.815595 13.650078 -4.548064
v -0.751111 13.512062 -4.736876
v -0.578371 13.414191 -4.876297
v -0.172908 14.856406 -5.804951
v -0.406700 14.813095 -5.853137
v -0.002680 14.962923 -5.668815
v 0.058371 15.104104 -5.481205
v -0.006113 15.242121 -5.292395
v -0.178854 15.339992 -5.152972
v -0.413565 15.371491 -5.100297
v -0.647357 15.328180 -5.148483
v -0.817585 15.221663 -5.284619
v -0.878636 15.080482 -5.472228
v -0.814152 14.942466 -5.661040
v -0.641412 14.844595 -5.800462
v 0.135126 12.647157 -3.752300
v 0.070642 12.785173 -3.563488
v -0.737397 12.485518 -3.932135
v -0.564657 12.387648 -4.071556
v -0.329945 12.356148 -4.124231
v -0.096153 12.399459 -4.076045
v -0.570602 12.871233 -3.419578
v -0.740830 12.764716 -3.555715
v -0.102099 12.883044 -3.424067
v 0.074074 12.505976 -3.939909
v -0.801881 12.623535 -3.743323
v -0.336810 12.914544 -3.371392
vn 0.3672 -0.6272 -0.6868
vn 0.7749 -0.3556 -0.5225
vn 0.9728 0.0218 -0.2305
vn 0.9080 0.4041 0.1111
vn 0.5977 0.6886 0.4106
vn 0.1251 0.7993 0.5878
vn -0.3831 0.7064 0.5952
vn -0.7907 0.4348 0.4309
vn -0.9887 0.0573 0.1389
vn -0.9238 -0.3249 -0.2027
vn 0.7767 -0.3626 -0.5150
vn -0.6135 -0.6095 -0.5022
vn -0.1410 -0.7201 -0.6794
vn 0.1295 -0.6484 0.7502
vn 0.9639 0.1722 0.2033
vn -0.9547 -0.2676 -0.1305
vn -0.9674 0.1282 0.2183
vn -0.7097 0.5010 0.4954
vn -0.2645 0.7403 0.6180
vn 0.1249 0.8005 0.5862
vn 0.5971 0.6908 0.4077
vn 0.9081 0.4035 0.1117
vn -0.1402 -0.7243 -0.6750
vn 0.3686 -0.6334 -0.6804
vn 0.9742 0.0171 -0.2251
vn -0.6130 -0.6132 -0.4982
vn 0.9638 0.1733 0.2025
vn -0.7014 -0.4455 -0.5563
vn 0.2665 -0.5924 -0.7603
vn -0.7125 0.4270 0.5568
vn 0.7014 0.4455 0.5563
vn -0.2510 -0.5993 -0.7602
vn 0.7125 -0.4270 -0.5568
vn -0.9678 0.1472 0.2042
vn 0.2510 0.5993 0.7602
vn 0.9678 -0.1472 -0.2042
vn -0.9639 -0.1722 -0.2033
vn -0.2665 0.5924 0.7603
vn -0.0260 0.8028 -0.5957
vn -0.7022 -0.4080 -0.5836
vn 0.2635 -0.5153 -0.8155
vn -0.7096 0.3600 0.6056
vn 0.7021 0.4080 0.5836
vn -0.2528 -0.5329 -0.8076
vn 0.7096 -0.3600 -0.6056
vn -0.9664 0.1081 0.2332
vn 0.2528 0.5329 0.8076
vn 0.9664 -0.1081 -0.2332
vn -0.9638 -0.1733 -0.2025
vn -0.2635 0.5153 0.8155
vn -0.2669 0.6153 0.7418
vn -0.9631 -0.1924 -0.1883
vn 0.9677 -0.1415 -0.2084
vn 0.2497 0.6289 0.7364
vn -0.9677 0.1415 0.2084
vn 0.7125 -0.4372 -0.5489
vn -0.2497 -0.6289 -0.7364
vn 0.6998 0.4743 0.5341
vn -0.7125 0.4372 0.5489
vn 0.2669 -0.6153 -0.7418
vn -0.6998 -0.4743 -0.5341
vn 0.9631 0.1924 0.1883
vn 0.7123 -0.4139 -0.5668
vn -0.9243 -0.3201 -0.2080
vn -0.9891 0.0616 0.1338
vn -0.7916 0.4414 0.4226
vn -0.3849 0.7169 0.5814
vn 0.2309 0.8041 0.5478
vn 0.6607 0.6620 0.3539
vn 0.9314 0.3598 0.0551
vn -0.2437 -0.7083 -0.6625
vn 0.2670 -0.6579 -0.7042
vn 0.9580 -0.0365 -0.2843
vn -0.6884 -0.5621 -0.4584
vn -0.0259 0.8028 -0.5957
vn -0.7021 -0.4080 -0.5836
vt 1.000000 0.500000
vt 0.000000 0.500000
vt 0.750000 0.490000
vt 0.000000 1.000000
vt 1.000000 1.000000
vt 0.916667 0.500000
vt 0.870000 0.457846
vt 0.916667 1.000000
vt 0.833333 0.500000
vt 0.957846 0.370000
vt 0.833333 1.000000
vt 0.750000 0.500000
vt 0.990000 0.250000
vt 0.750000 1.000000
vt 0.666667 0.500000
vt 0.957846 0.130000
vt 0.666667 1.000000
vt 0.583333 0.500000
vt 0.870000 0.042154
vt 0.583333 1.000000
vt 0.500000 0.500000
vt 0.750000 0.010000
vt 0.500000 1.000000
vt 0.416667 0.500000
vt 0.630000 0.042154
vt 0.416667 1.000000
vt 0.333333 0.500000
vt 0.542154 0.130000
vt 0.333333 1.000000
vt 0.250000 0.500000
vt 0.510000 0.250000
vt 0.250000 1.000000
vt 0.166667 0.500000
vt 0.542154 0.370000
vt 0.166667 1.000000
vt 0.083333 0.500000
vt 0.630000 0.457846
vt 0.083333 1.000000
vt 0.916667 1.000000
vt 0.000000 1.000000
vt 1.000000 1.000000
vt 0.833333 1.000000
vt 0.750000 1.000000
vt 0.666667 1.000000
vt 0.583333 1.000000
vt 0.500000 1.000000
vt 0.416667 1.000000
vt 0.333333 1.000000
vt 0.250000 1.000000
vt 0.166667 1.000000
vt 0.083333 1.000000
vt 0.916667 1.000000
vt 0.000000 1.000000
vt 1.000000 1.000000
vt 0.833333 1.000000
vt 0.750000 1.000000
vt 0.666667 1.000000
vt 0.583333 1.000000
vt 0.500000 1.000000
vt 0.416667 1.000000
vt 0.333333 1.000000
vt 0.250000 1.000000
vt 0.166667 1.000000
vt 0.083333 1.000000
vt 0.370000 0.457846
vt 0.916667 1.000000
vt 0.250000 0.490000
vt 1.000000 1.000000
vt 0.000000 1.000000
vt 0.457846 0.370000
vt 0.833333 1.000000
vt 0.750000 1.000000
vt 0.490000 0.250000
vt 0.457846 0.130000
vt 0.666667 1.000000
vt 0.370000 0.042154
vt 0.583333 1.000000
vt 0.250000 0.010000
vt 0.500000 1.000000
vt 0.130000 0.042154
vt 0.416667 1.000000
vt 0.042154 0.130000
vt 0.333333 1.000000
vt 0.010000 0.250000
vt 0.250000 1.000000
vt 0.042154 0.370000
vt 0.166667 1.000000
vt 0.130000 0.457846
vt 0.083333 1.000000
vt 0.750000 1.000000
vt 0.666667 1.000000
vt 0.166667 1.000000
vt 0.083333 1.000000
vt 0.000000 1.000000
vt 1.000000 1.000000
vt 0.916667 1.000000
vt 0.416667 1.000000
vt 0.333333 1.000000
vt 0.583333 1.000000
vt 0.833333 1.000000
vt 0.250000 1.000000
vt 0.500000 1.000000
s 0
f 110/158/100 111/159/100 109/154/100
f 112/161/101 113/162/101 111/159/101
f 114/164/102 115/165/102 113/162/102
f 116/167/103 117/168/103 115/165/103
f 118/170/104 119/171/104 117/168/104
f 120/173/105 121/174/105 119/171/105
f 122/176/106 123/177/106 121/174/106
f 123/177/107 126/182/107 125/180/107
f 125/180/108 128/185/108 127/183/108
f 128/185/109 129/186/109 127/183/109
f 112/161/110 135/195/110 114/164/110
f 130/188/111 131/189/111 129/186/111
f 132/191/112 109/155/112 131/189/112
f 115/166/113 123/178/113 131/190/113
f 170/244/114 148/209/114 149/210/114
f 130/188/115 142/202/115 143/203/115
f 128/185/116 141/201/116 142/202/116
f 126/182/117 140/200/117 141/201/117
f 124/179/118 139/199/118 140/200/118
f 120/173/119 139/199/119 122/176/119
f 118/170/120 138/198/120 120/173/120
f 116/167/121 137/197/121 118/170/121
f 132/191/122 134/193/122 110/157/122
f 110/158/123 133/192/123 112/161/123
f 114/164/124 136/196/124 116/167/124
f 130/188/125 144/204/125 132/191/125
f 149/210/126 160/225/126 161/228/126
f 172/246/127 155/216/127 156/217/127
f 174/249/128 146/207/128 145/205/128
f 175/250/129 153/214/129 176/251/129
f 170/244/130 150/211/130 177/252/130
f 173/247/131 156/217/131 146/206/131
f 178/253/132 145/205/132 147/208/132
f 176/251/133 154/215/133 179/254/133
f 177/252/134 151/212/134 180/255/134
f 169/243/135 147/208/135 148/209/135
f 179/254/136 155/216/136 171/245/136
f 180/255/137 152/213/137 175/250/137
f 161/227/138 160/226/138 157/218/138
f 155/216/139 168/242/139 156/217/139
f 145/205/140 158/221/140 157/219/140
f 152/213/141 165/236/141 153/214/141
f 150/211/142 161/228/142 162/230/142
f 156/217/143 158/222/143 146/206/143
f 147/208/144 157/219/144 159/224/144
f 153/214/145 166/238/145 154/215/145
f 151/212/146 162/230/146 163/232/146
f 148/209/147 159/224/147 160/225/147
f 154/215/148 167/240/148 155/216/148
f 151/212/149 164/234/149 152/213/149
f 139/199/150 175/250/150 140/200/150
f 142/202/151 171/245/151 143/203/151
f 136/196/152 178/253/152 169/243/152
f 138/198/153 180/255/153 139/199/153
f 141/201/154 179/254/154 142/202/154
f 135/195/155 174/249/155 178/253/155
f 134/193/156 172/246/156 173/247/156
f 137/197/157 177/252/157 138/198/157
f 140/200/158 176/251/158 141/201/158
f 133/192/159 173/248/159 174/249/159
f 144/204/160 171/245/160 172/246/160
f 137/197/161 169/243/161 170/244/161
f 110/158/100 112/161/100 111/159/100
f 112/161/101 114/164/101 113/162/101
f 114/164/102 116/167/102 115/165/102
f 116/167/103 118/170/103 117/168/103
f 118/170/104 120/173/104 119/171/104
f 120/173/105 122/176/105 121/174/105
f 122/176/106 124/179/106 123/177/106
f 123/177/107 124/179/107 126/182/107
f 125/180/108 126/182/108 128/185/108
f 128/185/109 130/188/109 129/186/109
f 112/161/162 133/192/162 135/195/162
f 130/188/111 132/191/111 131/189/111
f 132/191/112 110/157/112 109/155/112
f 131/190/113 109/156/113 111/160/113
f 111/160/113 113/163/113 131/190/113
f 113/163/113 115/166/113 131/190/113
f 115/166/113 117/169/113 119/172/113
f 119/172/113 121/175/113 115/166/113
f 121/175/113 123/178/113 115/166/113
f 123/178/113 125/181/113 127/184/113
f 127/184/113 129/187/113 131/190/113
f 123/178/113 127/184/113 131/190/113
f 170/244/114 169/243/114 148/209/114
f 130/188/163 128/185/163 142/202/163
f 128/185/164 126/182/164 141/201/164
f 126/182/165 124/179/165 140/200/165
f 124/179/166 122/176/166 139/199/166
f 120/173/167 138/198/167 139/199/167
f 118/170/168 137/197/168 138/198/168
f 116/167/169 136/196/169 137/197/169
f 132/191/170 144/204/170 134/193/170
f 110/158/171 134/194/171 133/192/171
f 114/164/172 135/195/172 136/196/172
f 130/188/173 143/203/173 144/204/173
f 149/210/126 148/209/126 160/225/126
f 172/246/127 171/245/127 155/216/127
f 174/249/128 173/248/128 146/207/128
f 175/250/129 152/213/129 153/214/129
f 170/244/130 149/210/130 150/211/130
f 173/247/131 172/246/131 156/217/131
f 178/253/132 174/249/132 145/205/132
f 176/251/133 153/214/133 154/215/133
f 177/252/134 150/211/134 151/212/134
f 169/243/135 178/253/135 147/208/135
f 179/254/136 154/215/136 155/216/136
f 180/255/137 151/212/137 152/213/137
f 159/223/174 157/218/174 160/226/174
f 157/218/174 158/220/174 161/227/174
f 158/220/174 168/241/174 162/229/174
f 168/241/174 167/239/174 163/231/174
f 167/239/138 166/237/138 164/233/138
f 166/237/138 165/235/138 164/233/138
f 164/233/174 163/231/174 167/239/174
f 163/231/174 162/229/174 168/241/174
f 162/229/174 161/227/174 158/220/174
f 155/216/175 167/240/175 168/242/175
f 145/205/140 146/207/140 158/221/140
f 152/213/141 164/234/141 165/236/141
f 150/211/142 149/210/142 161/228/142
f 156/217/143 168/242/143 158/222/143
f 147/208/144 145/205/144 157/219/144
f 153/214/145 165/236/145 166/238/145
f 151/212/146 150/211/146 162/230/146
f 148/209/147 147/208/147 159/224/147
f 154/215/148 166/238/148 167/240/148
f 151/212/149 163/232/149 164/234/149
f 139/199/150 180/255/150 175/250/150
f 142/202/151 179/254/151 171/245/151
f 136/196/152 135/195/152 178/253/152
f 138/198/153 177/252/153 180/255/153
f 141/201/154 176/251/154 179/254/154
f 135/195/155 133/192/155 174/249/155
f 134/193/156 144/204/156 172/246/156
f 137/197/157 170/244/157 177/252/157
f 140/200/158 175/250/158 176/251/158
f 133/192/159 134/194/159 173/248/159
f 144/204/160 143/203/160 171/245/160
f 137/197/161 136/196/161 169/243/161
