# Blender v3.2.2 OBJ File: 'MODEL_Floor_afterUnwrapp.blend'
# www.blender.org
mtllib MESH_cornerLeft_placeholder.mtl
o Cube_Cube.010
v -0.750000 2.000000 1.000000
v -0.750000 0.000000 -1.000000
v -0.750000 2.000000 -1.000000
v 0.750000 0.000000 1.000000
v 0.750000 2.000000 1.000000
v 0.750000 0.000000 -1.000000
v 0.750000 2.000000 -1.000000
v -0.750000 0.666667 -1.000000
v 0.750000 0.666667 -1.000000
v 0.750000 0.666667 1.000000
v -0.714611 1.275811 -0.919109
v -0.701971 1.275811 -0.952814
v -0.750000 1.202214 -1.000000
v -0.714611 1.390855 -0.919109
v -0.750000 1.464453 -1.000000
v -0.701971 1.390855 -0.952814
v 0.701971 1.275811 -0.952814
v 0.714611 1.275811 -0.919109
v 0.750000 1.202214 -1.000000
v 0.701971 1.390855 -0.952814
v 0.750000 1.464453 -1.000000
v 0.714611 1.390855 -0.919109
v 0.714611 1.275811 0.919109
v 0.701971 1.275811 0.952814
v 0.750000 1.202214 1.000000
v 0.714611 1.390855 0.919109
v 0.750000 1.464453 1.000000
v 0.701971 1.390855 0.952814
vt 0.558057 0.250000
vt 0.625000 0.250000
vt 0.625000 0.500000
vt 0.558057 0.500000
vt 0.625000 0.750000
vt 0.558057 0.750000
vt 0.549213 0.252211
vt 0.549213 0.497789
vt 0.534120 0.497789
vt 0.534120 0.252211
vt 0.875000 0.500000
vt 0.875000 0.750000
vt 0.549213 0.504422
vt 0.549213 0.745578
vt 0.534120 0.745578
vt 0.534120 0.504422
vt 0.375000 0.500000
vt 0.458333 0.500000
vt 0.458333 0.750000
vt 0.375000 0.750000
vt 0.375000 0.250000
vt 0.458333 0.250000
vt 0.525277 0.500000
vt 0.525277 0.750000
vt 0.525277 0.250000
vt 0.534120 0.245578
vt 0.549213 0.245578
vt 0.534120 0.752211
vt 0.549213 0.752211
vn 0.0000 0.0000 -1.0000
vn 1.0000 0.0000 0.0000
vn 0.0000 1.0000 0.0000
vn -0.7183 0.6415 -0.2694
vn -0.7183 -0.6415 -0.2694
vn 0.7183 0.6415 -0.2694
vn 0.7183 -0.6415 -0.2694
vn 0.7183 0.6415 0.2694
vn 0.7183 -0.6415 0.2694
vn 0.9363 0.0000 0.3511
vn 0.9363 0.0000 -0.3511
vn 0.9012 -0.4334 0.0000
vn 0.9012 0.4334 0.0000
vn -0.9363 0.0000 -0.3511
vn 0.0000 -0.5397 -0.8418
vn 0.0000 0.5397 -0.8418
usemtl None
s off
f 15/1/1 3/2/1 7/3/1 21/4/1
f 21/4/2 7/3/2 5/5/2 27/6/2
f 16/7/1 20/8/1 17/9/1 12/10/1
f 7/3/3 3/11/3 1/12/3 5/5/3
f 22/13/2 26/14/2 23/15/2 18/16/2
f 6/17/2 9/18/2 10/19/2 4/20/2
f 2/21/1 8/22/1 9/18/1 6/17/1
f 9/18/2 19/23/2 25/24/2 10/19/2
f 8/22/1 13/25/1 19/23/1 9/18/1
f 11/26/4 12/10/4 13/25/4
f 14/27/5 15/1/5 16/7/5
f 17/9/6 18/16/6 19/23/6
f 20/8/7 21/4/7 22/13/7
f 23/15/8 24/28/8 25/24/8
f 26/14/9 27/6/9 28/29/9
f 23/15/10 26/14/10 28/29/10 24/28/10
f 17/9/11 20/8/11 22/13/11 18/16/11
f 21/4/12 27/6/12 26/14/12 22/13/12
f 25/24/13 19/23/13 18/16/13 23/15/13
f 11/26/14 14/27/14 16/7/14 12/10/14
f 15/1/15 21/4/15 20/8/15 16/7/15
f 19/23/16 13/25/16 12/10/16 17/9/16
