# Blender v3.2.2 OBJ File: ''
# www.blender.org
mtllib untitled.mtl
o Cube
v 1.000000 1.000000 -1.000000
v 1.000000 -1.000000 -1.000000
v 1.000000 1.000000 1.000000
v 1.000000 -1.000000 1.000000
v -1.000000 1.000000 -1.000000
v -1.000000 -1.000000 -1.000000
v -1.000000 1.000000 1.000000
v -1.000000 -1.000000 1.000000
v 3.000000 1.000000 -1.000000
v 3.000000 -1.000000 -1.000000
v 3.000000 1.000000 1.000000
v 3.000000 -1.000000 1.000000
v 1.000000 1.000000 -1.000000
v 1.000000 -1.000000 -1.000000
v 1.000000 1.000000 1.000000
v 1.000000 -1.000000 1.000000
v 5.000000 1.000000 -1.000000
v 5.000000 -1.000000 -1.000000
v 5.000000 1.000000 1.000000
v 5.000000 -1.000000 1.000000
v 3.000000 1.000000 -1.000000
v 3.000000 -1.000000 -1.000000
v 3.000000 1.000000 1.000000
v 3.000000 -1.000000 1.000000
v 7.000000 1.000000 -1.000000
v 7.000000 -1.000000 -1.000000
v 7.000000 1.000000 1.000000
v 7.000000 -1.000000 1.000000
v 5.000000 1.000000 -1.000000
v 5.000000 -1.000000 -1.000000
v 5.000000 1.000000 1.000000
v 5.000000 -1.000000 1.000000
vt 0.600000 0.000000
vt 0.800000 0.000000
vt 0.800000 0.200000
vt 0.600000 0.200000
vt 0.600000 0.400000
vt 0.600000 0.600000
vt 0.400000 0.600000
vt 0.400000 0.400000
vt 0.400000 0.000000
vt 0.400000 0.200000
vt 0.200000 0.200000
vt 0.200000 0.000000
vt 0.200000 0.200000
vt 0.400000 0.200000
vt 0.400000 0.400000
vt 0.200000 0.400000
vt 0.600000 0.000000
vt 0.600000 0.200000
vt 0.400000 0.200000
vt 0.400000 0.000000
vt 0.600000 0.200000
vt 0.600000 0.400000
vt 0.400000 0.400000
vt 0.800000 0.400000
vt 1.000000 0.400000
vt 1.000000 0.600000
vt 0.800000 0.600000
vt 0.200000 0.600000
vt 0.000000 0.600000
vt 0.000000 0.400000
vt 0.200000 0.400000
vt 0.000000 0.200000
vt 0.200000 0.200000
vt 0.800000 0.000000
vt 1.000000 0.000000
vt 1.000000 0.200000
vt 0.800000 0.200000
vt 0.400000 0.600000
vt 0.400000 0.800000
vt 0.200000 0.800000
vt 0.000000 0.000000
vt 0.200000 0.000000
vt 0.800000 0.600000
vt 1.000000 0.600000
vt 1.000000 0.800000
vt 0.800000 0.800000
vt 0.200000 0.600000
vt 0.200000 0.800000
vt 0.000000 0.800000
vt 0.000000 0.600000
vt 0.600000 0.600000
vt 0.600000 0.800000
vt 0.400000 0.800000
vt 0.400000 0.600000
vt 0.600000 0.600000
vt 0.800000 0.600000
vt 0.800000 0.800000
vt 0.600000 0.800000
vt 0.800000 0.200000
vt 0.800000 0.400000
vt 0.600000 0.400000
vt 0.600000 0.200000
vt 0.200000 0.800000
vt 0.200000 1.000000
vt 0.000000 1.000000
vt 0.000000 0.800000
vt 0.800000 0.200000
vt 1.000000 0.200000
vt 1.000000 0.400000
vt 0.800000 0.400000
vt 0.400000 0.800000
vt 0.400000 1.000000
vt 0.200000 1.000000
vt 0.200000 0.800000
vt 0.400000 0.400000
vt 0.400000 0.600000
vt 0.200000 0.600000
vt 0.200000 0.400000
vt 0.400000 0.800000
vt 0.600000 0.800000
vt 0.600000 1.000000
vt 0.400000 1.000000
vt 0.800000 0.400000
vt 0.800000 0.600000
vt 0.600000 0.600000
vt 0.600000 0.400000
vt 0.800000 0.800000
vt 0.800000 1.000000
vt 0.600000 1.000000
vn 0.0000 1.0000 0.0000
vn 0.0000 0.0000 1.0000
vn -1.0000 0.0000 0.0000
vn 0.0000 -1.0000 0.0000
vn 1.0000 0.0000 0.0000
vn 0.0000 0.0000 -1.0000
g Cube_Cube_Material
usemtl Material
s off
f 1/1/1 5/2/1 7/3/1 3/4/1
f 4/5/2 3/6/2 7/7/2 8/8/2
f 8/9/3 7/10/3 5/11/3 6/12/3
f 6/13/4 2/14/4 4/15/4 8/16/4
f 2/17/5 1/18/5 3/19/5 4/20/5
f 6/21/6 5/22/6 1/23/6 2/14/6
f 9/24/1 13/25/1 15/26/1 11/27/1
f 12/28/2 11/29/2 15/30/2 16/31/2
f 16/31/3 15/30/3 13/32/3 14/33/3
f 14/34/4 10/35/4 12/36/4 16/37/4
f 10/38/5 9/39/5 11/40/5 12/28/5
f 14/33/6 13/32/6 9/41/6 10/42/6
f 17/43/1 21/44/1 23/45/1 19/46/1
f 20/47/2 19/48/2 23/49/2 24/50/2
f 24/51/3 23/52/3 21/53/3 22/54/3
f 22/55/4 18/56/4 20/57/4 24/58/4
f 18/59/5 17/60/5 19/61/5 20/62/5
f 22/63/6 21/64/6 17/65/6 18/66/6
f 25/67/1 29/68/1 31/69/1 27/70/1
f 28/71/2 27/72/2 31/73/2 32/74/2
f 32/75/3 31/76/3 29/77/3 30/78/3
f 30/79/4 26/80/4 28/81/4 32/82/4
f 26/83/5 25/84/5 27/85/5 28/86/5
f 30/87/6 29/88/6 25/89/6 26/80/6
