# Blender v3.2.2 OBJ File: 'MODEL_Floor_afterUnwrapp.blend'
# www.blender.org
mtllib MESH_floorSingle_placeholder.mtl
o MESH_floorSingle_placeholder_Cube.008
v -1.500000 2.000000 1.000000
v -1.500000 0.000000 -1.000000
v -1.500000 2.000000 -1.000000
v 1.500000 2.000000 1.000000
v 1.500000 0.000000 -1.000000
v 1.500000 2.000000 -1.000000
v -1.500000 0.666667 -1.000000
v 1.500000 0.666667 -1.000000
v -1.429222 1.275811 -0.919109
v -1.403943 1.275811 -0.952814
v -1.500000 1.202214 -1.000000
v -1.429222 1.390855 -0.919109
v -1.500000 1.464453 -1.000000
v -1.403943 1.390855 -0.952814
v 1.403943 1.275811 -0.952814
v 1.429222 1.275811 -0.919109
v 1.500000 1.202214 -1.000000
v 1.403943 1.390855 -0.952814
v 1.500000 1.464453 -1.000000
v 1.429222 1.390855 -0.919109
vt 0.558057 0.250000
vt 0.625000 0.250000
vt 0.625000 0.500000
vt 0.558057 0.500000
vt 0.549213 0.252211
vt 0.549213 0.497789
vt 0.534120 0.497789
vt 0.534120 0.252211
vt 0.875000 0.500000
vt 0.875000 0.750000
vt 0.625000 0.750000
vt 0.375000 0.250000
vt 0.458333 0.250000
vt 0.458333 0.500000
vt 0.375000 0.500000
vt 0.525277 0.250000
vt 0.525277 0.500000
vt 0.534120 0.245578
vt 0.549213 0.245578
vt 0.534120 0.504422
vt 0.549213 0.504422
vn 0.0000 0.0000 -1.0000
vn 0.0000 1.0000 0.0000
vn -0.4587 0.8193 -0.3440
vn -0.4587 -0.8193 -0.3440
vn 0.4587 0.8193 -0.3440
vn 0.4587 -0.8193 -0.3440
vn 0.8000 0.0000 -0.6000
vn -0.8000 0.0000 -0.6000
vn 0.0000 -0.5397 -0.8418
vn 0.0000 0.5397 -0.8418
usemtl None
s off
f 13/1/1 3/2/1 6/3/1 19/4/1
f 14/5/1 18/6/1 15/7/1 10/8/1
f 6/3/2 3/9/2 1/10/2 4/11/2
f 2/12/1 7/13/1 8/14/1 5/15/1
f 7/13/1 11/16/1 17/17/1 8/14/1
f 9/18/3 10/8/3 11/16/3
f 12/19/4 13/1/4 14/5/4
f 15/7/5 16/20/5 17/17/5
f 18/6/6 19/4/6 20/21/6
f 15/7/7 18/6/7 20/21/7 16/20/7
f 9/18/8 12/19/8 14/5/8 10/8/8
f 13/1/9 19/4/9 18/6/9 14/5/9
f 17/17/10 11/16/10 10/8/10 15/7/10
