# Blender 3.3.0
# www.blender.org
mtllib MESH_FloorPanelSquare2_01.mtl
o Cube.065
v -9.094213 -0.019595 1.094431
v -9.094213 -0.019595 0.634269
v -8.156378 -0.019595 0.174106
v -8.625296 -0.019595 0.174106
v -8.625296 0.131224 1.094431
v -8.625296 0.131224 0.634269
v -8.156378 0.131224 1.094431
v -8.156378 0.131224 0.634269
v -7.687461 -0.019595 1.094431
v -7.687461 -0.019595 0.634269
v -8.156378 -0.019595 1.554594
v -8.625296 -0.019595 1.554594
v -9.094213 -0.019595 0.414164
v -8.680241 -0.019595 0.174106
v -9.048500 0.160952 1.508709
v -7.687461 0.054457 1.094431
v -7.792071 0.131224 1.094431
v -7.720919 0.118757 0.634269
v -7.687461 0.085190 0.634269
v -8.156378 0.131224 1.437355
v -8.156378 0.043612 1.554594
v -8.625296 0.085365 1.554594
v -8.625296 0.132829 1.459973
v -9.048508 0.155434 1.094431
v -9.074004 0.129900 1.094431
v -9.048529 0.131224 0.634269
v -9.094213 0.085507 0.634269
v -8.156378 0.085046 0.174106
v -8.156378 0.131224 0.323082
v -8.625296 0.084943 0.174106
v -8.625296 0.131224 0.323026
v -9.034751 0.131224 0.372507
v -9.094213 0.085575 0.401328
v -9.012695 0.098391 0.254209
v -8.689110 0.084807 0.174106
v -8.839104 0.131224 0.257486
v -7.693221 0.072637 1.273951
v -7.774673 0.131224 1.217171
v -7.902893 0.131224 1.480111
v -7.843085 0.082202 1.544735
v -7.733267 0.113468 0.415700
v -7.860609 0.105481 0.256213
v -7.883546 -0.019595 0.149457
v -7.823218 -0.019595 0.171553
v -7.698350 -0.019595 0.310991
v -7.676087 -0.019595 0.378061
v -7.687461 0.085166 0.454623
v -7.711510 0.085152 0.387613
v -7.879867 0.085097 0.199591
v -7.940015 0.085084 0.174106
v -7.687461 -0.019595 1.519259
v -7.722795 -0.019595 1.554594
v -9.094213 -0.019595 0.209246
v -9.059072 -0.019595 0.174106
v -9.059072 -0.019595 1.554594
v -9.094213 -0.019595 1.519454
v -9.092670 0.116680 1.519488
v -9.059072 0.115130 1.554594
v -9.073965 0.135427 1.534270
v -9.059072 0.030425 0.174106
v -9.094213 0.034587 0.209246
v -9.073100 0.044200 0.194852
v -7.728606 0.019524 1.549413
v -7.691386 0.008657 1.514604
vn 0.9983 0.0573 0.0106
vn 0.9996 0.0286 0.0053
vn 0.9996 0.0289 0.0054
vn -0.7085 0.7057 -0.0090
vn -0.7078 0.7060 -0.0229
vn -0.7078 0.7060 -0.0233
vn -0.0000 -0.0000 -1.0000
vn -0.9992 0.0396 0.0090
vn -0.9991 0.0408 0.0093
vn -1.0000 -0.0000 -0.0000
vn -0.9969 0.0759 -0.0207
vn -0.9970 0.0775 -0.0017
vn -0.9970 0.0775 -0.0013
vn 0.9997 0.0228 0.0133
vn 0.9997 0.0224 0.0130
vn 0.9987 0.0447 0.0261
vn -0.0251 0.0518 -0.9983
vn -0.0000 -0.0000 1.0000
vn 0.0449 0.9988 -0.0177
vn 0.0229 0.9997 -0.0094
vn 0.0071 1.0000 -0.0066
vn 0.0145 0.9998 -0.0134
vn 0.0043 1.0000 -0.0037
vn 0.0143 0.9998 -0.0102
vn 0.0056 0.0355 0.9994
vn 0.0057 0.0359 0.9993
vn 0.0078 1.0000 -0.0062
vn 0.0291 0.9994 -0.0208
vn 0.0612 0.9981 -0.0091
vn 0.0329 0.9994 -0.0059
vn 0.0008 1.0000 -0.0011
vn -0.0000 1.0000 -0.0000
vn 0.0223 0.9996 -0.0153
vn 0.6242 0.7811 0.0176
vn 0.6241 0.7808 -0.0298
vn 0.6242 0.7810 0.0184
vn -0.1723 0.9404 -0.2931
vn -0.6089 0.7765 -0.1622
vn -0.5713 0.7822 -0.2484
vn -0.6272 0.7704 -0.1144
vn 0.6009 0.7962 -0.0710
vn 0.6136 0.7896 -0.0027
vn 0.6133 0.7898 -0.0043
vn -0.0890 0.7820 0.6168
vn -0.0163 0.8161 0.5777
vn -0.0176 0.8156 0.5784
vn 0.0683 0.8341 0.5474
vn 0.0686 0.8340 0.5475
vn 0.0860 0.8251 0.5584
vn -0.6832 0.7297 -0.0277
vn -0.6824 0.7304 -0.0274
vn 0.0057 0.9575 -0.2885
vn 0.0383 0.9494 -0.3117
vn 0.0345 0.9500 -0.3102
vn 0.0053 0.9573 -0.2891
vn 0.0374 0.9200 -0.3901
vn -0.0714 0.8306 -0.5522
vn 0.4609 0.8585 0.2247
vn -0.1205 0.7764 -0.6186
vn 0.0112 0.0709 0.9974
vn 0.0418 0.9987 -0.0286
vn 0.0116 0.9598 -0.2805
vn 0.6078 0.5791 -0.5433
vn 0.4803 0.7664 -0.4265
vn 0.5555 0.6679 -0.4953
vn -0.0501 0.1035 -0.9934
vn 0.8170 0.5008 -0.2858
vn 0.8277 0.4810 -0.2891
vn 0.6464 0.7269 -0.2321
vn 0.1619 0.9097 -0.3825
vn 0.8923 0.3299 -0.3082
vn 0.3371 0.3970 -0.8537
vn 0.6439 0.5028 -0.5767
vn -0.7149 0.0553 0.6971
vn -0.7149 0.0514 0.6973
vn -0.7087 0.1665 0.6856
vn -0.6998 0.0823 -0.7096
vn -0.6985 0.0929 -0.7095
vn -0.6327 0.3756 -0.6772
vn 0.6963 0.2012 0.6890
vn -0.7147 0.0040 0.6994
vn -0.7071 -0.0000 -0.7071
vt 0.520370 0.626229
vt 0.565778 0.623465
vt 0.619743 0.518357
vt 0.619743 0.564886
vt 0.518011 0.565889
vt 0.563561 0.565049
vt 0.517289 0.518813
vt 0.563213 0.518659
vt 0.517213 0.461559
vt 0.563095 0.460733
vt 0.460960 0.519319
vt 0.460109 0.566742
vt 0.587434 0.622198
vt 0.619616 0.570393
vt 0.478369 0.609494
vt 0.517230 0.468971
vt 0.517158 0.482096
vt 0.563135 0.475766
vt 0.563147 0.471097
vt 0.482377 0.519046
vt 0.467372 0.519263
vt 0.470671 0.567023
vt 0.481308 0.566884
vt 0.519199 0.607805
vt 0.519398 0.611358
vt 0.564798 0.606705
vt 0.565164 0.613103
vt 0.609365 0.518410
vt 0.593967 0.518519
vt 0.609378 0.564664
vt 0.594084 0.564628
vt 0.590487 0.604407
vt 0.587913 0.611814
vt 0.602834 0.604659
vt 0.602463 0.601574
vt 0.609263 0.570880
vt 0.600202 0.585102
vt 0.499197 0.470615
vt 0.498519 0.470925
vt 0.504848 0.480559
vt 0.478483 0.493223
vt 0.471471 0.485987
vt 0.470287 0.487311
vt 0.584771 0.476598
vt 0.600685 0.489172
vt 0.619743 0.491160
vt 0.617291 0.485764
vt 0.613645 0.480528
vt 0.599884 0.468035
vt 0.588577 0.460785
vt 0.593949 0.464290
vt 0.580905 0.471209
vt 0.581863 0.470676
vt 0.582295 0.469900
vt 0.588244 0.473720
vt 0.606804 0.490562
vt 0.609173 0.496963
vt 0.609675 0.496378
vt 0.610616 0.495810
vt 0.474789 0.461150
vt 0.471896 0.466747
vt 0.459556 0.475480
vt 0.467931 0.469788
vt 0.607637 0.620390
vt 0.615591 0.610592
vt 0.616724 0.605837
vt 0.458605 0.610407
vt 0.478545 0.629108
vt 0.458963 0.615705
vt 0.477619 0.615697
vt 0.472839 0.614438
vt 0.471881 0.609770
vt 0.476034 0.613166
vt 0.474348 0.611659
vt 0.612208 0.605033
vt 0.607159 0.615048
vt 0.610450 0.609207
vt 0.608689 0.612797
vt 0.610247 0.606596
vt 0.463565 0.475937
vt 0.470322 0.472979
vt 0.475223 0.464003
vt 0.473695 0.469008
s 1
usemtl Floor_Panels
f 64/82/1 51/60/1 9/9/2 16/16/3 37/38/1
f 15/15/4 24/24/5 25/25/6 57/70/4 59/73/4
f 35/36/7 14/14/7 54/66/7 60/75/7
f 2/2/8 27/27/9 33/33/10 13/13/10
f 57/70/11 25/25/12 1/1/13 56/68/11
f 30/30/7 4/4/7 14/14/7 35/36/7
f 19/19/14 10/10/15 46/50/16 47/52/16
f 28/28/17 3/3/17 4/4/7 30/30/7
f 12/12/18 22/22/18 58/72/18 55/67/18
f 1/1/13 25/25/12 27/27/9 2/2/8
f 24/24/19 5/5/20 6/6/21 26/26/22
f 5/5/20 7/7/23 8/8/24 6/6/21
f 13/13/10 33/33/10 61/76/10 53/64/10
f 11/11/25 21/21/26 22/22/18 12/12/18
f 7/7/23 17/17/27 18/18/28 8/8/24
f 15/15/29 23/23/30 5/5/20 24/24/19
f 23/23/30 20/20/31 7/7/23 5/5/20
f 26/26/22 6/6/21 31/31/32 36/37/32 32/32/32
f 6/6/21 8/8/24 29/29/33 31/31/32
f 16/16/3 9/9/2 10/10/15 19/19/14
f 19/19/34 47/52/35 41/44/35 18/18/36
f 36/37/37 34/35/37 32/32/37
f 32/32/38 34/34/39 62/78/39 61/76/39 33/33/40
f 37/38/41 16/16/42 17/17/43 38/40/41
f 16/16/42 19/19/34 18/18/36 17/17/43
f 39/41/44 20/20/45 21/21/46 40/43/44
f 20/20/45 23/23/47 22/22/48 21/21/46
f 23/23/47 15/15/49 59/74/49 58/72/49 22/22/48
f 24/24/5 26/26/50 27/27/51 25/25/6
f 28/28/52 30/30/53 31/31/54 29/29/55
f 26/26/50 32/32/38 33/33/40 27/27/51
f 30/30/53 35/36/56 36/37/57 31/31/54
f 39/41/58 40/42/58 63/81/58 64/83/58 37/39/58 38/40/58
f 34/35/59 36/37/57 35/36/56 60/75/59 62/79/59
f 40/43/60 21/21/26 11/11/25 52/62/60 63/80/60
f 20/20/31 39/41/32 38/40/32 17/17/27 7/7/23
f 8/8/24 18/18/28 41/44/61 42/45/61 29/29/33
f 42/45/62 50/57/62 28/28/52 29/29/55
f 49/56/63 42/45/64 41/44/64 48/55/65
f 50/57/66 43/46/66 3/3/17 28/28/17
f 47/53/67 48/55/68 41/44/69
f 49/56/70 50/58/70 42/45/70
f 45/49/71 48/55/68 47/54/67 46/51/71
f 43/47/72 50/59/72 49/56/72 44/48/72
f 44/48/73 49/56/63 48/55/65 45/49/73
f 57/71/74 58/72/75 59/74/76
f 60/75/77 61/77/78 62/79/79
f 63/81/80 52/63/80 51/61/80 64/83/80
f 57/71/74 56/69/81 55/67/81 58/72/75
f 60/75/77 54/66/82 53/65/82 61/77/78
