# Blender 3.3.0
# www.blender.org
mtllib MESH_FloorPanelSquareSmall1_01.mtl
o Cube.071
v -4.767780 0.100111 -1.086062
v -5.241317 -0.019595 -1.086062
v -5.241317 -0.019595 -1.293031
v -5.021294 -0.019595 -0.879094
v -4.801270 -0.019595 -0.879094
v -4.801270 0.101090 -1.086062
v -5.021294 0.128530 -1.086062
v -4.801270 0.085605 -1.293031
v -5.021294 0.110141 -1.293031
v -4.581248 -0.019595 -1.293031
v -4.581248 -0.019595 -1.086062
v -4.801270 -0.019595 -1.500000
v -5.021294 -0.019595 -1.500000
v -4.755075 0.079658 -1.293031
v -4.783954 -0.019595 -0.879094
v -5.021294 0.110141 -1.332803
v -4.801270 0.079658 -1.325845
v -4.757067 0.072613 -1.324447
v -5.241317 -0.019595 -1.332995
v -5.021294 0.132700 -1.056050
v -4.767306 0.108031 -1.053694
v -4.801270 0.108031 -1.054009
v -4.581248 -0.019595 -1.059801
v -5.159728 0.147071 -1.337181
v -5.171186 0.147071 -1.463289
v -5.136910 0.147071 -1.086062
v -5.155716 0.147071 -1.293031
v -5.134279 0.147071 -1.057098
v -5.177594 -0.019595 -1.500000
v -4.617548 0.091250 -0.911898
v -4.590387 0.081742 -0.879094
v -4.581248 0.079978 -0.888233
v -4.769057 0.097440 -0.879094
v -4.765357 0.125755 -0.920572
v -5.241317 -0.019595 -1.490861
v -5.232177 -0.019595 -1.500000
v -4.590653 0.043541 -1.293031
v -4.581248 0.014706 -1.293031
v -4.629519 0.093282 -1.086062
v -4.581248 0.081739 -1.086062
v -4.801270 0.039338 -1.500000
v -4.801270 0.049188 -1.490517
v -5.241317 0.124180 -1.293031
v -5.213801 0.147071 -1.293031
v -5.241317 0.137932 -1.086062
v -5.233575 0.147071 -1.086062
v -4.581248 -0.019595 -0.888233
v -4.590387 -0.019595 -0.879094
v -4.801270 0.125744 -0.920734
v -4.801270 0.097439 -0.879094
v -5.021294 0.146217 -0.889611
v -5.021294 0.137932 -0.879094
v -4.581248 0.014707 -1.315072
v -4.590170 0.023928 -1.338524
v -4.590754 0.043160 -1.319188
v -4.763337 0.050104 -1.455612
v -4.745355 0.024345 -1.480134
v -4.776027 0.029885 -1.501132
v -4.588766 -0.019595 -1.407732
v -4.581248 -0.019595 -1.387637
v -4.697024 -0.019595 -1.500000
v -4.676371 -0.019595 -1.492600
v -5.241317 0.137932 -1.063294
v -5.235605 0.138410 -1.044652
v -5.233951 0.147071 -1.058023
v -5.121754 0.147071 -0.919258
v -5.143864 0.097018 -0.886801
v -5.128829 0.096666 -0.879094
v -5.235605 -0.019595 -0.950853
v -5.241317 -0.019595 -0.969778
v -5.176337 -0.019595 -0.879094
v -5.191516 -0.019595 -0.886801
v -5.232177 0.101924 -1.500000
v -5.241317 0.104816 -1.490861
v -5.233010 0.116234 -1.492480
v -5.019009 0.095011 -1.499467
v -5.013266 0.104404 -1.491163
v -5.241317 0.137932 -1.444017
v -5.233040 0.147071 -1.448853
v -5.221749 0.147071 -1.339142
v -5.241317 0.125961 -1.338904
v -4.581248 0.081742 -1.052617
v -4.629373 0.095329 -1.052414
v -5.169069 0.126785 -1.492479
v -5.169116 0.112334 -1.500000
v -4.590387 0.031073 -0.879094
v -4.581248 0.030264 -0.902005
v -4.734811 -0.003102 -1.500000
v -4.714680 -0.002587 -1.492600
v -4.581248 -0.003432 -1.351355
v -4.588766 0.000830 -1.370619
v -5.144152 0.059168 -0.879094
v -5.159233 0.059407 -0.886801
v -5.235605 0.059407 -0.997752
v -5.241317 0.059168 -1.016536
v -5.241317 0.042610 -1.490861
v -5.232177 0.041164 -1.500000
v -4.581248 0.031073 -1.056209
v -4.774933 0.051273 -0.879094
v -4.801270 0.051272 -0.879094
v -5.173355 0.046369 -1.500000
v -5.241317 0.059168 -1.336193
v -4.581248 -0.003432 -1.293031
v -4.581248 0.031072 -1.086062
v -4.801270 -0.000516 -1.500000
v -5.020151 0.037708 -1.499733
v -5.241317 0.059168 -1.293031
v -5.241317 0.059168 -1.086062
v -5.021294 0.059168 -0.879094
vn 0.1067 0.9830 -0.1492
vn 0.1691 0.9756 -0.1400
vn 0.1415 0.9797 -0.1420
vn 0.0773 0.9854 -0.1514
vn 0.1647 0.9847 -0.0574
vn 0.1193 0.9876 -0.1022
vn 0.0628 0.9880 -0.1413
vn 0.0846 0.9919 -0.0943
vn -1.0000 -0.0000 -0.0000
vn -0.9746 0.1143 0.1926
vn -0.9858 0.0857 0.1444
vn 0.1897 0.9711 -0.1447
vn 0.1661 0.9710 -0.1719
vn 0.0868 0.9933 -0.0768
vn 0.1081 0.9890 -0.1005
vn 0.0562 0.9979 -0.0314
vn 0.0598 0.9975 -0.0365
vn -0.2298 0.0939 0.9687
vn -0.0000 -0.0000 1.0000
vn -0.1600 0.0654 0.9849
vn 0.0571 0.9856 -0.1593
vn 0.0499 0.9919 -0.1170
vn 0.1485 0.9842 -0.0967
vn 0.1801 0.9820 -0.0571
vn 0.1210 0.9925 -0.0160
vn 0.0912 0.9953 -0.0322
vn 0.0838 0.9864 -0.1414
vn 0.1177 0.9868 -0.1113
vn 0.0009 0.0010 -1.0000
vn 0.0004 0.0010 -1.0000
vn -0.0000 -0.0000 -1.0000
vn 0.1536 0.9780 -0.1410
vn 0.1580 0.9715 -0.1766
vn 0.1797 0.9750 -0.1304
vn 1.0000 -0.0000 -0.0000
vn -0.0008 0.6887 -0.7250
vn -0.0308 0.8197 -0.5719
vn 0.1292 0.6182 -0.7754
vn -0.0043 -0.0046 -1.0000
vn -0.0002 0.0017 -1.0000
vn 0.0003 0.0028 -1.0000
vn 0.0005 0.0026 -1.0000
vn 0.3709 0.6876 -0.6242
vn 0.4499 0.7033 -0.5505
vn 0.4632 0.7182 -0.5192
vn 0.4399 0.7622 -0.4750
vn -0.0000 1.0000 -0.0000
vn 0.2113 0.9759 -0.0546
vn 0.1308 0.9914 -0.0090
vn 0.2238 0.9723 -0.0675
vn -0.0029 -0.0045 -1.0000
vn -0.1335 0.8092 -0.5721
vn -0.1060 0.6425 -0.7589
vn 0.1392 0.9902 -0.0122
vn -0.6328 0.2586 0.7299
vn -0.8746 0.2475 0.4170
vn -0.8479 0.2706 0.4558
vn -0.6642 0.2714 0.6966
vn 0.2548 0.9646 0.0686
vn 0.9373 0.3252 -0.1252
vn 0.9077 0.3515 -0.2292
vn 0.9485 0.3001 -0.1014
vn 0.4442 0.7374 -0.5089
vn 0.4109 0.7409 -0.5312
vn -0.7923 0.6057 0.0737
vn -0.6539 0.6126 0.4440
vn -0.7626 0.6033 0.2334
vn -0.4311 0.6525 0.6233
vn -0.4603 0.6287 0.6269
vn -0.2942 0.6325 0.7165
vn -0.6085 0.3411 -0.7165
vn -0.7071 0.4349 -0.5576
vn -0.7393 0.4685 -0.4837
vn 0.2661 0.9639 -0.0117
vn 0.2805 0.9598 0.0075
vn 0.2664 0.9638 -0.0113
vn 0.9497 0.3132 -0.0045
vn 0.5647 0.8066 -0.1745
vn 0.4028 0.9100 -0.0982
vn 0.4195 0.9016 -0.1059
vn 0.2909 0.7278 -0.6210
vn 0.2846 0.7240 -0.6283
vn -0.7034 0.7069 0.0746
vn -0.6775 0.7354 0.0085
vn -0.6774 0.7356 0.0069
vn -0.7032 0.7071 0.0745
vn -0.7219 0.6913 -0.0317
vn -0.7216 0.6916 -0.0318
vn 0.8678 -0.0018 0.4969
vn 0.8674 0.0675 0.4930
vn 0.8679 0.0013 0.4968
vn 0.0625 0.8673 0.4939
vn 0.0741 0.8204 0.5669
vn 0.0730 0.8205 0.5669
vn 0.0612 0.8666 0.4953
vn -0.0498 0.7447 0.6655
vn -0.0460 0.7463 0.6640
vn 0.3958 0.6285 -0.6696
vn 0.8770 0.4228 -0.2284
vn 0.8179 0.5150 -0.2567
vn 0.8407 0.4821 -0.2467
vn 0.4655 0.7088 -0.5300
vn -0.6175 0.2523 0.7450
vn -0.9048 0.2174 0.3661
vn -0.9935 0.0582 0.0981
vn -0.7071 -0.0000 -0.7071
vn 0.1127 0.5832 -0.8045
vn 0.1272 0.8996 0.4179
vn -0.7776 0.5133 -0.3631
vn -0.0016 0.5010 -0.8655
vn -0.0760 0.4605 -0.8844
vn -0.7272 0.6822 0.0762
vn -0.2836 0.1159 0.9519
vn 0.2654 0.6029 -0.7524
vn 0.3740 0.7880 -0.4891
vn 0.8643 -0.0684 0.4984
vn -0.0155 -0.0243 -0.9996
vn -0.0070 -0.0081 -0.9999
vn 0.3932 0.8182 -0.4194
vn 0.0010 0.0024 -1.0000
vn 0.0015 0.0011 -1.0000
vt 0.649833 0.613398
vt 0.713179 0.615620
vt 0.713079 0.594777
vt 0.672469 0.649802
vt 0.650405 0.646828
vt 0.653131 0.613496
vt 0.674958 0.614478
vt 0.653673 0.592891
vt 0.675580 0.594141
vt 0.625052 0.590561
vt 0.621460 0.611515
vt 0.653531 0.565476
vt 0.675285 0.562330
vt 0.649001 0.592680
vt 0.648673 0.646585
vt 0.675779 0.590250
vt 0.653789 0.589557
vt 0.649266 0.589408
vt 0.713057 0.590787
vt 0.674858 0.617460
vt 0.649723 0.616666
vt 0.653053 0.616728
vt 0.621137 0.614234
vt 0.689718 0.590425
vt 0.690690 0.578701
vt 0.686543 0.615142
vt 0.689261 0.594716
vt 0.686127 0.618011
vt 0.691014 0.561103
vt 0.633909 0.630329
vt 0.630379 0.632822
vt 0.630869 0.633524
vt 0.629910 0.631668
vt 0.648829 0.634750
vt 0.649002 0.629791
vt 0.712839 0.575154
vt 0.697983 0.561050
vt 0.696657 0.561049
vt 0.631647 0.591588
vt 0.628514 0.591116
vt 0.636291 0.612991
vt 0.631495 0.612756
vt 0.654437 0.571288
vt 0.654559 0.572635
vt 0.698701 0.594820
vt 0.695094 0.594784
vt 0.697374 0.615606
vt 0.696180 0.615584
vt 0.619957 0.631985
vt 0.629318 0.643643
vt 0.619983 0.633361
vt 0.652553 0.630053
vt 0.652035 0.635133
vt 0.673878 0.633200
vt 0.673761 0.634469
vt 0.628847 0.588896
vt 0.631357 0.586131
vt 0.630335 0.586627
vt 0.631917 0.588890
vt 0.650504 0.575834
vt 0.648342 0.572418
vt 0.648097 0.571661
vt 0.648172 0.572446
vt 0.651784 0.570780
vt 0.627137 0.578968
vt 0.630568 0.577721
vt 0.626545 0.581062
vt 0.642950 0.566991
vt 0.640814 0.567547
vt 0.640128 0.569532
vt 0.697335 0.617895
vt 0.697233 0.619855
vt 0.696477 0.619994
vt 0.696239 0.618585
vt 0.696134 0.618401
vt 0.683961 0.631865
vt 0.687988 0.636743
vt 0.684159 0.638619
vt 0.686666 0.637783
vt 0.704163 0.637146
vt 0.713127 0.629320
vt 0.713179 0.627330
vt 0.697624 0.644151
vt 0.688328 0.650781
vt 0.698927 0.643027
vt 0.696359 0.573140
vt 0.697576 0.573612
vt 0.697947 0.574339
vt 0.700531 0.575342
vt 0.696582 0.574721
vt 0.676298 0.573554
vt 0.675834 0.574797
vt 0.697334 0.580026
vt 0.696095 0.579813
vt 0.695805 0.590203
vt 0.698592 0.590212
vt 0.631254 0.615971
vt 0.636151 0.616295
vt 0.690453 0.575517
vt 0.690420 0.574015
vt 0.625376 0.633260
vt 0.630091 0.638584
vt 0.625187 0.630649
vt 0.647011 0.568137
vt 0.644866 0.568714
vt 0.644408 0.570160
vt 0.627597 0.584959
vt 0.628541 0.583029
vt 0.630799 0.582086
vt 0.690138 0.639906
vt 0.685533 0.642521
vt 0.691439 0.638782
vt 0.705176 0.624593
vt 0.700422 0.628609
vt 0.705253 0.622618
vt 0.697972 0.567436
vt 0.706679 0.575240
vt 0.696652 0.567249
vt 0.626269 0.615151
vt 0.648778 0.639393
vt 0.651396 0.639751
vt 0.690759 0.567705
vt 0.705208 0.590509
vt 0.626682 0.590826
vt 0.626594 0.612156
vt 0.653809 0.567367
vt 0.675791 0.568017
vt 0.705214 0.594813
vt 0.705260 0.615633
vt 0.673175 0.641907
s 1
usemtl Floor_Panels
f 39/41/1 37/39/2 14/14/3 1/1/4
f 30/30/5 83/98/6 21/21/7 34/35/8
f 108/129/9 2/2/9 70/82/10 95/115/11
f 37/39/2 55/59/12 18/18/13 14/14/3
f 51/54/14 20/20/15 28/28/16 66/76/17
f 92/111/18 109/130/19 52/55/19 68/78/20
f 34/35/8 21/21/7 22/22/21 49/52/22
f 7/7/23 9/9/24 27/27/25 26/26/26
f 100/121/19 99/120/19 33/34/19 50/53/19
f 109/130/19 100/121/19 50/53/19 52/55/19
f 21/21/7 83/98/6 39/41/1 1/1/4
f 6/6/27 8/8/28 9/9/24 7/7/23
f 101/122/29 29/29/30 36/38/31 97/118/31
f 17/17/32 18/18/13 56/60/33 42/44/34
f 90/107/35 103/124/35 10/10/35 60/67/35
f 84/99/36 25/25/37 77/92/38
f 105/126/39 12/12/40 13/13/41 106/127/42
f 106/127/42 13/13/41 29/29/30 101/122/29
f 103/124/35 38/40/35 40/42/35 104/125/35
f 89/106/43 57/63/44 54/57/45 91/109/46
f 65/75/47 28/28/16 26/26/26 46/48/47
f 9/9/24 16/16/48 24/24/49 27/27/25
f 8/8/28 17/17/32 16/16/48 9/9/24
f 16/16/48 17/17/32 42/44/34 77/92/50
f 18/18/13 55/59/12 56/60/33
f 14/14/3 18/18/13 17/17/32 8/8/28
f 1/1/4 14/14/3 8/8/28 6/6/27
f 66/76/17 28/28/16 65/75/47
f 88/104/51 61/68/31 12/12/40 105/126/39
f 27/27/25 24/24/49 80/95/47 44/46/47
f 26/26/26 27/27/25 44/46/47 46/48/47
f 79/94/52 25/25/37 84/99/36 75/90/53
f 104/125/35 40/42/35 82/97/35 98/119/35
f 22/22/21 21/21/7 1/1/4 6/6/27
f 20/20/15 22/22/21 6/6/27 7/7/23
f 49/52/22 22/22/21 20/20/15 51/54/14
f 99/120/19 15/15/19 48/50/19 86/102/19
f 26/26/26 28/28/16 20/20/15 7/7/23
f 25/25/54 24/24/49 16/16/48 77/92/50
f 80/95/47 24/24/49 25/25/54 79/94/47
f 102/123/9 19/19/9 3/3/9 107/128/9
f 93/112/55 94/114/56 69/80/57 72/85/58
f 107/128/9 3/3/9 2/2/9 108/129/9
f 96/117/9 35/36/9 19/19/9 102/123/9
f 30/30/59 31/31/59 32/33/59
f 53/56/60 54/58/61 55/59/62
f 56/60/63 57/61/44 58/64/64
f 63/71/65 64/72/66 65/74/67
f 66/76/68 67/77/69 68/79/70
f 73/86/71 74/87/72 75/90/73
f 83/98/74 30/30/75 32/33/75 82/97/76
f 55/59/62 37/39/77 38/40/77 53/56/60
f 37/39/78 39/41/79 40/42/80 38/40/78
f 58/64/64 41/43/81 42/44/82 56/60/63
f 81/96/83 43/45/84 44/46/85 80/95/86
f 43/45/84 45/47/87 46/48/88 44/46/85
f 86/101/89 48/51/90 47/49/90 87/103/91
f 34/35/92 49/52/93 50/53/94 33/34/95
f 49/52/93 51/54/96 52/55/97 50/53/94
f 88/104/98 58/64/64 57/62/44 89/105/43
f 90/107/99 60/67/100 59/65/100 91/108/101
f 54/57/45 57/63/44 56/60/63 55/59/102
f 45/47/87 63/71/65 65/75/67 46/48/88
f 51/54/96 66/76/68 68/78/70 52/55/97
f 92/110/18 68/79/20 67/77/103 93/112/55
f 64/73/66 67/77/69 66/76/68 65/75/67
f 94/113/56 64/72/104 63/71/105 95/115/11
f 96/116/106 74/87/106 73/86/106 97/118/106
f 41/43/81 76/91/107 77/92/38 42/44/82
f 30/30/108 34/35/92 33/34/95 31/32/108
f 74/88/72 78/93/109 79/94/109 75/90/73
f 85/100/110 73/86/111 75/90/53 84/99/36
f 78/93/112 81/96/83 80/95/86 79/94/112
f 39/41/79 83/98/74 82/97/76 40/42/80
f 76/91/107 85/100/110 84/99/36 77/92/38
f 98/119/35 82/97/35 32/33/35 87/103/35
f 23/23/35 98/119/35 87/103/35 47/49/35
f 35/37/106 96/116/106 97/118/106 36/38/106
f 69/81/57 94/113/56 95/115/11 70/82/10
f 71/83/113 92/110/18 93/112/55 72/85/58
f 53/56/60 90/107/99 91/108/101 54/58/61
f 61/68/114 88/104/98 89/105/43 62/69/115
f 31/31/116 86/101/89 87/103/91 32/33/116
f 74/89/9 96/117/9 102/123/9 81/96/9 78/93/9
f 43/45/9 107/128/9 108/129/9 45/47/9
f 67/77/103 64/73/104 94/114/56 93/112/55
f 81/96/9 102/123/9 107/128/9 43/45/9
f 33/34/19 99/120/19 86/102/19 31/32/19
f 11/11/35 104/125/35 98/119/35 23/23/35
f 58/64/117 88/104/51 105/126/39 41/43/118
f 62/70/115 89/106/43 91/109/46 59/66/119
f 10/10/35 103/124/35 104/125/35 11/11/35
f 76/91/120 106/127/42 101/122/29 85/100/121
f 41/43/118 105/126/39 106/127/42 76/91/120
f 53/56/35 38/40/35 103/124/35 90/107/35
f 85/100/121 101/122/29 97/118/31 73/86/31
f 4/4/19 5/5/19 100/121/19 109/130/19
f 5/5/19 15/15/19 99/120/19 100/121/19
f 71/84/113 4/4/19 109/130/19 92/111/18
f 45/47/9 108/129/9 95/115/11 63/71/105
