# Blender 3.3.0
# www.blender.org
mtllib MESH_FloorPanelSquare1_01.mtl
o Cube.068
v -7.121085 -0.019595 0.093248
v -6.660923 -0.019595 0.093248
v -6.200760 -0.019595 1.031083
v -6.200760 -0.019595 0.562166
v -7.121085 0.147071 0.562166
v -6.660923 0.147071 0.562166
v -7.121085 0.147071 1.031083
v -6.660923 0.147071 1.031083
v -7.121085 -0.019595 1.500000
v -6.660923 -0.019595 1.500000
v -7.581248 -0.019595 1.031083
v -7.581248 -0.019595 0.562166
v -6.245739 0.099609 0.180736
v -6.272738 0.101016 0.136323
v -6.440818 -0.019595 0.093248
v -6.200760 -0.019595 0.507221
v -7.535363 0.175066 1.454115
v -6.332122 0.152974 1.370237
v -7.535363 0.147071 0.138961
v -7.121085 0.098299 1.500000
v -7.121085 0.175066 1.395390
v -6.660923 0.159445 1.378097
v -6.660923 0.129033 1.500000
v -7.407083 0.147071 1.031083
v -7.581248 0.059460 1.031083
v -7.581248 0.101212 0.562166
v -7.430321 0.131071 0.562166
v -7.121085 0.147071 0.138954
v -7.121085 0.121537 0.113457
v -6.660923 0.147071 0.138932
v -6.660923 0.101354 0.093248
v -6.200760 0.100894 1.031083
v -6.389285 0.147071 1.031083
v -6.200760 0.100790 0.562166
v -6.245932 0.147071 0.562166
v -6.397869 0.147071 0.124513
v -6.427982 0.101423 0.093248
v -6.200760 0.100654 0.498351
v -6.245800 0.147071 0.413573
v -7.545913 -0.019595 1.500000
v -7.581248 -0.019595 1.464665
v -6.235900 -0.019595 0.093248
v -6.200760 -0.019595 0.128389
v -6.200760 -0.019595 1.464860
v -6.235900 -0.019595 1.500000
v -7.581248 -0.019595 0.128389
v -7.546107 -0.019595 0.093248
v -7.568038 0.139156 1.450826
v -7.531998 0.139912 1.486815
v -7.546660 0.163755 1.465413
v -6.235900 0.128974 1.500000
v -6.200760 0.128963 1.464860
v -6.220835 0.149410 1.479653
v -7.546141 0.102800 0.094790
v -7.581248 0.101250 0.128389
v -7.560924 0.121547 0.113495
v -6.200760 0.025118 0.128389
v -6.235900 0.030853 0.093248
vn 0.0201 0.0822 -0.9964
vn -0.0001 0.0796 -0.9968
vn -0.5041 0.8455 -0.1761
vn -0.4211 0.9047 -0.0652
vn -0.4241 0.9030 -0.0691
vn 1.0000 -0.0000 -0.0000
vn -0.0101 0.0385 -0.9992
vn -0.0102 0.0390 -0.9992
vn -0.0000 -0.0000 -1.0000
vn -0.0000 -0.0000 1.0000
vn -1.0000 -0.0000 -0.0000
vn -0.0111 0.9999 0.0108
vn -0.0122 0.9999 0.0013
vn -0.0000 1.0000 -0.0000
vn -0.0043 0.9993 -0.0363
vn 0.0066 0.9998 -0.0210
vn -0.9996 0.0280 0.0051
vn -0.9996 0.0288 0.0053
vn -0.0157 0.9988 -0.0461
vn -0.0060 0.9974 -0.0719
vn 0.0043 0.9979 -0.0647
vn 0.0132 0.9990 -0.0424
vn -0.0221 0.9995 0.0216
vn -0.0243 0.9997 0.0043
vn 0.6304 0.6432 -0.4346
vn 0.8114 0.5728 -0.1168
vn 0.7933 0.6019 -0.0916
vn 0.7425 0.6693 -0.0287
vn 0.0050 0.9999 -0.0133
vn -0.0068 0.0243 0.9997
vn -0.0067 0.0241 0.9997
vn 0.0104 0.9996 -0.0275
vn 0.3548 0.9161 -0.1867
vn 0.1175 0.9903 0.0741
vn 0.2406 0.9677 -0.0748
vn 0.3056 0.9521 -0.0091
vn 0.3022 0.9532 -0.0126
vn 0.1216 0.9902 0.0694
vn 0.1340 0.5834 -0.8010
vn 0.2271 0.5354 -0.8135
vn 0.0779 0.6090 -0.7893
vn -0.0090 0.9450 0.3271
vn -0.0111 0.9751 0.2215
vn -0.0090 0.9457 0.3250
vn 0.0330 0.8464 0.5315
vn 0.0320 0.8481 0.5289
vn 0.0735 0.7732 0.6299
vn -0.3518 0.9349 0.0463
vn -0.3530 0.9344 0.0475
vn -0.3664 0.9285 0.0609
vn -0.0000 0.7066 -0.7076
vn -0.0110 0.6785 -0.7346
vn -0.0114 0.6775 -0.7354
vn -0.0000 0.7064 -0.7078
vn 0.5546 0.8316 0.0287
vn 0.5434 0.8389 0.0304
vn -0.9984 0.0561 0.0102
vn -0.7005 0.1437 0.6990
vn -0.7005 0.1443 0.6989
vn -0.6952 0.1938 0.6922
vn 0.7060 0.0552 0.7060
vn 0.7060 0.0556 0.7060
vn 0.6956 0.1797 0.6956
vn -0.6971 0.0555 -0.7148
vn -0.6973 0.0517 -0.7149
vn -0.6856 0.1665 -0.7087
vn -0.7024 0.1194 0.7017
vn 0.7071 -0.0000 0.7071
vn -0.6994 0.0044 -0.7147
vn 0.7071 -0.0000 -0.7071
vn -0.0134 0.0481 0.9988
vt 0.458391 0.569905
vt 0.458391 0.519362
vt 0.346179 0.461000
vt 0.397939 0.460733
vt 0.396032 0.568552
vt 0.395690 0.522166
vt 0.348708 0.568852
vt 0.348390 0.522070
vt 0.285917 0.571025
vt 0.283914 0.520182
vt 0.347195 0.627041
vt 0.398431 0.627984
vt 0.431878 0.481978
vt 0.435687 0.484305
vt 0.454980 0.494682
vt 0.404045 0.461356
vt 0.312416 0.602798
vt 0.316419 0.491510
vt 0.432993 0.604274
vt 0.298268 0.569397
vt 0.311131 0.568330
vt 0.313048 0.522258
vt 0.300236 0.521522
vt 0.349015 0.598502
vt 0.347934 0.618609
vt 0.397470 0.615592
vt 0.396083 0.600127
vt 0.439152 0.567949
vt 0.442767 0.568235
vt 0.438810 0.520936
vt 0.445406 0.520420
vt 0.347273 0.473932
vt 0.348347 0.494326
vt 0.396755 0.473609
vt 0.396379 0.480273
vt 0.436241 0.495692
vt 0.441982 0.497156
vt 0.403368 0.474171
vt 0.410844 0.481627
vt 0.296259 0.615496
vt 0.300923 0.619685
vt 0.444867 0.475122
vt 0.440251 0.471632
vt 0.299489 0.468814
vt 0.294725 0.473055
vt 0.442648 0.619535
vt 0.447484 0.615258
vt 0.311885 0.606775
vt 0.308585 0.603575
vt 0.311348 0.603938
vt 0.306104 0.484197
vt 0.309281 0.481124
vt 0.308672 0.483630
vt 0.437906 0.606251
vt 0.434872 0.609366
vt 0.435400 0.606741
vt 0.437982 0.475473
vt 0.441085 0.478750
s 1
usemtl Floor_Panels
f 54/54/1 29/29/2 1/1/2 47/47/1
f 17/17/3 24/24/4 25/25/5 48/48/3 50/50/3
f 38/38/6 16/16/6 43/43/6 57/57/6
f 2/2/7 31/31/8 37/37/9 15/15/9
f 52/52/6 44/44/6 3/3/6 32/32/6
f 34/34/6 4/4/6 16/16/6 38/38/6
f 23/23/10 10/10/10 45/45/10 51/51/10
f 32/32/6 3/3/6 4/4/6 34/34/6
f 12/12/11 26/26/11 55/55/11 46/46/11
f 1/1/2 29/29/2 31/31/8 2/2/7
f 28/28/12 5/5/13 6/6/14 30/30/14
f 5/5/13 7/7/15 8/8/16 6/6/14
f 15/15/9 37/37/9 58/58/9 42/42/9
f 11/11/17 25/25/18 26/26/11 12/12/11
f 24/24/19 17/17/20 21/21/21 7/7/15
f 7/7/15 21/21/21 22/22/22 8/8/16
f 19/19/23 27/27/24 5/5/13 28/28/12
f 14/14/25 13/13/25 57/57/25 58/58/25
f 57/57/26 13/13/26 39/39/27 38/38/28
f 27/27/24 24/24/19 7/7/15 5/5/13
f 30/30/14 6/6/14 35/35/14 39/39/14 36/36/14
f 6/6/14 8/8/16 33/33/29 35/35/14
f 20/20/30 9/9/31 10/10/10 23/23/10
f 8/8/16 22/22/22 18/18/32 33/33/29
f 39/39/33 13/13/33 14/14/33 36/36/33
f 53/53/34 52/52/35 32/32/36 33/33/37 18/18/38
f 36/36/39 14/14/40 58/58/40 37/37/41
f 23/23/42 51/51/43 53/53/34 18/18/38 22/22/44
f 20/20/45 23/23/42 22/22/44 21/21/46
f 50/50/47 49/49/47 20/20/45 21/21/46 17/17/47
f 24/24/4 27/27/48 26/26/49 25/25/5
f 27/27/48 19/19/50 56/56/50 55/55/50 26/26/49
f 28/28/51 30/30/52 31/31/53 29/29/51
f 19/19/54 28/28/51 29/29/51 54/54/54 56/56/54
f 32/32/36 34/34/55 35/35/56 33/33/37
f 30/30/52 36/36/39 37/37/41 31/31/53
f 34/34/55 38/38/28 39/39/27 35/35/56
f 48/48/57 25/25/18 11/11/17 41/41/57
f 48/48/58 49/49/59 50/50/60
f 51/51/61 52/52/62 53/53/63
f 54/54/64 55/55/65 56/56/66
f 48/48/58 41/41/67 40/40/67 49/49/59
f 44/44/68 52/52/62 51/51/61 45/45/68
f 54/54/64 47/47/69 46/46/69 55/55/65
f 57/57/70 43/43/70 42/42/70 58/58/70
f 49/49/71 40/40/71 9/9/31 20/20/30
