# Blender 3.3.0
# www.blender.org
mtllib MESH_FloorPanelSquareBroken1_01.mtl
o Cube.069
v -5.536591 -0.019595 1.150823
v -5.058919 -0.019595 0.093248
v -5.536591 -0.019595 0.093248
v -6.014263 -0.019595 0.562166
v -5.536591 0.177062 0.562166
v -5.058919 0.177062 0.562166
v -5.536591 0.147071 1.031083
v -5.058919 0.147071 1.031083
v -5.058919 -0.019595 1.500000
v -4.581248 -0.019595 1.031083
v -4.581248 -0.019595 0.562166
v -4.820084 0.177062 0.562166
v -4.820084 -0.019595 0.093248
v -4.819900 -0.019595 1.500000
v -4.819900 0.147071 1.031083
v -5.058919 0.147071 0.796624
v -5.536591 0.147071 0.796624
v -4.669365 0.053892 0.750134
v -4.848831 0.147071 0.796077
v -4.581248 -0.019595 0.726691
v -5.643825 -0.019595 1.031083
v -5.853796 -0.019595 0.796624
v -5.201335 -0.019595 1.500000
v -5.230739 0.169218 0.132168
v -5.230739 0.129582 0.093248
v -5.230739 0.147071 0.796624
v -5.230739 0.147071 1.031083
v -5.230739 0.177062 0.562166
v -5.230739 -0.019595 0.093248
v -4.620173 0.108212 1.500000
v -4.581248 0.068948 1.461074
v -4.620173 0.147071 1.461074
v -4.620173 0.169218 0.132168
v -4.581248 0.129366 0.132174
v -4.620173 0.129582 0.093248
v -5.975337 0.129582 0.093248
v -6.014263 0.130210 0.132174
v -5.906403 0.169218 0.189232
v -4.581248 -0.019595 1.461074
v -4.620173 -0.019595 1.500000
v -5.058919 0.147071 1.461074
v -5.058919 0.108223 1.500000
v -4.581248 0.108146 1.031083
v -4.657634 0.147071 1.031083
v -4.620173 0.177062 0.562166
v -4.581248 0.137174 0.562166
v -5.058919 0.129582 0.093248
v -5.058919 0.170427 0.198463
v -5.536591 0.169218 0.132168
v -5.536591 0.129582 0.093248
v -6.014263 -0.019595 0.132174
v -5.975337 -0.019595 0.093248
v -4.620173 -0.019595 0.093248
v -4.581248 -0.019595 0.132174
v -6.014263 0.138051 0.562166
v -5.967958 0.177062 0.562166
v -4.820084 0.171071 0.233752
v -4.820084 0.129582 0.093248
v -4.819900 0.108214 1.500000
v -4.819900 0.147071 1.461074
v -4.581248 0.100524 0.674352
v -4.619657 0.147071 0.674453
v -4.602654 0.124435 0.677406
v -4.620173 0.147071 0.834076
v -4.581248 0.108146 0.813954
v -4.603107 0.123956 0.818116
v -5.238781 0.147071 1.401460
v -5.218630 0.108237 1.500000
v -5.643825 0.108060 1.031083
v -5.595901 0.147071 1.031083
v -5.536591 0.108054 1.150823
v -5.536591 0.147071 1.096797
v -5.853796 0.053593 0.796624
v -5.734488 0.147071 0.796624
vn -0.0000 -0.0000 1.0000
vn 1.0000 -0.0000 -0.0000
vn -0.0000 -0.0000 -1.0000
vn -0.0009 0.9994 0.0332
vn -0.0000 0.9961 0.0882
vn -0.0000 0.9980 0.0636
vn -0.0004 0.9985 0.0541
vn -0.0000 1.0000 -0.0000
vn -0.0014 0.9998 -0.0196
vn -0.0007 0.9998 -0.0189
vn -0.0000 0.9985 0.0545
vn 0.0085 0.9976 0.0683
vn 0.0134 0.9976 0.0674
vn -1.0000 -0.0000 -0.0000
vn -0.7449 -0.0000 0.6671
vn -0.7881 -0.0000 0.6156
vn -0.7867 -0.0000 0.6173
vn -0.0000 0.9998 -0.0182
vn 0.0249 0.9966 0.0786
vn -0.7374 -0.0247 0.6750
vn -0.7294 -0.0494 0.6823
vn 0.5966 0.4961 0.6309
vn 0.4247 0.4234 0.8002
vn 0.4570 0.3913 0.7988
vn 0.0494 0.9834 0.1744
vn 0.1856 0.5882 -0.7871
vn 0.1279 0.6257 -0.7695
vn 0.1533 0.6356 -0.7566
vn 0.2748 0.6466 -0.7116
vn 0.2599 0.5654 -0.7828
vn 0.2432 0.5471 -0.8009
vn 0.4998 0.3460 0.7940
vn 0.6267 0.4932 0.6033
vn -0.8252 -0.0000 0.5648
vn 0.0567 0.9132 -0.4035
vn 0.0458 0.7939 -0.6063
vn 0.0493 0.8004 -0.5974
vn 0.0510 0.9196 -0.3896
vn 0.8177 0.4074 0.4067
vn 0.7674 0.6274 0.1322
vn 0.7734 0.6161 0.1496
vn 0.5829 0.5693 -0.5798
vn -0.1451 0.9274 -0.3449
vn -0.3222 0.9345 -0.1512
vn -0.2374 0.9282 -0.2866
vn 0.7310 0.6508 0.2052
vn 0.7280 0.6787 0.0969
vn 0.7155 0.6985 -0.0127
vn 0.7270 0.6815 0.0842
vn -0.0176 0.7928 -0.6093
vn -0.0182 0.7956 -0.6056
vn -0.4359 0.8986 -0.0510
vn 0.7071 -0.0000 0.7071
vn -0.0000 0.7077 0.7065
vn -0.0472 0.7972 0.6018
vn -0.0443 0.7921 0.6088
vn -0.5081 0.6351 0.5818
vn -0.5368 0.6733 0.5084
vn -0.5611 0.7060 0.4321
vn 0.6428 0.7656 0.0258
vn 0.6441 0.7645 0.0254
vn -0.0390 0.9302 -0.3649
vn -0.0315 0.9327 -0.3593
vn -0.7071 -0.0000 -0.7071
vn 0.7071 -0.0000 -0.7071
vn -0.0999 0.9066 -0.4099
vn 0.5649 0.8236 0.0511
vn -0.3643 0.8024 0.4727
vn -0.1948 0.8472 0.4942
vn -0.5616 0.6996 0.4419
vn -0.5730 0.7187 0.3940
vn -0.5270 0.7016 0.4795
vn -0.4982 0.7337 0.4620
vt 0.322091 0.403346
vt 0.455133 0.347321
vt 0.455113 0.395201
vt 0.392519 0.460518
vt 0.378877 0.455796
vt 0.391424 0.394642
vt 0.392556 0.346701
vt 0.344023 0.393092
vt 0.345133 0.345409
vt 0.284040 0.344027
vt 0.347228 0.285277
vt 0.391504 0.286233
vt 0.393596 0.323480
vt 0.455143 0.323246
vt 0.284545 0.320012
vt 0.345241 0.321769
vt 0.368792 0.345773
vt 0.367449 0.394117
vt 0.373785 0.303349
vt 0.369451 0.323827
vt 0.375513 0.291616
vt 0.333940 0.414423
vt 0.358051 0.435733
vt 0.283914 0.358387
vt 0.286919 0.369653
vt 0.434838 0.364597
vt 0.440338 0.364575
vt 0.368322 0.363156
vt 0.344767 0.362597
vt 0.392099 0.363822
vt 0.455230 0.364534
vt 0.297944 0.300364
vt 0.298132 0.293592
vt 0.294169 0.294730
vt 0.303950 0.291898
vt 0.303452 0.300533
vt 0.434533 0.302923
vt 0.434182 0.297611
vt 0.438910 0.299919
vt 0.439513 0.297242
vt 0.440133 0.302950
vt 0.439585 0.439126
vt 0.435797 0.443141
vt 0.435387 0.443520
vt 0.439451 0.444646
vt 0.429260 0.432083
vt 0.304403 0.283079
vt 0.285293 0.294470
vt 0.285131 0.299989
vt 0.302328 0.344260
vt 0.296851 0.344195
vt 0.345861 0.297827
vt 0.345363 0.306018
vt 0.394958 0.305754
vt 0.394516 0.300816
vt 0.440125 0.347372
vt 0.428766 0.347338
vt 0.434584 0.394941
vt 0.440159 0.395062
vt 0.436028 0.458678
vt 0.454475 0.444839
vt 0.454546 0.439318
vt 0.455230 0.303015
vt 0.438457 0.282801
vt 0.433128 0.283191
vt 0.391844 0.444567
vt 0.389961 0.444382
vt 0.391504 0.438444
vt 0.425349 0.323484
vt 0.440053 0.323209
vt 0.297339 0.320335
vt 0.302826 0.320477
vt 0.384469 0.299885
vt 0.385249 0.304876
vt 0.384606 0.302587
vt 0.362270 0.303766
vt 0.364088 0.299483
vt 0.363787 0.301628
vt 0.307484 0.362506
vt 0.296796 0.360216
vt 0.296730 0.361155
vt 0.342562 0.404929
vt 0.343838 0.398961
vt 0.330892 0.394029
vt 0.337467 0.392934
vt 0.363156 0.430206
vt 0.366634 0.414758
s 1
usemtl Floor_Panels
f 9/10/1 42/51/1 68/80/1 23/24/1
f 46/55/2 11/12/2 54/65/2 34/38/2
f 3/3/3 52/62/3 36/42/3 50/59/3
f 56/68/4 74/87/5 17/18/6 5/6/7
f 8/9/8 41/50/8 60/72/8 15/16/8
f 38/46/9 56/68/4 5/6/7 49/58/10
f 6/7/11 16/17/6 19/20/12 12/13/13
f 51/60/14 4/4/14 55/66/14 37/44/14
f 29/31/3 3/3/3 50/59/3 25/27/3
f 21/22/15 69/82/15 73/86/16 22/23/17
f 26/28/6 27/29/8 8/9/8 16/17/6
f 53/63/3 13/14/3 58/70/3 35/41/3
f 15/16/8 60/72/8 32/36/8 44/53/8
f 61/73/2 20/21/2 11/12/2 46/55/2
f 24/26/18 28/30/11 6/7/11 48/57/18
f 15/16/8 19/20/12 16/17/6 8/9/8
f 48/57/18 6/7/11 12/13/13 57/69/18
f 13/14/3 2/2/3 47/56/3 58/70/3
f 57/69/18 12/13/13 45/54/19 33/37/18
f 31/35/2 39/47/2 10/11/2 43/52/2
f 43/52/2 10/11/2 20/21/2 65/77/2
f 27/29/8 67/79/8 41/50/8 8/9/8
f 1/1/20 23/25/21 68/81/21 71/84/20
f 63/75/22 62/74/23 19/20/23 18/19/24
f 12/13/13 19/20/12 62/74/25 45/54/19
f 18/19/26 19/20/27 64/76/28 66/78/29
f 66/78/29 65/77/30 20/21/31 18/19/26
f 28/30/11 26/28/6 16/17/6 6/7/11
f 18/19/24 20/21/32 61/73/33 63/75/22
f 73/86/16 55/67/34 4/5/34 22/23/17
f 59/71/1 42/51/1 9/10/1 14/15/1
f 19/20/12 15/16/8 44/53/8 64/76/8
f 70/83/8 72/85/8 7/8/8
f 74/87/5 70/83/8 7/8/8 17/18/6
f 21/22/15 1/1/20 71/84/20 69/82/15
f 47/56/35 25/27/36 24/26/37 48/57/38
f 30/32/39 31/33/40 32/36/41
f 33/37/42 34/38/42 35/39/42
f 36/42/43 37/43/44 38/46/45
f 61/73/33 62/74/46 63/75/22
f 64/76/28 65/77/30 66/78/29
f 46/55/47 34/38/48 33/37/48 45/54/49
f 50/59/50 36/42/43 38/46/45 49/58/51
f 56/68/52 38/46/45 37/44/44 55/66/52
f 39/48/53 31/34/53 30/32/53 40/49/53
f 60/72/54 41/50/55 42/51/56 59/71/54
f 55/67/57 73/86/58 74/87/59 56/68/57
f 31/35/40 43/52/60 44/53/61 32/36/41
f 61/73/33 46/55/47 45/54/49 62/74/46
f 58/70/62 47/56/35 48/57/38 57/69/63
f 25/27/36 50/59/50 49/58/51 24/26/37
f 51/61/64 37/45/64 36/42/64 52/62/64
f 34/38/65 54/65/65 53/64/65 35/40/65
f 35/41/66 58/70/62 57/69/63 33/37/66
f 32/36/54 60/72/54 59/71/54 30/32/54
f 43/52/60 65/77/67 64/76/67 44/53/61
f 41/50/55 67/79/68 68/80/69 42/51/56
f 70/83/70 74/87/59 73/86/58 69/82/71
f 72/85/72 70/83/70 69/82/71 71/84/73
f 71/84/73 68/81/69 67/79/68 72/85/72
f 30/32/1 59/71/1 14/15/1 40/49/1
f 5/6/7 17/18/6 26/28/6 28/30/11
f 49/58/10 5/6/7 28/30/11 24/26/18
f 17/18/6 7/8/8 27/29/8 26/28/6
f 2/2/3 29/31/3 25/27/3 47/56/3
f 7/8/8 72/85/8 67/79/8 27/29/8
