# Blender 3.3.0
# www.blender.org
mtllib MESH_Ston3_01.mtl
o Cube.012
v -1.676897 0.000000 -1.726642
v -1.356814 1.052979 1.726644
v -1.291300 1.039025 -1.304273
v -1.456277 0.574540 -1.809779
v 2.163693 1.908088 -0.337535
v 2.212428 1.851438 -0.434530
v 2.150438 1.905004 0.154201
v 2.209934 1.829805 0.187756
v 1.477725 0.000000 -1.726643
v 2.073352 0.644844 -1.726644
v -1.570941 0.348561 1.726643
v -1.676895 0.000000 1.517623
v -1.164610 0.000000 1.726643
v -0.067733 1.366300 1.726643
v 1.667223 1.787915 1.444255
v 2.137022 1.197229 1.702543
v 2.131240 1.147063 1.726642
v -1.202429 0.781323 -1.824341
v -0.877067 0.944615 -1.670465
v 2.152885 1.334860 -1.726644
v 1.734857 1.603667 -1.454513
v 2.167304 1.459958 -1.650975
v 1.580278 0.000000 1.285632
v 2.118875 1.039784 1.726642
v 1.123320 0.000000 1.726642
v 2.058652 0.517300 1.301964
vn -0.3963 0.7939 -0.4611
vn -0.3457 -0.4030 0.8474
vn -0.9462 0.3234 -0.0109
vn 0.0427 0.4286 0.9025
vn 0.7785 0.6271 0.0249
vn 0.5783 -0.5537 0.5992
vn -0.1054 0.6821 -0.7236
vn 0.6721 0.6712 0.3127
vn -0.0000 -0.0000 1.0000
vn 0.1938 0.9287 -0.3163
vn -0.2298 0.9713 -0.0608
vn 0.0198 -0.0557 -0.9983
vn 0.9934 -0.1145 -0.0000
vn 0.7344 -0.6783 -0.0250
vt 0.009685 0.516072
vt 0.068703 0.593745
vt 0.121825 0.158834
vt 0.123969 0.471959
vt 0.073288 0.524396
vt 0.105853 0.540431
vt 0.458681 0.362098
vt 0.464772 0.371209
vt 0.459912 0.319926
vt 0.468441 0.317216
vt 0.382204 0.644276
vt 0.649392 0.526132
vt 0.453316 0.584378
vt 0.560116 0.522151
vt 0.045781 0.159208
vt 0.087380 0.090009
vt 0.065503 0.051941
vt 0.008259 0.180983
vt 0.123126 0.046949
vt 0.255749 0.165885
vt 0.436789 0.199240
vt 0.478447 0.126835
vt 0.517699 0.175453
vt 0.477214 0.121107
vt 0.523240 0.173220
vt 0.135250 0.527704
vt 0.166875 0.508487
vt 0.470789 0.512915
vt 0.484967 0.507644
vt 0.426657 0.471998
vt 0.472923 0.496827
vt 0.655979 0.219372
vt 0.474806 0.110111
vt 0.534747 0.173937
vt 0.684424 0.158250
vt 0.358660 0.012667
vt 0.585334 0.220968
s 0
usemtl Darker_grey
f 18/26/1 4/6/1 3/4/1 19/27/1
f 11/16/2 12/17/2 13/19/2
f 11/15/3 2/3/3 3/4/3 4/5/3 1/1/3 12/18/3
f 16/22/4 15/21/4 14/20/4 17/24/4
f 6/8/5 5/7/5 7/9/5 8/10/5
f 23/32/6 26/37/6 24/34/6 25/35/6
f 22/31/7 20/28/7 18/26/7 19/27/7 21/30/7
f 7/9/8 15/21/8 16/23/8 8/10/8
f 24/33/9 17/24/9 14/20/9 2/3/9 11/16/9 13/19/9 25/36/9
f 6/8/10 22/31/10 21/30/10 5/7/10
f 2/3/11 14/20/11 15/21/11 7/9/11 5/7/11 21/30/11 19/27/11 3/4/11
f 1/2/12 4/6/12 18/26/12 20/28/12 10/13/12 9/11/12
f 10/14/13 20/29/13 22/31/13 6/8/13 8/10/13 16/23/13 17/25/13 24/34/13 26/37/13
f 9/12/14 10/14/14 26/37/14 23/32/14
