# Blender 3.3.0
# www.blender.org
mtllib MESH_Stone1_01.mtl
o Cube.004
v -1.022500 0.243088 0.132365
v 0.492944 -0.000000 -1.732380
v -1.256109 0.161933 -0.153447
v 0.579480 0.000000 1.220459
v 1.466169 0.000000 0.806460
v -1.266795 0.380947 -0.132432
v 1.368929 0.000000 0.127931
v 1.008123 0.000000 -0.826900
v 0.843292 0.160381 -1.281999
v -0.951624 0.000000 0.123643
v -0.108966 0.000000 0.803560
v 0.849991 0.451204 -1.204270
v 0.860745 0.000000 -1.229043
v -0.123242 0.000000 -1.415786
v -0.847637 0.000000 -0.896798
v -0.579988 0.557916 -0.487619
v 0.163502 0.561802 -0.877067
v 1.029549 0.000000 1.110275
v 1.261418 0.000000 1.025870
v -1.277242 0.507929 -0.121195
v -1.257311 0.000000 -0.172163
v 0.802305 2.265369 0.320848
v 0.350609 2.205833 0.559276
v 0.350306 1.034235 -0.539155
v -0.308316 1.014163 -0.193631
v -1.417465 0.000000 -0.472692
v -1.269183 0.579171 -0.173171
v 0.854634 0.701783 -1.246114
v 0.908518 0.612984 -1.273638
v 0.506859 2.922206 1.138459
v 0.467478 2.870593 1.193337
v 1.275605 3.044309 0.713399
v 1.344065 2.999910 0.709297
v 0.949702 1.155863 -0.804121
v 1.015688 1.056658 -0.834333
v 1.255637 2.230186 0.088988
v 1.161884 2.354911 0.068945
v -0.003776 2.171184 0.689440
v -0.101087 2.051695 0.797704
v -0.949368 0.917415 0.143144
v -0.904539 1.005711 0.101456
v 1.111978 3.129295 0.919900
v 1.135767 3.104571 0.968204
v 0.836086 3.015916 1.125537
v 0.800778 3.039618 1.082860
v -0.945397 0.688062 0.138873
v 0.991077 0.755789 -0.845726
v 1.052032 0.249701 -0.904026
v 0.884886 0.804581 1.284062
v 0.840926 2.261937 1.144970
v 0.484702 2.152945 1.215689
v 0.507014 0.770945 1.326674
v -0.101087 1.538771 0.797704
v -0.153878 0.527609 0.883740
v 1.401814 0.577709 0.218255
v 1.265267 1.672639 0.127650
v 1.381448 2.249933 0.793051
v 1.519498 0.813319 0.888357
v 1.145455 2.328429 1.007101
v 1.237682 0.829466 1.172976
v -0.976569 0.409345 0.154736
v -0.941169 0.514140 0.129758
v -1.265112 0.257303 -0.137033
v -1.255666 0.309862 -0.156418
v 0.843634 0.366914 -1.196300
v 0.837285 0.235821 -1.266397
v 0.991063 0.563051 -0.833056
v 1.040604 0.474826 -0.903827
v 0.788788 1.561375 1.079507
v 0.877644 1.529981 1.233848
v 0.444006 1.488813 1.152855
v 0.521486 1.449204 1.365023
v -0.149384 0.993017 0.874326
v -0.101087 1.080832 0.797704
v 1.379232 1.092590 0.177575
v 1.273955 1.169631 0.162530
v 1.359552 1.552980 0.787365
v 1.540910 1.521531 0.968715
v 1.245979 1.523351 1.152937
v 1.097843 1.605567 0.959808
v -0.067855 2.088274 0.647612
v -0.101087 1.851245 0.797704
v -0.184996 1.939496 0.732957
v -0.008959 2.080766 0.697611
v -0.093111 1.967824 0.741934
v 0.329847 2.316011 1.100743
v 0.323052 1.983463 1.100345
v 0.344900 1.617592 1.094792
v -0.101087 1.291415 0.797704
v -0.721546 0.767888 0.311833
v -0.748097 0.886857 0.292830
v -0.783533 1.042451 0.269302
v -0.170016 0.881360 0.891428
v -0.984373 0.366952 0.148551
v -1.256109 0.202993 -0.153447
v 0.843292 0.202582 -1.281999
v 1.052032 0.432970 -0.904026
v 1.409722 0.953068 0.178716
v 1.267212 1.416957 1.180314
v 0.911409 1.427606 1.311102
v 0.519610 1.352304 1.389032
v 1.568919 1.421793 0.973582
vn 0.8073 0.1987 -0.5557
vn 0.9329 -0.2040 -0.2967
vn 0.9710 -0.0828 -0.2243
vn 0.9482 -0.0325 -0.3159
vn 0.6670 -0.0005 0.7450
vn 0.7413 0.0765 0.6668
vn 0.5972 0.0585 0.8000
vn 0.5599 -0.0014 0.8286
vn -0.5786 -0.0033 0.8156
vn -0.5823 0.0077 0.8130
vn -0.5830 0.0079 0.8124
vn -0.5667 -0.0165 0.8238
vn -0.4584 0.6232 -0.6336
vn -0.4156 0.6721 -0.6128
vn -0.3920 0.6730 -0.6273
vn -0.4191 0.6311 -0.6527
vn 0.3093 -0.0324 0.9504
vn 0.3331 0.0356 0.9422
vn 0.1773 0.0306 0.9837
vn 0.2071 -0.0510 0.9770
vn -0.3552 0.6389 -0.6823
vn -0.3639 0.6508 -0.6663
vn -0.3646 0.6213 -0.6935
vn -0.3258 0.6493 -0.6872
vn -0.5226 0.6151 -0.5904
vn -0.5000 0.6036 -0.6211
vn -0.4648 0.6154 -0.6366
vn -0.4855 0.6205 -0.6159
vn -0.3857 0.6293 -0.6747
vn -0.3425 0.6256 -0.7009
vn -0.4203 0.6284 -0.6546
vn -0.3468 0.6343 -0.6910
vn -0.5854 -0.0118 0.8107
vn -0.5921 0.0006 0.8059
vn -0.6059 -0.0092 0.7955
vn -0.6063 -0.0157 0.7951
vn 0.9754 -0.0625 -0.2116
vn 0.9816 0.0085 -0.1909
vn 0.9798 -0.0119 -0.1998
vn 0.9841 0.0189 -0.1764
vn 0.9859 0.0095 -0.1673
vn -0.8920 0.3728 0.2556
vn -0.9315 0.3037 0.2003
vn -0.8247 0.5030 0.2587
vn -0.8197 0.5569 0.1342
vn -0.3847 0.6962 -0.6061
vn -0.3918 0.6925 -0.6058
vn -0.5974 -0.0581 0.7998
vn -0.5987 -0.0294 0.8004
vn -0.6569 -0.0714 0.7506
vn -0.7132 -0.1404 0.6868
vn -0.3908 0.6460 -0.6557
vn -0.9750 0.1918 0.1118
vn 0.5693 0.4690 -0.6752
vn 0.5745 0.4892 -0.6562
vn 0.5644 0.4511 -0.6914
vn -0.1147 0.8309 0.5445
vn -0.1987 0.7798 0.5937
vn -0.0925 0.8426 0.5305
vn 0.8684 -0.1531 -0.4717
vn 0.8443 -0.0699 -0.5313
vn 0.9226 -0.0743 -0.3786
vn 0.9297 -0.1260 -0.3461
vn 0.4569 0.5126 -0.7269
vn 0.5490 0.4589 -0.6985
vn 0.5308 0.5089 -0.6777
vn 0.3598 0.4719 -0.8049
vn -0.8071 0.5873 -0.0603
vn -0.7491 0.1633 -0.6420
vn 0.5604 0.8204 0.1135
vn -0.0084 0.8804 0.4741
vn -0.4027 0.5857 -0.7034
vn 0.2901 0.4395 -0.8501
vn 0.7737 0.1890 -0.6047
vn 0.7058 0.3368 -0.6232
vn 0.8448 0.2422 -0.4772
vn 0.8085 0.2643 -0.5258
vn 0.9499 -0.2673 -0.1621
vn 0.8761 -0.1169 -0.4677
vn 0.9150 0.2136 -0.3422
vn 0.9070 0.2100 -0.3649
vn -0.6576 -0.1758 0.7325
vn -0.7086 -0.0502 0.7038
vn -0.8226 -0.0332 0.5676
vn -0.8104 -0.1057 0.5763
vn -0.8694 -0.0821 0.4873
vn -0.7012 0.1913 0.6868
vn -0.6834 0.2021 0.7015
vn -0.7132 0.0736 0.6970
vn -0.6917 -0.0736 0.7184
vn 0.9687 -0.0651 -0.2396
vn 0.9738 -0.0493 -0.2221
vn 0.9863 -0.0473 -0.1579
vn 0.9878 -0.0427 -0.1500
vn 0.9744 -0.0091 -0.2248
vn 0.9895 -0.0144 -0.1440
vn 0.6025 -0.0592 0.7959
vn 0.5043 -0.0804 0.8598
vn 0.3034 -0.1042 0.9472
vn 0.2265 -0.1064 0.9682
vn -0.5624 -0.1745 0.8082
vn -0.5853 -0.1035 0.8042
vn -0.6969 -0.2132 0.6848
vn -0.7883 -0.1024 0.6067
vn -0.5919 -0.1063 0.7990
vn -0.6483 -0.2759 0.7096
vn 0.5456 -0.1322 0.8276
vn 0.5008 -0.1019 0.8595
vn 0.2435 -0.1049 0.9642
vn 0.2625 -0.1496 0.9533
vn 0.2024 0.4774 0.8551
vn 0.2013 0.4772 0.8554
vn 0.1465 0.4667 0.8722
vn 0.1756 -0.1137 0.9779
vn 0.1853 -0.1471 0.9716
vn -0.6651 0.2129 0.7158
vn 0.4049 0.3708 0.8358
vn 0.3912 0.3826 0.8371
vn -0.5082 -0.1672 0.8448
vn -0.5324 -0.1055 0.8399
vn -0.5445 -0.0260 0.8384
vn -0.5475 -0.0308 0.8363
vn 0.9251 0.2184 -0.3108
vn 0.7134 -0.1093 0.6922
vn 0.6791 -0.1056 0.7264
vn 0.5293 0.2531 0.8098
vn 0.5415 0.6255 -0.5618
vn 0.5915 0.5500 -0.5896
vn 0.6661 0.3617 -0.6523
vn -0.7373 0.4849 0.4704
vn -0.8340 0.3320 0.4407
vn -0.8756 0.3077 0.3724
vn -0.7441 0.4300 0.5113
vn 0.5473 0.6625 -0.5114
vn 0.5784 0.6599 -0.4796
vn 0.5459 0.6626 -0.5128
vn -0.7071 0.5960 0.3804
vn -0.7135 0.5792 0.3943
vn 0.1001 0.9698 0.2223
vn -0.0626 0.9615 0.2677
vn -0.0413 0.9611 0.2730
vn 0.1217 0.9722 0.1999
vn -0.1374 0.9589 0.2481
vn -0.6919 0.6321 0.3488
vn 0.1820 0.9739 0.1355
vn -0.5876 -0.0200 0.8089
vn -0.5792 -0.0141 0.8151
vn -0.6081 -0.0233 0.7935
vn -0.7908 -0.2030 0.5774
vn -0.9391 0.2541 0.2314
vn 0.7901 -0.0200 -0.6127
vn -0.2190 0.4332 0.8743
vn -0.8095 0.5843 0.0583
vn -0.3384 -0.0654 -0.9387
vn -0.9899 -0.0000 -0.1416
vn -0.3584 0.6210 0.6971
vn -0.2629 0.8192 0.5097
vn -0.3021 0.7514 0.5866
vn -0.1831 0.9174 0.3535
vn -0.5773 0.0051 0.8165
vn -0.6067 -0.0060 0.7949
vn 0.6397 -0.1012 0.7620
vn 0.4932 -0.0734 0.8668
vn 0.9761 -0.0440 -0.2129
vn 0.9855 -0.0499 -0.1623
vn 0.2510 -0.0589 0.9662
vn -0.5471 -0.0646 0.8346
vn -0.5901 -0.0440 0.8061
vn 0.1651 -0.0783 0.9832
vn -0.6975 0.0285 0.7160
vn 0.9320 -0.0224 -0.3619
vt 0.400300 0.017314
vt 0.018748 -0.015255
vt 0.974412 0.019276
vt 0.365608 0.003930
vt 0.596413 0.021786
vt 0.698395 0.026809
vt 0.270722 0.043909
vt 0.767597 0.022702
vt 0.869536 0.017742
vt 0.917894 0.034033
vt 0.408302 -0.006492
vt 0.515768 0.009308
vt 0.003411 0.064321
vt 0.912590 0.018022
vt 0.093381 -0.025888
vt 0.191161 -0.023033
vt 0.186149 0.054677
vt 0.102239 0.060132
vt 0.643337 0.024909
vt 0.668205 0.026490
vt 0.262480 0.052297
vt 0.366355 -0.012251
vt 0.121649 0.276170
vt 0.172677 0.267581
vt 0.105882 0.122268
vt 0.179371 0.115368
vt 0.269880 -0.011203
vt 0.332758 -0.017230
vt 0.254630 0.054110
vt 0.027740 0.077504
vt 0.018903 0.072341
vt 0.189363 0.360378
vt 0.196977 0.364032
vt 0.198251 0.358471
vt 0.108953 0.372917
vt 0.100688 0.372651
vt 0.103135 0.379467
vt 0.039465 0.139768
vt 0.028562 0.133286
vt 0.065111 0.281924
vt 0.080137 0.284418
vt 0.208067 0.263154
vt 0.225138 0.257226
vt 0.255706 0.104331
vt 0.246371 0.109669
vt 0.133529 0.372499
vt 0.134812 0.376994
vt 0.161387 0.373808
vt 0.161285 0.368595
vt 0.273832 0.091389
vt 0.003860 0.112912
vt 0.875598 0.043150
vt 0.619376 0.104683
vt 0.184171 0.436534
vt 0.223147 0.435070
vt 0.258934 0.318968
vt 0.582278 0.098703
vt 0.266160 0.224786
vt 0.508517 0.062560
vt 0.761254 0.081106
vt 0.018178 0.253330
vt 0.029280 0.342627
vt 0.120591 0.455807
vt 0.695124 0.109003
vt 0.150054 0.440171
vt 0.655558 0.109389
vt 0.402439 0.034381
vt 0.401212 0.045576
vt 0.287160 0.080785
vt 0.364889 0.013580
vt 0.275090 0.037896
vt 0.362824 0.018830
vt -0.003148 0.058790
vt 0.911057 0.055205
vt 0.917043 0.041736
vt -0.012531 0.101907
vt 0.874170 0.077047
vt 0.876717 0.065298
vt 0.208006 0.505152
vt 0.610240 0.194536
vt 0.616319 0.177584
vt 0.245871 0.501890
vt 0.574018 0.190085
vt 0.553029 0.171865
vt 0.308245 0.274522
vt 0.579154 0.167405
vt 0.575567 0.166858
vt 0.500891 0.108356
vt 0.496156 0.119973
vt 0.303200 0.198353
vt 0.769054 0.132248
vt -0.026066 0.226065
vt 0.775912 0.143278
vt -0.030162 0.302464
vt 0.143165 0.525541
vt 0.717014 0.187916
vt 0.676528 0.206024
vt 0.691818 0.181059
vt 0.686448 0.180831
vt 0.652267 0.176600
vt 0.173133 0.510785
vt 0.643926 0.200536
vt 0.210688 0.246822
vt 0.240677 0.243115
vt 0.228234 0.237535
vt 0.211138 0.254132
vt 0.226610 0.247368
vt 0.234905 0.312718
vt 0.260809 0.293182
vt 0.291177 0.272854
vt 0.286224 0.210522
vt 0.283427 0.118383
vt 0.272199 0.122534
vt 0.257462 0.128087
vt 0.502339 0.097041
vt 0.402091 0.030006
vt 0.365012 0.007970
vt 0.917877 0.038182
vt 0.876085 0.061110
vt 0.767092 0.118162
vt 0.653944 0.165967
vt 0.617994 0.164789
vt 0.578541 0.157261
vt 0.689817 0.170794
s 1
usemtl lighter_grey
f 65/73/1 12/13/2 47/51/3 67/76/4
f 57/63/5 33/37/6 43/47/7 59/65/8
f 51/56/9 31/34/10 86/108/11 87/109/12
f 34/38/13 28/30/14 17/18/15 24/25/16
f 50/54/17 44/48/18 31/33/19 51/55/20
f 59/65/8 43/47/7 44/48/18 50/54/17
f 25/26/21 16/17/22 27/29/23 41/45/24
f 32/35/25 37/41/26 22/23/27 42/46/28
f 23/24/29 25/26/21 41/45/24 81/103/30
f 45/49/31 23/24/29 38/42/32 30/32/32
f 53/58/33 82/104/34 92/114/35 91/113/36
f 47/51/3 35/39/37 36/40/38 56/61/39
f 22/23/27 24/25/16 25/26/21 23/24/29
f 56/61/39 36/40/38 33/36/40 57/62/41
f 27/29/42 20/21/43 40/44/44 41/45/45
f 14/15/46 17/18/15 28/30/14 2/2/47
f 24/25/16 17/18/15 16/17/22 25/26/21
f 37/41/26 34/38/13 24/25/16 22/23/27
f 42/46/28 22/23/27 23/24/29 45/49/31
f 46/50/48 40/44/49 20/21/50 6/7/51
f 15/16/52 16/17/22 17/18/15 14/15/46
f 26/27/53 20/21/43 27/29/42
f 37/41/54 32/35/55 33/36/55 36/40/56
f 45/49/57 30/32/58 31/33/58 44/48/59
f 13/14/60 9/10/61 48/52/62 8/9/63
f 28/30/64 34/38/65 35/39/66 29/31/67
f 34/38/65 37/41/54 36/40/56 35/39/66
f 30/32/68 38/42/68 39/43/68 31/34/68
f 38/42/69 84/106/69 85/107/69 39/43/69
f 32/35/70 42/46/70 43/47/70 33/37/70
f 42/46/71 45/49/57 44/48/59 43/47/71
f 26/27/72 27/29/23 16/17/22 15/16/52
f 2/2/73 28/30/64 29/31/67
f 96/118/74 66/75/75 68/78/76 97/119/77
f 12/13/2 29/31/78 35/39/37 47/51/3
f 2/2/79 29/31/78 12/13/2
f 97/119/77 68/78/76 75/91/80 98/120/81
f 10/11/82 1/1/83 3/4/84 21/22/85
f 21/22/85 3/4/84 26/28/86
f 93/115/87 73/88/88 61/67/89 94/116/90
f 7/8/91 55/60/92 58/64/93 5/6/94
f 76/92/95 56/61/39 57/62/41 77/94/96
f 77/95/97 57/63/5 59/65/8 80/101/98
f 8/9/63 48/52/62 55/60/92 7/8/91
f 67/76/4 47/51/3 56/61/39 76/92/95
f 69/79/99 50/54/17 51/55/20 71/82/100
f 11/12/101 54/59/102 1/1/83 10/11/82
f 94/116/90 61/67/89 63/70/103 95/117/104
f 62/69/105 46/50/48 6/7/51 64/71/106
f 19/20/107 60/66/108 49/53/109 18/19/110
f 80/101/98 59/65/8 50/54/17 69/79/99
f 100/122/111 70/81/112 72/86/113 101/123/113
f 18/19/110 49/53/109 52/57/114 4/5/115
f 101/123/116 72/87/116 73/88/88 93/115/87
f 99/121/117 79/100/118 70/81/112 100/122/111
f 4/5/119 52/57/120 54/59/102 11/12/101
f 71/85/121 51/56/9 87/109/12 88/110/122
f 98/120/81 75/91/80 78/98/123 102/124/123
f 5/6/124 58/64/125 60/66/108 19/20/107
f 102/124/126 78/99/126 79/100/118 99/121/117
f 65/74/1 67/77/127 68/78/128 66/75/129
f 62/68/130 64/72/131 63/70/132 61/67/133
f 76/93/134 77/96/135 78/98/135 75/91/136
f 67/77/127 76/93/134 75/91/136 68/78/128
f 74/89/137 62/68/130 61/67/133 73/88/138
f 80/102/139 69/80/140 70/81/141 79/100/142
f 69/80/140 71/83/143 72/86/143 70/81/141
f 71/84/144 74/89/137 73/88/138 72/87/144
f 77/97/145 80/102/139 79/100/142 78/99/145
f 74/90/146 89/111/147 90/112/148 62/69/105
f 26/27/149 6/7/51 20/21/50
f 26/27/149 64/71/106 6/7/51
f 26/28/150 63/70/132 64/72/131
f 26/28/86 3/4/84 95/117/104
f 12/13/2 65/73/1 2/2/79
f 2/3/79 65/74/1 66/75/129
f 96/118/74 9/10/61 2/3/151
f 2/3/151 9/10/61 13/14/60
f 83/105/152 82/104/152 85/107/152
f 83/105/153 81/103/153 41/45/45 40/44/44
f 23/24/154 84/106/154 38/42/154
f 85/107/155 82/104/155 39/43/155
f 85/107/156 84/106/157 81/103/158 83/105/156
f 84/106/157 23/24/159 81/103/158
f 82/104/34 86/108/11 31/34/10 39/43/160
f 88/110/122 87/109/12 53/58/33 89/111/147
f 87/109/12 86/108/11 82/104/34 53/58/33
f 89/111/147 74/90/146 71/85/121 88/110/122
f 62/69/105 90/112/148 91/113/36 46/50/48
f 91/113/36 92/114/35 40/44/49 46/50/48
f 91/113/36 90/112/148 89/111/147 53/58/33
f 92/114/35 82/104/34 83/105/161 40/44/49
f 58/64/125 102/124/162 99/121/163 60/66/108
f 55/60/92 98/120/164 102/124/165 58/64/93
f 60/66/108 99/121/163 100/122/166 49/53/109
f 52/57/120 101/123/167 93/115/168 54/59/102
f 49/53/109 100/122/166 101/123/169 52/57/114
f 1/1/83 94/116/170 95/117/104 3/4/84
f 54/59/102 93/115/168 94/116/170 1/1/83
f 48/52/62 97/119/171 98/120/164 55/60/92
f 9/10/61 96/118/74 97/119/171 48/52/62
f 63/70/103 26/28/86 95/117/104
f 66/75/75 96/118/74 2/3/151
