# Blender 3.3.0
# www.blender.org
mtllib MESH_Stone3_01.mtl
o Cube.015
v 0.741026 0.000000 0.171347
v -0.392839 0.000000 0.533454
v 0.634306 0.000000 -0.277038
v -0.637103 0.000000 0.270636
v 0.214222 0.000000 0.490484
v -0.214222 0.000000 -0.490484
v -0.357657 0.000000 -0.380325
v 0.115845 0.000000 0.533451
v 0.670961 0.000000 0.291001
v 0.242516 0.000000 -0.689968
v 0.710264 0.096209 0.142045
v -0.364476 0.099394 0.527598
v -0.621071 0.088243 0.266653
v 0.617955 0.083506 -0.264843
v -0.225644 0.061799 -0.478270
v 0.224820 0.097802 0.487113
v -0.346368 0.065072 -0.364014
v 0.133143 0.098143 0.526851
v 0.659012 0.096655 0.298497
v 0.209843 0.050787 -0.668324
v -0.488649 0.000000 -0.302102
v -0.625943 0.000000 -0.189664
v -0.229952 0.000000 0.573305
v -0.073930 0.000000 0.585672
v -0.614624 0.073085 -0.179025
v -0.483876 0.068643 -0.277299
v -0.048428 0.098560 0.575116
v -0.196256 0.098977 0.558774
v 0.533766 0.000000 -0.470184
v -0.674346 0.000000 0.118203
v 0.505772 0.065006 -0.462382
v -0.660430 0.082668 0.120647
v 0.587138 0.485002 0.060740
v 0.616222 0.473412 0.049027
v -0.183668 0.474235 0.411970
v -0.201608 0.461311 0.444765
v 0.495621 0.409053 -0.189230
v 0.462515 0.413920 -0.174963
v -0.454472 0.408767 0.208005
v -0.486140 0.392366 0.221866
v 0.236583 0.511390 0.398605
v 0.249441 0.498419 0.422087
v -0.186691 0.226203 -0.452133
v -0.227397 0.189232 -0.483144
v 0.186619 0.506372 0.419132
v 0.198311 0.493347 0.442938
v -0.239051 0.328300 -0.231004
v -0.230863 0.340954 -0.219537
v 0.160290 0.111649 -0.648933
v 0.154581 0.142405 -0.620849
v 0.548671 0.511034 0.296365
v 0.530648 0.523834 0.274928
v 0.056070 0.497918 0.443789
v 0.065508 0.484788 0.468466
v -0.062309 0.455825 0.469895
v -0.068686 0.469258 0.447381
v -0.493181 0.347869 -0.124165
v -0.509219 0.326240 -0.140236
v -0.410788 0.337365 -0.214825
v -0.394603 0.359652 -0.195367
v -0.527944 0.364462 0.121414
v -0.496356 0.379853 0.108749
v 0.425836 0.245506 -0.406486
v 0.391946 0.267111 -0.396111
v 0.458462 0.169011 -0.429053
v 0.180988 0.089077 -0.653858
v 0.667741 0.308214 0.086838
v 0.594078 0.329103 0.295427
v 0.546666 0.267175 -0.221834
v -0.575120 0.247671 0.116639
v -0.553399 0.217001 -0.156783
v -0.285909 0.302973 0.504518
v -0.534766 0.265494 0.236459
v -0.135778 0.299770 0.521793
v 0.236671 0.322674 0.448341
v 0.167834 0.320036 0.477457
v -0.289436 0.208755 -0.294129
v -0.225644 0.142059 -0.478270
v 0.014236 0.315514 0.512717
v -0.452249 0.221341 -0.245006
v -0.724836 0.000000 -0.056524
v -0.700146 0.000000 -0.096151
v -0.712550 0.077781 -0.047671
v -0.688213 0.076079 -0.086960
v -0.542353 0.358320 0.001629
v -0.561460 0.333593 -0.044832
v -0.579541 0.341179 -0.000779
v -0.626886 0.232389 -0.025414
v -0.606396 0.226151 -0.066920
v -0.255481 0.329870 -0.228799
v -0.459692 0.000000 -0.327783
v -0.433563 0.067336 -0.309027
v -0.354556 0.213789 -0.274481
v -0.404009 0.000000 -0.350589
v -0.256207 0.301599 -0.231630
v -0.356154 0.076145 -0.307121
v -0.289191 0.221009 -0.252801
v 0.357556 0.000000 -0.673899
v 0.442401 0.000000 -0.645702
v 0.352374 0.047466 -0.661805
v 0.403204 0.048091 -0.642990
v 0.332925 0.151943 -0.579190
v 0.363464 0.120670 -0.605442
v 0.332944 0.108221 -0.628843
v 0.378827 0.092731 -0.618414
v 0.346383 0.085548 -0.639636
v 0.478944 0.483491 0.110040
v 0.394291 0.413537 -0.146470
v 0.284356 0.280766 -0.334963
v -0.037066 0.321560 -0.152285
v 0.036862 0.411528 0.002806
v 0.163211 0.479080 0.253909
v -0.150772 0.350959 -0.087661
v -0.059022 0.410990 0.042850
v 0.098875 0.478182 0.283225
v -0.262550 0.371739 -0.024133
v -0.186175 0.410275 0.095954
v -0.019514 0.476528 0.337171
v -0.359724 0.383605 0.031095
v -0.299471 0.409638 0.143271
v -0.130967 0.474971 0.387956
v 0.215643 0.207506 -0.486334
v -0.429841 0.362229 -0.050477
v -0.317171 0.354097 -0.094960
v -0.198866 0.338971 -0.166851
v -0.091469 0.286889 -0.261308
vn -0.8791 0.3995 0.2597
vn -0.8947 0.3521 0.2747
vn -0.8930 0.3350 0.3004
vn -0.8724 0.4045 0.2744
vn 0.0917 0.4127 -0.9063
vn 0.1008 0.3935 -0.9138
vn 0.0822 0.4323 -0.8980
vn -0.9528 0.1517 0.2631
vn -0.9179 0.3052 0.2536
vn -0.9228 0.2692 0.2756
vn -0.9498 0.1352 0.2822
vn 0.9221 0.2735 0.2738
vn 0.9254 0.2849 0.2500
vn 0.9224 0.2744 0.2719
vn -0.0819 0.2848 0.9551
vn -0.0507 0.3237 0.9448
vn -0.1224 0.3861 0.9143
vn -0.1373 0.2686 0.9534
vn 0.3855 0.1205 0.9148
vn 0.3816 0.1060 0.9182
vn 0.3042 0.1392 0.9424
vn 0.2992 0.1559 0.9414
vn -0.8397 0.3687 -0.3987
vn -0.8717 0.3675 -0.3241
vn -0.8077 0.3677 -0.4609
vn 0.1007 0.2293 0.9681
vn 0.1247 0.2157 0.9685
vn -0.2494 0.3523 -0.9020
vn -0.1345 0.3805 -0.9150
vn -0.0306 0.2920 -0.9559
vn 0.3896 0.1165 0.9136
vn 0.3862 0.1001 0.9170
vn 0.8259 0.3498 -0.4421
vn 0.8215 0.3263 -0.4676
vn 0.8573 0.2790 -0.4326
vn 0.8956 0.2668 -0.3561
vn 0.0862 0.3531 -0.9316
vn 0.0752 0.4244 -0.9023
vn 0.0788 0.4017 -0.9124
vn -0.4050 -0.0635 -0.9121
vn -0.4096 -0.1312 -0.9028
vn -0.4008 -0.0184 -0.9160
vn -0.3961 0.1187 -0.9105
vn -0.3972 0.0619 -0.9156
vn -0.3968 0.0904 -0.9134
vn 0.8887 0.2409 0.3901
vn 0.9060 0.2524 0.3398
vn 0.9053 0.2519 0.3421
vn 0.3991 -0.0132 0.9168
vn 0.3958 0.0605 0.9163
vn 0.3220 0.0877 0.9427
vn 0.3228 0.0108 0.9464
vn -0.5420 0.3656 -0.7567
vn -0.4429 0.3466 -0.8268
vn -0.2657 0.3750 -0.8881
vn -0.3828 0.4178 -0.8240
vn 0.3993 -0.0167 0.9167
vn 0.3972 0.0468 0.9165
vn -0.6370 0.1685 -0.7522
vn -0.7049 0.2725 -0.6549
vn -0.6974 0.2600 -0.6678
vn 0.7981 0.3969 -0.4534
vn 0.7613 0.4457 -0.4709
vn 0.8725 0.3141 -0.3743
vn 0.8946 0.2732 -0.3536
vn -0.7098 0.2033 0.6744
vn -0.6991 0.3057 0.6464
vn -0.8351 0.3098 0.4546
vn -0.8633 0.1920 0.4667
vn -0.1609 0.1596 0.9740
vn -0.1197 0.1858 0.9753
vn -0.1821 0.1761 0.9674
vn -0.2067 0.1638 0.9646
vn 0.9375 0.2391 -0.2528
vn 0.9478 0.2271 -0.2239
vn 0.0952 0.1514 0.9839
vn 0.0560 0.1022 0.9932
vn -0.6846 0.2308 -0.6915
vn -0.6816 0.3070 -0.6642
vn -0.5943 0.2883 -0.7508
vn -0.5945 0.2580 -0.7616
vn -0.6653 0.4276 0.6120
vn -0.6492 0.4604 0.6055
vn -0.7648 0.4314 0.4785
vn -0.7950 0.4203 0.4375
vn -0.6820 0.3852 -0.6217
vn -0.6907 0.3932 -0.6069
vn -0.6032 0.3753 -0.7038
vn -0.5988 0.3500 -0.7204
vn -0.7624 0.4363 -0.4779
vn -0.7874 0.4195 -0.4517
vn -0.0649 0.9951 -0.0741
vn -0.0626 0.9901 -0.1260
vn -0.1006 0.9947 0.0207
vn 0.7023 0.5156 -0.4908
vn 0.7002 0.4964 -0.5131
vn 0.7269 0.4410 -0.5264
vn 0.7236 0.4700 -0.5055
vn 0.1057 0.8811 -0.4611
vn 0.3267 0.9328 -0.1522
vn 0.2474 0.9435 -0.2203
vn 0.1050 0.8756 -0.4715
vn -0.1111 0.8780 0.4655
vn -0.2125 0.9261 0.3118
vn -0.2284 0.9263 0.2996
vn -0.1319 0.8646 0.4849
vn -0.4409 0.8863 -0.1417
vn -0.4909 0.7748 -0.3983
vn -0.4884 0.7723 -0.4062
vn -0.4832 0.8211 -0.3040
vn 0.2993 0.7622 -0.5740
vn 0.1815 0.7870 -0.5896
vn 0.2173 0.7808 -0.5858
vn -0.4098 0.9079 0.0879
vn -0.4307 0.9017 0.0383
vn 0.1385 0.8971 0.4195
vn 0.1143 0.8948 0.4317
vn 0.1163 0.8950 0.4307
vn -0.4027 0.7910 -0.4606
vn -0.3008 0.7596 -0.5767
vn -0.2622 0.7436 -0.6150
vn 0.0596 0.8889 0.4542
vn 0.0641 0.8894 0.4527
vn -0.2232 0.7236 -0.6531
vn -0.0328 0.6747 -0.7374
vn -0.2896 0.7332 -0.6153
vn -0.0495 0.7136 -0.6988
vn 0.0019 0.7183 -0.6958
vn 0.4633 0.8859 -0.0222
vn -0.0850 0.8606 0.5021
vn -0.0628 0.8664 0.4954
vn -0.4486 0.8933 -0.0274
vn -0.4459 0.8948 -0.0233
vn 0.1077 0.7218 -0.6836
vn 0.7303 0.5078 -0.4570
vn -0.7779 0.3273 -0.5365
vn -0.4070 0.8974 -0.1704
vn -0.7994 0.1967 -0.5677
vn -0.8318 0.1920 -0.5209
vn -0.8002 0.3345 -0.4978
vn -0.7729 0.4528 -0.4444
vn -0.7943 0.4314 -0.4278
vn 0.3165 0.0865 -0.9447
vn 0.2569 0.1487 -0.9549
vn 0.0398 0.3067 -0.9510
vn 0.3115 0.1116 -0.9437
vn -0.1673 0.4636 -0.8701
vn -0.6922 0.5072 -0.5134
vn -0.8201 0.4814 -0.3093
vn -0.7654 0.4972 -0.4085
vn -0.8413 0.5405 0.0043
vn -0.8701 0.4506 -0.1995
vn -0.8694 0.4539 -0.1955
vn -0.8707 0.4481 -0.2027
vn 0.3126 0.2855 -0.9060
vn 0.3191 0.4213 -0.8489
vn 0.3182 0.3906 -0.8638
vn 0.1966 0.7359 -0.6479
vn 0.3369 0.5541 -0.7612
vn 0.3582 0.5560 -0.7500
vn 0.3385 0.5543 -0.7604
vn 0.7559 0.4895 -0.4349
vn -0.1477 0.9223 -0.3571
vn -0.1077 0.9718 -0.2099
vn -0.1098 0.9692 -0.2203
vn -0.1517 0.9182 -0.3660
vn -0.1198 0.8856 -0.4487
vn -0.1118 0.8676 -0.4845
vn 0.0781 0.9287 -0.3625
vn 0.0877 0.9330 -0.3490
vn -0.0131 0.9091 -0.4165
vn 0.0308 0.9150 -0.4023
vn -0.0466 0.9191 -0.3913
vn -0.1190 0.9356 -0.3325
vn -0.1069 0.9760 -0.1899
vn -0.1080 0.9758 -0.1902
vn 0.0249 0.9993 -0.0269
vn 0.0242 0.9910 -0.1320
vn 0.1269 0.9660 -0.2253
vn 0.1861 0.9613 -0.2031
vn -0.0911 0.9516 -0.2936
vn -0.0988 0.9794 -0.1759
vn -0.0021 0.9484 -0.3170
vn -0.0009 0.8844 -0.4667
vn -0.1113 0.9797 -0.1669
vn -0.0837 0.9669 -0.2412
vn -0.1027 0.9862 -0.1301
vn -0.0317 0.9678 -0.2497
vn -0.1036 0.9844 -0.1425
vn -0.0641 0.9902 -0.1244
vn -0.0554 0.9964 -0.0640
vn -0.1029 0.9840 -0.1453
vn -0.0894 0.9743 -0.2069
vn -0.0732 0.9754 -0.2080
vn -0.0985 0.9907 -0.0943
vn -0.1118 0.9776 -0.1784
vn -0.1039 0.9748 -0.1974
vt 0.398423 0.119289
vt 0.386004 0.310041
vt 0.347334 0.290367
vt 0.445819 0.133173
vt 0.423117 0.316071
vt 0.330435 0.224808
vt 0.496405 0.224549
vt 0.493995 0.242384
vt 0.332256 0.236258
vt 0.382988 0.118907
vt 0.325012 0.172869
vt 0.496405 0.178484
vt 0.399488 0.130680
vt 0.386240 0.299001
vt 0.356656 0.284187
vt 0.423271 0.306747
vt 0.441944 0.141480
vt 0.490491 0.225568
vt 0.340520 0.222213
vt 0.487267 0.241168
vt 0.342158 0.232480
vt 0.335238 0.173271
vt 0.381330 0.129656
vt 0.491545 0.182409
vt 0.492457 0.258534
vt 0.488983 0.277075
vt 0.341463 0.273227
vt 0.336678 0.257001
vt 0.481373 0.275189
vt 0.484812 0.258679
vt 0.346195 0.251720
vt 0.350785 0.266765
vt 0.467174 0.143358
vt 0.439757 0.315747
vt 0.464358 0.150493
vt 0.438878 0.306918
vt 0.402866 0.172361
vt 0.403455 0.169430
vt 0.392825 0.252236
vt 0.389829 0.255073
vt 0.390513 0.255540
vt 0.426977 0.172431
vt 0.426760 0.175722
vt 0.422197 0.269875
vt 0.422132 0.273525
vt 0.382442 0.212660
vt 0.379589 0.212409
vt 0.474529 0.221783
vt 0.479357 0.223600
vt 0.382262 0.217727
vt 0.379539 0.217555
vt 0.457659 0.236657
vt 0.455803 0.236668
vt 0.486102 0.187745
vt 0.482343 0.188950
vt 0.379896 0.180151
vt 0.380536 0.178972
vt 0.382908 0.180971
vt 0.383806 0.229677
vt 0.381102 0.229636
vt 0.383253 0.241962
vt 0.385972 0.241789
vt 0.454346 0.262294
vt 0.457070 0.263290
vt 0.459011 0.252706
vt 0.456207 0.251862
vt 0.432948 0.275086
vt 0.432976 0.271245
vt 0.453490 0.169019
vt 0.452661 0.173151
vt 0.458042 0.161397
vt 0.488043 0.185700
vt 0.402110 0.153494
vt 0.360398 0.176999
vt 0.378616 0.157036
vt 0.433364 0.159853
vt 0.435883 0.287715
vt 0.467021 0.268468
vt 0.386849 0.275843
vt 0.375289 0.269485
vt 0.422767 0.286742
vt 0.369616 0.254477
vt 0.362999 0.216314
vt 0.363773 0.223723
vt 0.471651 0.238264
vt 0.483411 0.224637
vt 0.366715 0.239267
vt 0.469552 0.256061
vt 0.459170 0.315101
vt 0.483727 0.294064
vt 0.485364 0.289323
vt 0.457621 0.306781
vt 0.475667 0.291364
vt 0.477505 0.286833
vt 0.445290 0.272271
vt 0.451174 0.272014
vt 0.447030 0.276270
vt 0.447871 0.275860
vt 0.451976 0.288476
vt 0.459305 0.281984
vt 0.462006 0.277850
vt 0.457577 0.238771
vt 0.493051 0.254495
vt 0.485503 0.252678
vt 0.470395 0.246844
vt 0.493006 0.248066
vt 0.460255 0.238413
vt 0.483428 0.245315
vt 0.468687 0.240833
vt 0.493992 0.167028
vt 0.491463 0.158383
vt 0.486238 0.153200
vt 0.489293 0.168473
vt 0.487622 0.163322
vt 0.484814 0.159762
vt 0.476081 0.172183
vt 0.479002 0.167630
vt 0.479952 0.168515
vt 0.482847 0.171417
vt 0.481087 0.164596
vt 0.482794 0.166428
vt 0.485072 0.169701
vt 0.400901 0.182710
vt 0.426604 0.182460
vt 0.450498 0.185190
vt 0.443601 0.220195
vt 0.425115 0.218658
vt 0.397801 0.214889
vt 0.440708 0.232874
vt 0.424611 0.228663
vt 0.397094 0.221586
vt 0.437786 0.245227
vt 0.423824 0.242011
vt 0.395401 0.234098
vt 0.435605 0.255917
vt 0.423167 0.253971
vt 0.393606 0.246300
vt 0.467861 0.186448
vt 0.445572 0.259608
vt 0.446025 0.248056
vt 0.449775 0.235034
vt 0.455528 0.221332
s 1
usemtl lighter_grey
f 70/77/1 61/67/2 87/97/3 88/99/4
f 66/72/5 49/54/6 104/119/6 106/122/7
f 30/34/8 32/36/9 83/92/10 81/89/11
f 67/73/12 34/38/13 51/57/13 68/75/14
f 74/82/15 55/61/16 36/40/17 72/80/18
f 75/83/19 42/47/20 46/51/21 76/84/22
f 77/85/23 47/52/24 44/49/24 78/86/25
f 79/87/26 54/60/27 55/61/16 74/82/15
f 80/88/28 59/65/29 90/102/29 93/105/30
f 76/84/22 46/51/21 54/60/27 79/87/26
f 68/74/31 51/56/32 42/47/20 75/83/19
f 69/76/33 37/42/34 34/38/35 67/73/36
f 10/12/37 20/24/38 100/113/39 98/110/37
f 78/86/40 44/49/41 49/54/41 66/72/42
f 6/7/43 15/18/44 20/24/45 10/12/43
f 1/1/46 11/13/47 19/23/48 9/10/46
f 5/6/49 16/19/50 18/21/51 8/9/52
f 21/25/53 26/30/54 92/104/55 91/103/56
f 9/11/57 19/22/58 16/19/50 5/6/49
f 7/8/59 17/20/60 15/18/61 6/7/59
f 29/33/62 31/35/63 14/17/64 3/4/65
f 2/2/66 12/14/67 13/16/68 4/5/69
f 20/24/38 66/72/5 106/122/7 100/113/39
f 32/36/9 70/77/1 88/99/4 83/92/10
f 23/27/70 28/32/71 12/15/72 2/3/73
f 3/4/65 14/17/64 11/13/74 1/1/75
f 8/9/52 18/21/51 27/31/76 24/28/77
f 24/28/77 27/31/76 28/32/71 23/27/70
f 22/26/78 25/29/79 26/30/80 21/25/81
f 72/79/82 36/41/83 40/45/84 73/81/85
f 71/78/86 58/64/87 59/65/88 80/88/89
f 89/101/90 86/96/91 58/64/87 71/78/86
f 121/137/92 35/39/93 56/62/94
f 73/81/85 40/45/84 61/67/2 70/77/1
f 4/5/69 13/16/68 32/36/9 30/34/8
f 105/120/95 103/117/96 63/69/97 65/71/98
f 65/71/98 63/69/97 37/42/34 69/76/33
f 38/43/99 33/37/100 34/38/101 37/42/102
f 56/62/103 35/39/104 36/40/105 55/61/106
f 85/95/107 57/63/108 58/64/109 86/96/110
f 102/116/111 64/70/112 63/69/113 103/117/111
f 64/70/112 38/43/99 37/42/102 63/69/113
f 35/39/104 39/44/114 40/45/115 36/41/105
f 52/58/116 41/46/117 42/47/118 51/56/116
f 48/53/119 43/48/120 44/49/121 47/52/119
f 41/46/117 45/50/122 46/51/123 42/47/118
f 60/66/124 48/53/125 90/102/125 59/65/126
f 43/48/120 50/55/127 49/54/128 44/49/121
f 33/37/100 52/58/129 51/57/129 34/38/101
f 45/50/122 53/59/130 54/60/131 46/51/123
f 53/59/130 56/62/103 55/61/106 54/60/131
f 57/63/108 60/66/124 59/65/126 58/64/109
f 39/44/114 62/68/132 61/67/133 40/45/115
f 50/55/127 102/116/134 104/119/134 49/54/128
f 31/35/63 65/71/98 69/76/33 14/17/64
f 101/115/135 105/120/95 65/71/98 31/35/63
f 13/16/68 73/81/85 70/77/1 32/36/9
f 84/94/136 89/101/90 71/78/86 25/29/79
f 25/29/79 71/78/86 80/88/89 26/30/80
f 12/14/67 72/79/82 73/81/85 13/16/68
f 15/18/44 78/86/40 66/72/42 20/24/45
f 14/17/64 69/76/33 67/73/36 11/13/74
f 19/22/58 68/74/31 75/83/19 16/19/50
f 18/21/51 76/84/22 79/87/26 27/31/76
f 26/30/54 80/88/28 93/105/30 92/104/55
f 27/31/76 79/87/26 74/82/15 28/32/71
f 17/20/60 77/85/23 78/86/25 15/18/61
f 16/19/50 75/83/19 76/84/22 18/21/51
f 28/32/71 74/82/15 72/80/18 12/15/72
f 11/13/47 67/73/12 68/75/14 19/23/48
f 62/68/132 85/95/107 87/97/137 61/67/133
f 84/94/136 82/91/138 81/90/139 83/93/140
f 85/95/107 86/96/110 87/98/137
f 89/101/90 84/94/136 83/93/140 88/100/141
f 86/96/91 89/101/90 88/100/141 87/98/142
f 82/91/138 84/94/136 25/29/79 22/26/78
f 90/102/143 48/53/143 95/107/143
f 92/104/55 93/105/30 97/109/144 96/108/145
f 93/105/30 90/102/146 95/107/146 97/109/144
f 91/103/56 92/104/55 96/108/145 94/106/147
f 94/106/148 96/108/149 17/20/150 7/8/148
f 95/107/151 48/53/151 47/52/151
f 96/108/149 97/109/152 77/85/153 17/20/150
f 97/109/152 95/107/154 47/52/154 77/85/153
f 98/110/155 100/113/156 101/114/157 99/111/155
f 102/116/158 103/118/158 104/119/158
f 106/122/159 104/119/160 103/118/160 105/121/161
f 100/113/156 106/122/159 105/121/161 101/114/157
f 99/112/162 101/115/135 31/35/63 29/33/62
f 108/124/163 107/123/164 33/37/165 38/43/166
f 109/125/167 108/124/163 38/43/166 64/70/168
f 43/48/169 126/142/170 122/138/171 50/55/172
f 110/126/173 111/127/174 108/124/163 109/125/167
f 111/127/174 112/128/175 107/123/164 108/124/163
f 33/37/165 107/123/164 52/58/176
f 60/66/177 124/140/178 125/141/179 48/53/180
f 114/130/181 115/131/182 112/128/175 111/127/174
f 113/129/183 114/130/181 111/127/174 110/126/173
f 50/55/172 122/138/171 102/116/184
f 107/123/164 112/128/175 41/46/185 52/58/176
f 117/133/186 118/134/187 115/131/182 114/130/181
f 116/132/188 117/133/186 114/130/181 113/129/183
f 85/95/189 123/139/190 57/63/191
f 112/128/175 115/131/182 45/50/192 41/46/185
f 120/136/193 121/137/92 118/134/187 117/133/186
f 119/135/194 120/136/193 117/133/186 116/132/188
f 115/131/182 118/134/187 53/59/195 45/50/192
f 123/139/190 85/95/189 62/68/196 119/135/194
f 123/139/190 124/140/178 60/66/177 57/63/191
f 39/44/197 35/39/93 121/137/92 120/136/193
f 118/134/187 121/137/92 56/62/94 53/59/195
f 126/142/170 125/141/179 113/129/183 110/126/173
f 122/138/171 126/142/170 110/126/173 109/125/167
f 125/141/179 124/140/178 116/132/188 113/129/183
f 124/140/178 123/139/190 119/135/194 116/132/188
f 102/116/184 122/138/171 109/125/167 64/70/168
f 62/68/196 39/44/197 120/136/193 119/135/194
f 48/53/180 125/141/179 126/142/170 43/48/169
