# Blender 3.3.0
# www.blender.org
mtllib MESH_FloorpPanelLarge.mtl
o FloorPanelLarge
v -0.503003 0.000000 -1.522299
v 0.496997 0.000000 -1.522299
v 1.496997 0.000000 0.477701
v 1.496997 0.000000 -0.522299
v -0.503003 0.166667 -0.522299
v 0.496997 0.166667 -0.522299
v -0.503003 0.166667 0.477701
v 0.496997 0.166667 0.477701
v -0.503003 0.000000 1.477701
v 0.496997 0.000000 1.477701
v -1.503003 0.000000 0.477701
v -1.503003 0.000000 -0.522299
v 1.399252 0.119204 -1.335726
v 1.340579 0.120612 -1.430439
v 0.975316 0.000000 -1.522299
v 1.496997 0.000000 -0.639474
v -1.403288 0.194661 1.379847
v 1.211527 0.172569 1.200971
v -1.403288 0.166667 -1.424815
v -0.503003 0.117895 1.477701
v -0.503003 0.154184 1.372241
v 0.496997 0.179040 1.217734
v 0.496997 0.148628 1.477701
v -1.124517 0.166667 0.477701
v -1.503003 0.079055 0.477701
v -1.503003 0.120807 -0.522299
v -1.175017 0.150667 -0.522299
v -0.503003 0.166667 -1.424830
v -0.503003 0.141132 -1.479203
v 0.496997 0.166667 -1.332167
v 0.496997 0.060475 -1.522299
v 1.496997 0.120489 0.477701
v 1.087304 0.166667 0.477701
v 1.496997 0.120385 -0.522299
v 1.398831 0.166667 -0.522299
v 1.068651 0.166667 -1.455625
v 1.003211 0.121018 -1.522299
v 1.496997 0.120250 -0.658388
v 1.399119 0.166667 -0.839184
v -1.426215 0.000000 1.477701
v -1.503003 0.000000 1.402347
v 1.420632 0.000000 -1.522299
v 1.496997 0.000000 -1.447360
v 1.496997 0.000000 1.402761
v 1.420632 0.000000 1.477701
v -1.503003 0.000000 -1.447360
v -1.426638 0.000000 -1.522299
v -1.474297 0.158752 1.372835
v -1.395975 0.159508 1.449582
v -1.427840 0.183350 1.403941
v 1.420632 0.148569 1.477701
v 1.496997 0.148558 1.402761
v 1.453371 0.169005 1.434309
v -1.426711 0.122396 -1.519011
v -1.503003 0.120845 -1.447360
v -1.458836 0.141142 -1.479121
v 1.496997 0.044713 -1.447360
v 1.420632 0.050449 -1.522299
vn 0.0195 0.1733 -0.9847
vn 0.0041 0.1905 -0.9817
vn 0.0034 0.1913 -0.9815
vn -0.2634 0.9601 -0.0938
vn -0.2093 0.9773 -0.0330
vn -0.2111 0.9768 -0.0351
vn 1.0000 -0.0000 -0.0000
vn -0.0064 0.1060 -0.9943
vn -0.0063 0.1036 -0.9946
vn -0.0000 -0.0000 -1.0000
vn -0.0000 -0.0000 1.0000
vn -1.0000 -0.0000 -0.0000
vn -0.0052 1.0000 0.0052
vn -0.0056 1.0000 0.0006
vn -0.0000 1.0000 -0.0000
vn 0.0004 1.0000 -0.0030
vn -0.0019 1.0000 -0.0032
vn -0.9981 0.0608 0.0052
vn -0.9980 0.0626 0.0054
vn 0.0085 0.9999 -0.0060
vn 0.0266 0.9996 -0.0045
vn 0.0081 1.0000 -0.0023
vn -0.0043 1.0000 -0.0061
vn -0.0102 0.9999 0.0101
vn -0.0112 0.9999 0.0020
vn 0.3949 0.8758 -0.2775
vn 0.5443 0.8351 -0.0798
vn 0.5176 0.8535 -0.0609
vn 0.4546 0.8905 -0.0179
vn 0.0023 1.0000 -0.0062
vn -0.0066 0.0518 0.9986
vn -0.0066 0.0513 0.9987
vn 0.0048 0.9999 -0.0129
vn 0.1747 0.9802 -0.0936
vn 0.0545 0.9979 0.0350
vn 0.1136 0.9929 -0.0360
vn 0.1461 0.9893 -0.0044
vn 0.1444 0.9895 -0.0061
vn 0.0564 0.9979 0.0328
vn 0.0475 0.8391 -0.5419
vn 0.1570 0.8043 -0.5731
vn -0.0117 0.8529 -0.5219
vn -0.0093 0.9898 0.1424
vn -0.0052 0.9944 0.1059
vn -0.0090 0.9901 0.1399
vn 0.0100 0.9626 0.2708
vn 0.0095 0.9631 0.2691
vn 0.0380 0.9255 0.3769
vn -0.1706 0.9851 0.0229
vn -0.1712 0.9850 0.0235
vn -0.1786 0.9835 0.0302
vn 0.0235 0.8929 -0.4497
vn -0.0259 0.8762 -0.4812
vn -0.0270 0.8761 -0.4813
vn 0.0237 0.8928 -0.4499
vn -0.0000 0.9051 -0.4252
vn 0.2933 0.9559 0.0154
vn 0.2856 0.9582 0.0163
vn -0.9926 0.1211 0.0104
vn -0.6692 0.2984 0.6805
vn -0.6690 0.2995 0.6802
vn -0.6460 0.3913 0.6554
vn 0.6955 0.1182 0.7087
vn 0.6954 0.1190 0.7087
vn 0.6518 0.3660 0.6642
vn -0.6865 0.1189 -0.7174
vn -0.6872 0.1107 -0.7180
vn -0.6471 0.3415 -0.6816
vn -0.6784 0.2507 0.6906
vn 0.7004 -0.0000 0.7137
vn -0.6927 0.0095 -0.7212
vn 0.7004 -0.0000 -0.7137
vn -0.0131 0.1022 0.9947
vn -0.0000 -1.0000 -0.0000
vt 0.413979 0.109081
vt 0.717272 0.388060
vt 0.322157 0.111202
vt 0.625421 0.388060
vt 0.200189 0.311953
vt 0.533570 0.200864
vt 0.206785 0.218727
vt 0.533570 0.294462
vt 0.413768 0.228196
vt 0.322472 0.226149
vt 0.411703 0.323381
vt 0.318149 0.319300
vt 0.405131 0.446676
vt 0.717272 0.107266
vt 0.312645 0.443626
vt 0.625421 0.107266
vt 0.527623 0.324501
vt 0.809122 0.200864
vt 0.530706 0.229222
vt 0.809122 0.294462
vt 0.243654 0.149975
vt 0.247599 0.140576
vt 0.249869 0.142121
vt 0.278400 0.111546
vt 0.581487 0.388060
vt 0.207957 0.207733
vt 0.533570 0.305429
vt 0.492185 0.412925
vt 0.248407 0.384976
vt 0.496212 0.143864
vt 0.406635 0.422725
vt 0.407493 0.410194
vt 0.314862 0.389010
vt 0.313589 0.413952
vt 0.470911 0.325105
vt 0.511388 0.324786
vt 0.506679 0.228390
vt 0.475910 0.228722
vt 0.414648 0.144260
vt 0.414611 0.137181
vt 0.323045 0.151125
vt 0.322343 0.123274
vt 0.224326 0.314028
vt 0.263435 0.316699
vt 0.230539 0.221188
vt 0.243094 0.222226
vt 0.273399 0.144257
vt 0.277786 0.134125
vt 0.231742 0.208849
vt 0.245654 0.194226
vt 0.533332 0.421752
vt 0.490280 0.454551
vt 0.802069 0.107266
vt 0.533445 0.411880
vt 0.809122 0.114319
vt 0.239548 0.117752
vt 0.223750 0.128141
vt 0.540584 0.388060
vt 0.220609 0.137334
vt 0.533570 0.381046
vt 0.190878 0.398497
vt 0.217857 0.440478
vt 0.533570 0.114280
vt 0.227780 0.440808
vt 0.540584 0.107266
vt 0.533445 0.142877
vt 0.507575 0.107266
vt 0.809122 0.381046
vt 0.497776 0.107379
vt 0.802108 0.388060
vt 0.501859 0.411429
vt 0.501594 0.421489
vt 0.490588 0.422427
vt 0.495581 0.414918
vt 0.494131 0.416327
vt 0.496849 0.416396
vt 0.228765 0.411143
vt 0.220245 0.401752
vt 0.218842 0.410815
vt 0.225108 0.405859
vt 0.223903 0.406829
vt 0.498273 0.131512
vt 0.509258 0.142129
vt 0.507851 0.131094
vt 0.503594 0.138978
vt 0.501218 0.136722
vt 0.502974 0.135209
vt 0.228546 0.139520
vt 0.241076 0.127317
vt 0.233035 0.131617
s 1
usemtl Floor_Panels
f 54/82/1 29/40/2 1/1/3 47/69/1
f 17/28/4 24/35/5 25/36/6 48/71/4 50/74/4
f 38/49/7 16/26/7 43/59/7 57/88/7
f 2/3/8 31/42/9 37/48/10 15/24/10
f 52/78/7 44/61/7 3/5/7 32/43/7
f 34/45/7 4/7/7 16/26/7 38/49/7
f 23/34/11 10/15/11 45/64/11 51/77/11
f 32/43/7 3/5/7 4/7/7 34/45/7
f 12/19/12 26/37/12 55/83/12 46/66/12
f 1/1/3 29/40/2 31/42/9 2/3/8
f 28/39/13 5/9/14 6/10/15 30/41/15
f 5/9/14 7/11/16 8/12/17 6/10/15
f 15/24/10 37/48/10 58/89/10 42/56/10
f 11/17/18 25/36/19 26/37/12 12/19/12
f 24/35/20 17/28/21 21/32/22 7/11/16
f 7/11/16 21/32/22 22/33/23 8/12/17
f 19/30/24 27/38/25 5/9/14 28/39/13
f 14/22/26 13/21/26 57/88/26 58/90/26
f 57/88/27 13/21/27 39/50/28 38/49/29
f 27/38/25 24/35/20 7/11/16 5/9/14
f 30/41/15 6/10/15 35/46/15 39/50/15 36/47/15
f 6/10/15 8/12/17 33/44/30 35/46/15
f 20/31/31 9/13/32 10/15/11 23/34/11
f 8/12/17 22/33/23 18/29/33 33/44/30
f 39/50/34 13/21/34 14/23/34 36/47/34
f 53/80/35 52/78/36 32/43/37 33/44/38 18/29/39
f 36/47/40 14/23/41 58/89/41 37/48/42
f 23/34/43 51/77/44 53/80/35 18/29/39 22/33/45
f 20/31/46 23/34/43 22/33/45 21/32/47
f 50/75/48 49/73/48 20/31/46 21/32/47 17/28/48
f 24/35/5 27/38/49 26/37/50 25/36/6
f 27/38/49 19/30/51 56/85/51 55/83/51 26/37/50
f 28/39/52 30/41/53 31/42/54 29/40/55
f 19/30/56 28/39/52 29/40/55 54/82/56 56/86/56
f 32/43/37 34/45/57 35/46/58 33/44/38
f 30/41/53 36/47/40 37/48/42 31/42/54
f 34/45/57 38/49/29 39/50/28 35/46/58
f 48/71/59 25/36/19 11/17/18 41/54/59
f 48/71/60 49/72/61 50/76/62
f 51/77/63 52/79/64 53/81/65
f 54/82/66 55/84/67 56/87/68
f 48/71/60 41/54/69 40/51/69 49/72/61
f 44/62/70 52/79/64 51/77/63 45/64/70
f 54/82/66 47/69/71 46/67/71 55/84/67
f 57/88/72 43/59/72 42/57/72 58/90/72
f 49/73/73 40/52/73 9/13/32 20/31/31
f 2/4/74 15/25/74 42/58/74 43/60/74 16/27/74 4/8/74 3/6/74 44/63/74 45/65/74 10/16/74 9/14/74 40/53/74 41/55/74 11/18/74 12/20/74 46/68/74 47/70/74 1/2/74
