# Blender 3.3.0
# www.blender.org
mtllib MESH_Stone4_01.mtl
o Cube.041
v 0.091038 -0.000000 0.409739
v -0.359100 0.000000 -0.068643
v 0.288894 -0.000000 0.249894
v -0.286372 0.000000 -0.252810
v -0.193234 -0.000000 0.223391
v 0.193234 -0.000000 -0.223391
v 0.104249 -0.000000 -0.268592
v -0.238040 -0.000000 0.184633
v 0.014788 -0.000000 0.403329
v 0.401255 -0.000000 -0.043452
v 0.098307 0.053094 0.387449
v -0.349434 0.054852 -0.055915
v -0.280574 0.048698 -0.245776
v 0.278931 0.046083 0.244655
v 0.184434 0.034104 -0.226170
v -0.189033 0.053973 0.227865
v 0.098815 0.035910 -0.259089
v -0.230636 0.054161 0.191675
v 0.008211 0.053340 0.399164
v 0.382702 0.028027 -0.054569
v 0.034127 -0.000000 -0.315197
v -0.054530 0.000000 -0.356798
v -0.340177 0.000000 0.021943
v -0.309204 -0.000000 0.102571
v -0.057134 0.040333 -0.348630
v 0.022914 0.037881 -0.306918
v -0.297879 0.054391 0.112757
v -0.324923 0.054621 0.035263
v 0.361136 -0.000000 0.153869
v -0.219338 0.000000 -0.307631
v 0.350589 0.035874 0.141787
v -0.217244 0.045621 -0.300120
v 0.109487 0.267652 0.306795
v 0.122241 0.261257 0.318489
v -0.248833 0.261711 0.006593
v -0.269431 0.254578 0.005466
v 0.212169 0.225739 0.201739
v 0.197187 0.228425 0.188651
v -0.211725 0.225582 -0.176783
v -0.226163 0.216531 -0.189251
v -0.142165 0.282215 0.212658
v -0.150797 0.275057 0.224649
v 0.180690 0.124832 -0.200556
v 0.186443 0.104429 -0.228203
v -0.164276 0.279445 0.192666
v -0.173347 0.272258 0.204153
v 0.058128 0.181175 -0.174001
v 0.054367 0.188158 -0.167195
v 0.361254 0.061614 -0.074627
v 0.345913 0.078587 -0.070786
v -0.016986 0.282018 0.343717
v -0.010602 0.289082 0.329642
v -0.207622 0.274780 0.133533
v -0.217662 0.267534 0.144105
v -0.248792 0.251551 0.080804
v -0.239100 0.258964 0.072271
v -0.055547 0.191974 -0.275108
v -0.051362 0.180038 -0.286917
v 0.009201 0.186178 -0.255659
v 0.003365 0.198477 -0.242970
v -0.186096 0.201132 -0.233972
v -0.172272 0.209625 -0.221258
v 0.303734 0.135484 0.115289
v 0.290503 0.147407 0.100884
v 0.322735 0.093270 0.126163
v 0.368633 0.049158 -0.065494
v 0.115675 0.170090 0.353139
v -0.005713 0.181618 0.366102
v 0.240551 0.147443 0.219395
v -0.194945 0.136679 -0.258598
v -0.053638 0.119754 -0.312853
v -0.319245 0.167198 -0.022288
v -0.245001 0.146515 -0.209990
v -0.292117 0.165431 0.056574
v -0.166908 0.178070 0.224539
v -0.197787 0.176615 0.197193
v 0.077567 0.115203 -0.214110
v 0.184434 0.078396 -0.226170
v -0.251897 0.174119 0.129107
v 0.014362 0.122149 -0.283485
v -0.144357 0.000000 -0.374352
v -0.118750 0.000000 -0.371489
v -0.145841 0.042924 -0.366128
v -0.120487 0.041985 -0.363361
v -0.129883 0.197742 -0.269653
v -0.111297 0.184096 -0.290224
v -0.137534 0.188283 -0.288743
v -0.136536 0.128246 -0.318179
v -0.110993 0.124803 -0.317855
v 0.053120 0.182041 -0.181656
v 0.053806 -0.000000 -0.306891
v 0.050685 0.037160 -0.289418
v 0.052287 0.117981 -0.241858
v 0.078412 -0.000000 -0.284594
v 0.054357 0.166440 -0.182692
v 0.068158 0.042021 -0.250422
v 0.057048 0.121966 -0.204153
v 0.420632 -0.000000 0.017651
v 0.426784 -0.000000 0.066607
v 0.413377 0.026195 0.017950
v 0.416106 0.026540 0.047736
v 0.367614 0.083851 0.027927
v 0.387953 0.066593 0.036885
v 0.392341 0.059723 0.016119
v 0.398067 0.051175 0.041447
v 0.400913 0.047211 0.020243
v 0.059192 0.266818 0.264657
v 0.166764 0.228214 0.161462
v 0.234453 0.154943 0.061867
v 0.067002 0.177456 -0.054697
v 0.007376 0.227105 0.019021
v -0.087581 0.264385 0.141691
v 0.007765 0.193680 -0.095933
v -0.035382 0.226808 -0.019190
v -0.117489 0.263889 0.116634
v -0.050467 0.205147 -0.136469
v -0.092083 0.226414 -0.069862
v -0.172524 0.262976 0.070525
v -0.101091 0.211696 -0.171709
v -0.142605 0.226062 -0.115012
v -0.224334 0.262117 0.027119
v 0.293469 0.114514 -0.008370
v -0.077163 0.199899 -0.226033
v -0.028201 0.195411 -0.180521
v 0.035749 0.187064 -0.138725
v 0.108339 0.158322 -0.107731
vn -0.6135 0.3995 -0.6812
vn -0.6337 0.3521 -0.6888
vn -0.6562 0.3350 -0.6762
vn -0.6238 0.4045 -0.6688
vn 0.8572 0.4127 -0.3081
vn 0.8679 0.3935 -0.3031
vn 0.8456 0.4323 -0.3131
vn -0.6483 0.1517 -0.7462
vn -0.6247 0.3052 -0.7188
vn -0.6466 0.2692 -0.7137
vn -0.6642 0.1352 -0.7352
vn 0.1506 0.2735 0.9500
vn 0.1735 0.2849 0.9427
vn 0.1525 0.2744 0.9494
vn -0.8970 0.2848 0.3380
vn -0.8743 0.3237 0.3617
vn -0.8777 0.3861 0.2839
vn -0.9194 0.2686 0.2873
vn -0.6591 0.1205 0.7423
vn -0.6639 0.1060 0.7403
vn -0.7191 0.1392 0.6808
vn -0.7203 0.1559 0.6759
vn -0.0024 0.3687 -0.9296
vn -0.0835 0.3675 -0.9263
vn 0.0675 0.3677 -0.9275
vn -0.8300 0.2293 0.5084
vn -0.8200 0.2157 0.5301
vn 0.7063 0.3523 -0.6140
vn 0.7675 0.3805 -0.5159
vn 0.8493 0.2920 -0.4399
vn -0.6562 0.1165 0.7455
vn -0.6608 0.1001 0.7439
vn 0.7551 0.3498 0.5545
vn 0.7762 0.3263 0.5396
vn 0.7600 0.2790 0.5870
vn 0.7075 0.2668 0.6545
vn 0.8777 0.3531 -0.3239
vn 0.8466 0.4244 -0.3212
vn 0.8572 0.4017 -0.3223
vn 0.6483 -0.0635 -0.7587
vn 0.6379 -0.1312 -0.7588
vn 0.6535 -0.0184 -0.7567
vn 0.6507 0.1187 -0.7500
vn 0.6548 0.0619 -0.7533
vn 0.6530 0.0904 -0.7519
vn 0.0313 0.2409 0.9700
vn 0.0841 0.2524 0.9640
vn 0.0817 0.2519 0.9643
vn -0.6550 -0.0132 0.7555
vn -0.6561 0.0605 0.7523
vn -0.7116 0.0877 0.6970
vn -0.7147 0.0108 0.6994
vn 0.4490 0.3656 -0.8153
vn 0.5550 0.3466 -0.7562
vn 0.6867 0.3750 -0.6227
vn 0.5784 0.4178 -0.7007
vn -0.6549 -0.0167 0.7556
vn -0.6556 0.0468 0.7536
vn 0.4040 0.1685 -0.8991
vn 0.2869 0.2725 -0.9184
vn 0.3018 0.2600 -0.9172
vn 0.7532 0.3969 0.5245
vn 0.7531 0.4457 0.4838
vn 0.7140 0.3141 0.6257
vn 0.7048 0.2732 0.6547
vn -0.9146 0.2033 -0.3496
vn -0.8847 0.3057 -0.3520
vn -0.7703 0.3098 -0.5574
vn -0.7934 0.1920 -0.5777
vn -0.9481 0.1596 0.2749
vn -0.9315 0.1858 0.3126
vn -0.9513 0.1761 0.2528
vn -0.9594 0.1638 0.2295
vn 0.6324 0.2391 0.7368
vn 0.6108 0.2271 0.7585
vn -0.8466 0.1514 0.5102
vn -0.8720 0.1022 0.4788
vn 0.3286 0.2308 -0.9158
vn 0.3054 0.3070 -0.9014
vn 0.4211 0.2883 -0.8600
vn 0.4308 0.2580 -0.8648
vn -0.8391 0.4276 -0.3363
vn -0.8262 0.4604 -0.3246
vn -0.7615 0.4314 -0.4837
vn -0.7375 0.4203 -0.5286
vn 0.2669 0.3852 -0.8834
vn 0.2498 0.3932 -0.8849
vn 0.3748 0.3753 -0.8477
vn 0.3917 0.3500 -0.8509
vn 0.1024 0.4363 -0.8939
vn 0.0680 0.4195 -0.9052
vn 0.0389 0.9951 -0.0905
vn 0.0867 0.9901 -0.1108
vn -0.0621 0.9947 -0.0818
vn 0.7457 0.5156 0.4220
vn 0.7649 0.4964 0.4105
vn 0.7884 0.4410 0.4288
vn 0.7681 0.4700 0.4349
vn 0.4615 0.8811 -0.1035
vn 0.2782 0.9328 0.2291
vn 0.3054 0.9435 0.1282
vn 0.4707 0.8756 -0.1086
vn -0.4679 0.8780 0.1005
vn -0.3730 0.9261 -0.0573
vn -0.3688 0.9263 -0.0768
vn -0.4944 0.8646 0.0901
vn -0.0622 0.8863 -0.4589
vn 0.1476 0.7748 -0.6147
vn 0.1559 0.7723 -0.6158
vn 0.0659 0.8211 -0.5670
vn 0.6469 0.7622 0.0225
vn 0.6102 0.7870 -0.0905
vn 0.6222 0.7808 -0.0566
vn -0.2560 0.9079 -0.3318
vn -0.2203 0.9017 -0.3721
vn -0.3188 0.8971 0.3058
vn -0.3402 0.8948 0.2893
vn -0.3384 0.8950 0.2907
vn 0.2419 0.7910 -0.5620
vn 0.3906 0.7596 -0.5201
vn 0.4418 0.7436 -0.5018
vn -0.3841 0.8889 0.2496
vn -0.3808 0.8894 0.2530
vn 0.4931 0.7236 -0.4830
vn 0.6512 0.6747 -0.3476
vn 0.4302 0.7332 -0.5266
vn 0.6091 0.7136 -0.3460
vn 0.6286 0.7183 -0.2983
vn 0.2199 0.8859 0.4084
vn -0.4896 0.8606 0.1399
vn -0.4741 0.8664 0.1570
vn -0.1688 0.8933 -0.4166
vn -0.1713 0.8948 -0.4124
vn 0.6632 0.7218 -0.1976
vn 0.7272 0.5078 0.4618
vn 0.1486 0.3273 -0.9332
vn -0.0218 0.8974 -0.4407
vn 0.1675 0.1967 -0.9661
vn 0.1113 0.1920 -0.9751
vn 0.1040 0.3345 -0.9366
vn 0.0677 0.4528 -0.8890
vn 0.0434 0.4314 -0.9011
vn 0.9888 0.0865 -0.1218
vn 0.9724 0.1487 -0.1800
vn 0.8751 0.3067 -0.3742
vn 0.9858 0.1116 -0.1259
vn 0.7129 0.4636 -0.5262
vn 0.1647 0.5072 -0.8459
vn -0.0746 0.4814 -0.8733
vn 0.0385 0.4972 -0.8668
vn -0.3667 0.5405 -0.7572
vn -0.1952 0.4506 -0.8711
vn -0.1986 0.4539 -0.8687
vn -0.1926 0.4481 -0.8730
vn 0.9522 0.2855 -0.1086
vn 0.9035 0.4213 -0.0781
vn 0.9166 0.3906 -0.0854
vn 0.6694 0.7359 -0.1020
vn 0.8321 0.5541 -0.0243
vn 0.8312 0.5560 -0.0003
vn 0.8320 0.5543 -0.0225
vn 0.7183 0.4895 0.4944
vn 0.2585 0.9223 -0.2873
vn 0.1429 0.9718 -0.1877
vn 0.1514 0.9692 -0.1941
vn 0.2648 0.9182 -0.2947
vn 0.3532 0.8856 -0.3016
vn 0.3889 0.8676 -0.3098
vn 0.3608 0.9287 -0.0858
vn 0.3527 0.9330 -0.0714
vn 0.3701 0.9091 -0.1915
vn 0.3762 0.9150 -0.1457
vn 0.3330 0.9191 -0.2108
vn 0.2487 0.9356 -0.2508
vn 0.1252 0.9760 -0.1783
vn 0.1251 0.9758 -0.1794
vn 0.0350 0.9993 0.0108
vn 0.1295 0.9910 -0.0351
vn 0.2580 0.9660 0.0174
vn 0.2635 0.9613 0.0803
vn 0.2256 0.9516 -0.2088
vn 0.1161 0.9794 -0.1650
vn 0.2851 0.9484 -0.1386
vn 0.4207 0.8844 -0.2021
vn 0.1026 0.9797 -0.1724
vn 0.1815 0.9669 -0.1795
vn 0.0730 0.9862 -0.1488
vn 0.2116 0.9678 -0.1363
vn 0.0839 0.9844 -0.1549
vn 0.0846 0.9902 -0.1114
vn 0.0339 0.9964 -0.0776
vn 0.0867 0.9840 -0.1555
vn 0.1481 0.9743 -0.1699
vn 0.1561 0.9754 -0.1557
vn 0.0426 0.9907 -0.1295
vn 0.1127 0.9776 -0.1777
vn 0.1333 0.9748 -0.1789
vt 0.332377 0.758841
vt 0.323113 0.740215
vt 0.431359 0.732544
vt 0.424656 0.754015
vt 0.329231 0.714668
vt 0.431359 0.712185
vt 0.391956 0.769840
vt 0.376062 0.679330
vt 0.386172 0.679608
vt 0.397775 0.767646
vt 0.337412 0.764851
vt 0.365235 0.778447
vt 0.347356 0.683831
vt 0.349727 0.681837
vt 0.329071 0.739554
vt 0.336417 0.754476
vt 0.425438 0.733378
vt 0.420429 0.749753
vt 0.426361 0.712907
vt 0.333841 0.716366
vt 0.376999 0.682633
vt 0.389490 0.764818
vt 0.385934 0.683415
vt 0.394722 0.762841
vt 0.364314 0.773023
vt 0.342065 0.761876
vt 0.350532 0.685678
vt 0.352025 0.684350
vt 0.395120 0.679387
vt 0.405457 0.679986
vt 0.416247 0.758895
vt 0.408212 0.763116
vt 0.404969 0.684259
vt 0.395728 0.683551
vt 0.404426 0.758664
vt 0.411868 0.754665
vt 0.333311 0.702771
vt 0.429757 0.703320
vt 0.337289 0.703778
vt 0.425112 0.704546
vt 0.354089 0.738061
vt 0.352190 0.738075
vt 0.352212 0.738280
vt 0.399867 0.733975
vt 0.401667 0.735282
vt 0.401841 0.734918
vt 0.352066 0.723110
vt 0.354019 0.722981
vt 0.406695 0.716668
vt 0.408659 0.716381
vt 0.379804 0.743672
vt 0.379998 0.745218
vt 0.375987 0.691906
vt 0.376650 0.689074
vt 0.382536 0.743198
vt 0.382744 0.744669
vt 0.385602 0.700131
vt 0.385749 0.701158
vt 0.355074 0.687259
vt 0.354786 0.687463
vt 0.356155 0.689445
vt 0.362939 0.748789
vt 0.362459 0.748754
vt 0.363025 0.747108
vt 0.388755 0.741077
vt 0.389021 0.742525
vt 0.395361 0.740091
vt 0.394990 0.738662
vt 0.399936 0.699923
vt 0.400268 0.698364
vt 0.394341 0.698122
vt 0.394099 0.699726
vt 0.408568 0.710440
vt 0.406501 0.710751
vt 0.348130 0.708296
vt 0.350488 0.708409
vt 0.343607 0.706396
vt 0.353100 0.686909
vt 0.353911 0.686206
vt 0.341877 0.738793
vt 0.344969 0.745198
vt 0.363480 0.759383
vt 0.353499 0.754423
vt 0.344405 0.720195
vt 0.415093 0.707792
vt 0.402344 0.692560
vt 0.413011 0.735078
vt 0.410749 0.741476
vt 0.415693 0.714899
vt 0.403414 0.746021
vt 0.383918 0.753592
vt 0.387755 0.752371
vt 0.385429 0.692263
vt 0.376958 0.686752
vt 0.395671 0.749148
vt 0.395387 0.692096
vt 0.427752 0.692999
vt 0.415055 0.681636
vt 0.412365 0.681085
vt 0.423438 0.694539
vt 0.414163 0.686204
vt 0.411572 0.685530
vt 0.406033 0.704052
vt 0.405449 0.700895
vt 0.408031 0.702789
vt 0.407776 0.702391
vt 0.414137 0.699117
vt 0.410245 0.695756
vt 0.407807 0.694594
vt 0.386777 0.700012
vt 0.392874 0.679336
vt 0.392394 0.683593
vt 0.390267 0.692317
vt 0.389359 0.679789
vt 0.386376 0.698559
vt 0.388490 0.685247
vt 0.387073 0.693711
vt 0.341780 0.687381
vt 0.337699 0.690417
vt 0.337060 0.692003
vt 0.343473 0.689586
vt 0.341068 0.691482
vt 0.340622 0.692254
vt 0.347898 0.695879
vt 0.345230 0.694709
vt 0.345297 0.694538
vt 0.346300 0.692476
vt 0.343453 0.693847
vt 0.343653 0.693434
vt 0.344953 0.691600
vt 0.360724 0.737427
vt 0.357964 0.722481
vt 0.357453 0.708536
vt 0.377662 0.709316
vt 0.378496 0.719736
vt 0.379256 0.735123
vt 0.384937 0.709811
vt 0.384067 0.719057
vt 0.382976 0.734785
vt 0.391976 0.710348
vt 0.391452 0.718253
vt 0.389912 0.734397
vt 0.397990 0.710625
vt 0.398008 0.717537
vt 0.396630 0.734138
vt 0.356527 0.698479
vt 0.399167 0.704908
vt 0.392831 0.705604
vt 0.385347 0.704624
vt 0.377268 0.702567
s 1
usemtl Darker_grey
f 70/85/1 61/73/2 87/105/3 88/107/4
f 66/78/5 49/60/6 104/127/6 106/130/7
f 30/38/8 32/40/9 83/100/10 81/97/11
f 67/81/12 34/43/13 51/63/13 68/83/14
f 74/90/15 55/67/16 36/45/17 72/88/18
f 75/91/19 42/52/20 46/56/21 76/92/22
f 77/93/23 47/57/24 44/54/24 78/94/25
f 79/95/26 54/66/27 55/67/16 74/90/15
f 80/96/28 59/71/29 90/110/29 93/113/30
f 76/92/22 46/56/21 54/66/27 79/95/26
f 68/82/31 51/62/32 42/52/20 75/91/19
f 69/84/33 37/47/34 34/42/35 67/80/36
f 10/13/37 20/27/38 100/121/39 98/118/37
f 78/94/40 44/54/41 49/59/41 66/79/42
f 6/8/43 15/21/44 20/28/45 10/14/43
f 1/1/46 11/16/47 19/26/48 9/11/46
f 5/7/49 16/22/50 18/24/51 8/10/52
f 21/29/53 26/34/54 92/112/55 91/111/56
f 9/12/57 19/25/58 16/22/50 5/7/49
f 7/9/59 17/23/60 15/21/61 6/8/59
f 29/37/62 31/39/63 14/20/64 3/5/65
f 2/3/66 12/17/67 13/19/68 4/6/69
f 20/27/38 66/78/5 106/130/7 100/121/39
f 32/40/9 70/85/1 88/107/4 83/100/10
f 23/31/70 28/36/71 12/18/72 2/4/73
f 3/5/65 14/20/64 11/15/74 1/2/75
f 8/10/52 18/24/51 27/35/76 24/32/77
f 24/32/77 27/35/76 28/36/71 23/31/70
f 22/30/78 25/33/79 26/34/80 21/29/81
f 72/87/82 36/46/83 40/50/84 73/89/85
f 71/86/86 58/70/87 59/71/88 80/96/89
f 89/109/90 86/104/91 58/70/87 71/86/86
f 121/145/92 35/44/93 56/68/94
f 73/89/85 40/50/84 61/73/2 70/85/1
f 4/6/69 13/19/68 32/40/9 30/38/8
f 105/128/95 103/125/96 63/75/97 65/77/98
f 65/77/98 63/75/97 37/47/34 69/84/33
f 38/48/99 33/41/100 34/42/101 37/47/102
f 56/68/103 35/44/104 36/45/105 55/67/106
f 85/103/107 57/69/108 58/70/109 86/104/110
f 102/124/111 64/76/112 63/75/113 103/125/111
f 64/76/112 38/48/99 37/47/102 63/75/113
f 35/44/104 39/49/114 40/50/115 36/46/105
f 52/64/116 41/51/117 42/52/118 51/62/116
f 48/58/119 43/53/120 44/54/121 47/57/119
f 41/51/117 45/55/122 46/56/123 42/52/118
f 60/72/124 48/58/125 90/110/125 59/71/126
f 43/53/120 50/61/127 49/59/128 44/54/121
f 33/41/100 52/64/129 51/63/129 34/43/101
f 45/55/122 53/65/130 54/66/131 46/56/123
f 53/65/130 56/68/103 55/67/106 54/66/131
f 57/69/108 60/72/124 59/71/126 58/70/109
f 39/49/114 62/74/132 61/73/133 40/50/115
f 50/61/127 102/124/134 104/127/134 49/60/128
f 31/39/63 65/77/98 69/84/33 14/20/64
f 101/123/135 105/128/95 65/77/98 31/39/63
f 13/19/68 73/89/85 70/85/1 32/40/9
f 84/102/136 89/109/90 71/86/86 25/33/79
f 25/33/79 71/86/86 80/96/89 26/34/80
f 12/17/67 72/87/82 73/89/85 13/19/68
f 15/21/44 78/94/40 66/79/42 20/28/45
f 14/20/64 69/84/33 67/80/36 11/15/74
f 19/25/58 68/82/31 75/91/19 16/22/50
f 18/24/51 76/92/22 79/95/26 27/35/76
f 26/34/54 80/96/28 93/113/30 92/112/55
f 27/35/76 79/95/26 74/90/15 28/36/71
f 17/23/60 77/93/23 78/94/25 15/21/61
f 16/22/50 75/91/19 76/92/22 18/24/51
f 28/36/71 74/90/15 72/88/18 12/18/72
f 11/16/47 67/81/12 68/83/14 19/26/48
f 62/74/132 85/103/107 87/105/137 61/73/133
f 84/102/136 82/99/138 81/98/139 83/101/140
f 85/103/107 86/104/110 87/106/137
f 89/109/90 84/102/136 83/101/140 88/108/141
f 86/104/91 89/109/90 88/108/141 87/106/142
f 82/99/138 84/102/136 25/33/79 22/30/78
f 90/110/143 48/58/143 95/115/143
f 92/112/55 93/113/30 97/117/144 96/116/145
f 93/113/30 90/110/146 95/115/146 97/117/144
f 91/111/56 92/112/55 96/116/145 94/114/147
f 94/114/148 96/116/149 17/23/150 7/9/148
f 95/115/151 48/58/151 47/57/151
f 96/116/149 97/117/152 77/93/153 17/23/150
f 97/117/152 95/115/154 47/57/154 77/93/153
f 98/118/155 100/121/156 101/122/157 99/119/155
f 102/124/158 103/126/158 104/127/158
f 106/130/159 104/127/160 103/126/160 105/129/161
f 100/121/156 106/130/159 105/129/161 101/122/157
f 99/120/162 101/123/135 31/39/63 29/37/62
f 108/132/163 107/131/164 33/41/165 38/48/166
f 109/133/167 108/132/163 38/48/166 64/76/168
f 43/53/169 126/150/170 122/146/171 50/61/172
f 110/134/173 111/135/174 108/132/163 109/133/167
f 111/135/174 112/136/175 107/131/164 108/132/163
f 33/41/165 107/131/164 52/64/176
f 60/72/177 124/148/178 125/149/179 48/58/180
f 114/138/181 115/139/182 112/136/175 111/135/174
f 113/137/183 114/138/181 111/135/174 110/134/173
f 50/61/172 122/146/171 102/124/184
f 107/131/164 112/136/175 41/51/185 52/64/176
f 117/141/186 118/142/187 115/139/182 114/138/181
f 116/140/188 117/141/186 114/138/181 113/137/183
f 85/103/189 123/147/190 57/69/191
f 112/136/175 115/139/182 45/55/192 41/51/185
f 120/144/193 121/145/92 118/142/187 117/141/186
f 119/143/194 120/144/193 117/141/186 116/140/188
f 115/139/182 118/142/187 53/65/195 45/55/192
f 123/147/190 85/103/189 62/74/196 119/143/194
f 123/147/190 124/148/178 60/72/177 57/69/191
f 39/49/197 35/44/93 121/145/92 120/144/193
f 118/142/187 121/145/92 56/68/94 53/65/195
f 126/150/170 125/149/179 113/137/183 110/134/173
f 122/146/171 126/150/170 110/134/173 109/133/167
f 125/149/179 124/148/178 116/140/188 113/137/183
f 124/148/178 123/147/190 119/143/194 116/140/188
f 102/124/184 122/146/171 109/133/167 64/76/168
f 62/74/196 39/49/197 120/144/193 119/143/194
f 48/58/180 125/149/179 126/150/170 43/53/169
