# Blender 3.3.0
# www.blender.org
mtllib MESH_GrasCornerLeft_02.mtl
o GrasCornerLeft
v -0.750000 0.000000 -2.000000
v 0.750000 0.000000 -2.000000
v -0.750000 2.000000 2.000000
v 0.750000 0.000000 2.000000
v -0.750000 2.000000 -1.751125
v -0.750000 1.875563 -2.000000
v 0.750000 1.870459 2.000000
v 0.652844 2.000000 2.000000
v 0.652844 1.875563 -2.000000
v 0.750000 1.859599 -2.000000
v 0.657147 0.000000 -2.000000
v 0.652844 2.000000 -1.751125
v 0.750000 1.860137 -1.802116
v 0.750000 0.000000 -1.812413
vn -0.0000 0.8944 -0.4472
vn -0.0000 1.0000 -0.0000
vn 1.0000 -0.0000 -0.0000
vn -0.0000 -0.0000 -1.0000
vn 0.1454 0.8849 -0.4425
vn 0.8110 0.5851 -0.0008
vn 0.8210 0.5709 -0.0015
vt 0.663047 0.984387
vt 0.500920 0.692046
vt 0.663047 0.856659
vt 0.233345 0.957044
vt 0.160313 0.691871
vt 0.479646 0.984387
vt 0.406532 0.957044
vt 0.503339 0.984387
vt 0.160231 0.851144
vt 0.233345 0.892275
vt 0.160231 0.864932
vt 0.503339 0.864932
vt 0.503947 0.856570
vt 0.504699 0.856659
vt 0.500838 0.850394
vt 0.663047 0.864566
vt 0.406532 0.892275
vt 0.479646 0.864932
vt 0.483988 0.850431
vt 0.484946 0.692038
s 0
usemtl Gras
f 5/6/1 12/18/1 9/12/1 6/8/1
f 5/7/2 3/4/2 8/10/2 12/17/2
f 2/2/3 10/15/3 13/19/3 14/20/3
f 1/1/4 6/8/4 9/12/4 11/16/4
f 10/13/5 9/12/5 12/18/5
f 7/9/6 13/19/6 12/18/6 8/11/6
f 11/16/4 9/12/4 10/14/4 2/3/4
f 12/18/7 13/19/7 10/15/7
f 14/20/3 13/19/3 7/9/3 4/5/3
