# Blender 3.3.0
# www.blender.org
mtllib MESH_GrasTriple_02.mtl
o Cube
v -4.500000 0.000000 -2.000000
v 4.500000 0.000000 -2.000000
v -4.500000 2.000000 2.000000
v -4.500000 0.000000 2.000000
v 4.500000 2.000000 2.000000
v 4.500000 0.000000 2.000000
v -4.500000 2.000000 -1.751125
v -4.500000 1.875563 -2.000000
v 4.500000 1.875563 -2.000000
v 4.500000 2.000000 -1.751126
vn 1.0000 -0.0000 -0.0000
vn -0.0000 1.0000 -0.0000
vn -0.0000 -0.0000 -1.0000
vn -0.0000 0.8944 -0.4472
vn -1.0000 -0.0000 -0.0000
vt 0.538406 0.164271
vt 0.680527 0.015058
vt 0.680526 0.984942
vt 0.538406 0.835729
vt 0.937653 0.263359
vt 0.978952 0.164271
vt 0.978952 0.015058
vt 0.978952 0.835729
vt 0.937653 0.736641
vt 0.978952 0.984942
vt 0.740393 0.263359
vt 0.699094 0.164271
vt 0.678335 0.164271
vt 0.680527 0.154987
vt 0.680526 0.845013
vt 0.678335 0.835729
vt 0.740393 0.736641
vt 0.699094 0.835729
s 0
usemtl Gras
f 2/3/1 9/15/1 10/18/1 5/8/1 6/10/1
f 7/11/2 3/5/2 5/9/2 10/17/2
f 1/1/3 8/13/3 9/16/3 2/4/3
f 7/12/4 10/18/4 9/16/4 8/13/4
f 4/7/5 3/6/5 7/12/5 8/14/5 1/2/5
