# Blender 3.3.0
# www.blender.org
mtllib MESH_GrasSingle_01.mtl
o Cube.006
v -1.500000 0.000000 -2.000000
v 1.500000 0.000000 -2.000000
v -1.500000 2.000000 2.000000
v 1.500000 2.000000 2.000000
v -1.500000 2.000000 -1.751125
v -1.500000 1.875563 -2.000000
v 1.500000 1.875563 -2.000000
v 1.500000 2.000000 -1.751125
vn -0.0000 1.0000 -0.0000
vn -0.0000 -0.0000 -1.0000
vn -0.0000 0.8944 -0.4472
vt 0.508054 0.640234
vt 0.508054 0.394596
vt 0.024562 0.640234
vt 0.024562 0.394596
vt 0.331701 0.640234
vt 0.354484 0.640234
vt 0.354484 0.394596
vt 0.331701 0.394596
s 0
usemtl Gras
f 5/5/1 3/3/1 4/4/1 8/8/1
f 1/1/2 6/6/2 7/7/2 2/2/2
f 5/5/3 8/8/3 7/7/3 6/6/3
