# Blender 3.3.0
# www.blender.org
mtllib MESH_GrasTriple_01.mtl
o Cube
v -4.500000 0.000000 -2.000000
v 4.500000 0.000000 -2.000000
v -4.500000 2.000000 2.000000
v -4.500000 0.000000 2.000000
v 4.500000 2.000000 2.000000
v 4.500000 0.000000 2.000000
v -4.500000 2.000000 -1.751125
v -4.500000 1.875563 -2.000000
v 4.500000 1.875563 -2.000000
v 4.500000 2.000000 -1.751126
vn 1.0000 -0.0000 -0.0000
vn -0.0000 1.0000 -0.0000
vn -0.0000 -0.0000 -1.0000
vn -0.0000 0.8944 -0.4472
vn -1.0000 -0.0000 -0.0000
vt 0.538406 0.164271
vt 0.680527 0.015058
vt 0.680526 0.984942
vt 0.538406 0.835729
vt 0.978952 0.164271
vt 0.978952 0.015058
vt 0.978952 0.835729
vt 0.978952 0.984942
vt 0.699094 0.164271
vt 0.678335 0.164271
vt 0.680527 0.154987
vt 0.680526 0.845013
vt 0.678335 0.835729
vt 0.699094 0.835729
s 0
usemtl Gras
f 2/3/1 9/12/1 10/14/1 5/7/1 6/8/1
f 7/9/2 3/5/2 5/7/2 10/14/2
f 1/1/3 8/10/3 9/13/3 2/4/3
f 7/9/4 10/14/4 9/13/4 8/10/4
f 4/6/5 3/5/5 7/9/5 8/11/5 1/2/5
