# Blender 3.3.0
# www.blender.org
mtllib MESH_GrasBottomLarge_01.mtl
o Cube.004
v -4.500000 0.000000 1.000000
v -4.500000 8.000000 1.000000
v -4.500000 0.000000 -1.000000
v -4.500000 8.000000 -1.000000
v 4.500000 0.000000 1.000000
v 4.500000 8.000000 1.000000
v 4.500000 0.000000 -1.000000
v 4.500000 8.000000 -1.000000
vn -1.0000 -0.0000 -0.0000
vn -0.0000 -0.0000 -1.0000
vn 1.0000 -0.0000 -0.0000
vt 0.000078 0.000078
vt 0.615366 0.000078
vt 0.000078 0.153900
vt 0.615366 0.153900
vt 0.000079 0.999921
vt 0.615366 0.999922
vt 0.000079 0.846099
vt 0.615366 0.846099
s 0
usemtl Gras_bottom
f 1/1/1 2/2/1 4/4/1 3/3/1
f 3/3/2 4/4/2 8/8/2 7/7/2
f 7/7/3 8/8/3 6/6/3 5/5/3
